<svg xmlns="http://www.w3.org/2000/svg" viewBox="0 0 106.45 153.87"><defs><style>.cls-1{isolation:isolate;}.cls-2{fill:#f830cf;}.cls-3,.cls-8{fill:#3a219e;}.cls-3{opacity:0.3;mix-blend-mode:multiply;}.cls-4{fill:#a31197;}.cls-5{fill:#f863d4;}.cls-6{fill:#ffe031;}.cls-7{fill:#ffa531;}.cls-9{fill:#7334d9;}.cls-10{fill:#6f4af0;opacity:0.4;mix-blend-mode:screen;}</style></defs><g class="cls-1"><g id="Layer_2" data-name="Layer 2"><g id="OBJECTS"><path class="cls-2" d="M84,65.17c-1.26-.13-2.54-.28-3.91-.39a39.38,39.38,0,0,0-8,.62c-3.35.48-5.75,1.68-5.51,2.64s-1.44,4.31-1.2,5.27a62.67,62.67,0,0,1,.48,9.83c-.24,1.67-.48,17.25-.24,20.61a57.75,57.75,0,0,1-1.2,12c-.48,2.16-5.27,7.67-5.27,8.87s-2.16,2.64,2.16,4.31,6.23,3.6,9.34,3.36c3.35-.26,6.34-2.34,9.84-2.16a14.54,14.54,0,0,1,4.35,1.39c2.75,1.08,5.45,3,8.36,3.47,1.63.29,5.61,1.12,6.29-.94.85-2.54-3.39-2.84-3-4.61.17-.72,3.49-1.14,4.19-1.14,1.77,0,3,.37,4.72-.56,3.11-1.68-1.44-4.08-3.36-4.8s-3.83-5.27-4.55-8.39-2.16-14.62-1.44-17S99.63,72.59,97.48,69c-1.52-2.54-5.86-3.65-8.59-3.57A35.56,35.56,0,0,1,84,65.17Z"/><path class="cls-3" d="M95.46,82.5c.82-.26,1.65.35,2.46.14.47-6,.58-12-.44-13.64a5.18,5.18,0,0,0-.85-1c-.44-.16-.88-.3-1.31-.43-1.66-.52-3.17-1.29-4.79-2l-.18-.07a12.46,12.46,0,0,0-1.46-.06A35.56,35.56,0,0,1,84,65.17c-1.26-.13-2.54-.28-3.91-.39a39.38,39.38,0,0,0-8,.62c-3.35.48-5.75,1.68-5.51,2.64s-1.44,4.31-1.2,5.27A70.19,70.19,0,0,1,65.9,82c1.07,0,2.31-.75,3.41-.93a3.46,3.46,0,0,1,2.64,1,5.49,5.49,0,0,0,3.36,1.47c3,.31,2.8,3.56,3.92,6.37.68,1.7,1.92,4.9,3.76,5,2.2.13,3.25-3.72,3.82-5.71.63-2.2.49-5.2,2.78-3.45,2,1.53,2.63.63,4-1.43C94.07,83.65,94.69,82.74,95.46,82.5Z"/><path class="cls-3" d="M70.63,132.27c3.35-.26,6.34-2.34,9.84-2.16a14.54,14.54,0,0,1,4.35,1.39c2.75,1.08,5.45,3,8.36,3.47,1.63.29,5.61,1.12,6.29-.94.56-1.68-1.1-2.38-2.17-3.17a4.38,4.38,0,0,1,1,1.5c.28,1.17-4.13-.81-7.1-2.25s-6.38-8.63-8.26-9.35-5.13,3.78-9.8,3.33-2.43-4.22-3.51-5.75S71.83,107.91,72.3,107s-.29-2.3-1.28-3.56.45-6.83.36-7.55-1.62,2.34-2.77,1.8,1.51-6.75,2.14-7.82.71-9.93.71-9.93c-.77-3.1-3.12-4.59-5.92-5.25a62.39,62.39,0,0,1,.3,8.47c-.24,1.67-.48,17.25-.24,20.61a57.75,57.75,0,0,1-1.2,12c-.48,2.16-5.27,7.67-5.27,8.87s-2.16,2.64,2.16,4.31S67.52,132.51,70.63,132.27Z"/><path class="cls-3" d="M99.42,126.34a6.11,6.11,0,0,1-5-3.42,38.5,38.5,0,0,0,.36,4.5,8.32,8.32,0,0,0,1.76,2.51,1,1,0,0,1,0-.51c.17-.72,3.49-1.14,4.19-1.14,1.77,0,3,.37,4.72-.56,1.07-.59,1.23-1.25.9-1.91C104.77,126.55,102.05,126.47,99.42,126.34Z"/><path class="cls-4" d="M63.32,123.52a4.09,4.09,0,0,1,.33-.91,18.72,18.72,0,0,0,.88-2.37,9.53,9.53,0,0,0,.3-1.62c0-.58,0-1.22,0-1.88,0-.33,0-.67,0-1s0-.69.07-1c.06-.69.12-1.4.17-2.1a48.93,48.93,0,0,0-.09-7.65c-.08-1.06-.13-1.93-.18-2.55l0-1s-.06-1.41,0-3.53.13-4.87.19-7.67.17-5.61.42-7.7c.09-1,.25-1.91.36-2.52a3.3,3.3,0,0,1,.23-.94,3.35,3.35,0,0,1,0,1c0,.61-.13,1.48-.16,2.52-.13,2.09-.13,4.88-.09,7.67s.09,5.6,0,7.7.08,3.46.08,3.46,0,.35,0,1,.07,1.49.11,2.54a46.07,46.07,0,0,1-.13,7.79c-.09.7-.17,1.39-.25,2.08,0,.34-.08.67-.11,1s0,.67,0,1c0,.65,0,1.29-.09,1.92a9.85,9.85,0,0,1-.41,1.7,15.11,15.11,0,0,1-1.08,2.33C63.55,123.24,63.36,123.54,63.32,123.52Z"/><path class="cls-4" d="M68.12,126.64s-.19.06-.51.14-.77.21-1.31.39a35.55,35.55,0,0,1-4,1.24,5.69,5.69,0,0,1-2.4.06,2.28,2.28,0,0,1-1.11-.62,2.47,2.47,0,0,1-.54-1,4.68,4.68,0,0,1,0-2.12l0-.15.14-.39a6.45,6.45,0,0,1,.66-1.33,22.45,22.45,0,0,1,2.74-3.23A21.12,21.12,0,0,0,63.25,118a7.8,7.8,0,0,0,.54-.83l.22-.4c.06-.13.11-.26.16-.39.41-1,.37-1.8.47-1.8a3.29,3.29,0,0,1-.07,1.93c0,.14-.09.29-.13.44l-.2.45a7.14,7.14,0,0,1-.5.94,17.45,17.45,0,0,1-1.35,1.82,23.32,23.32,0,0,0-2.46,3.24,5.84,5.84,0,0,0-.52,1.16c0,.14-.08.25-.1.33l0,.12s0,.16-.1.46a3.3,3.3,0,0,0,0,1.19,1.7,1.7,0,0,0,.28.61,1.44,1.44,0,0,0,.65.4,5.12,5.12,0,0,0,2,0c1.46-.21,2.93-.65,4.06-.89a8.46,8.46,0,0,1,1.38-.21C67.92,126.55,68.12,126.6,68.12,126.64Z"/><path class="cls-4" d="M84.53,129.75c0,.09-.77,0-1.89.05a17.88,17.88,0,0,0-4,.86c-1.44.45-2.87,1-4,1.31a18.75,18.75,0,0,1-1.89.5s-.19,0-.53.08-.86.06-1.45.06a15.67,15.67,0,0,1-4.21-.79c-.38-.11-.73-.28-1.08-.41a7.93,7.93,0,0,1-1-.47l-.92-.5-.76-.54a5.72,5.72,0,0,1-1.05-.93c-.23-.24-.35-.39-.32-.42s.19.07.46.26a9.12,9.12,0,0,0,1.14.74l.78.44.93.41a6.25,6.25,0,0,0,1,.37c.35.11.69.25,1,.33a15.85,15.85,0,0,0,4,.52c.54,0,1-.08,1.29-.11l.49-.09s.73-.11,1.82-.39,2.55-.73,4-1.1a16,16,0,0,1,4.22-.55A4.18,4.18,0,0,1,84.53,129.75Z"/><path class="cls-4" d="M90.41,120.88c-.1,0,0-1-.15-2.48,0-.18-.05-.37-.08-.57s0-.19-.05-.29l-.09-.29-.19-.61a.57.57,0,0,0-.12-.26l-.19-.28A9.77,9.77,0,0,1,88,113.47a5.88,5.88,0,0,1-.06-3.14A9.3,9.3,0,0,1,89.23,108a9.77,9.77,0,0,0,.89-1.47,4.88,4.88,0,0,0,.19-.57,1.47,1.47,0,0,0,0-.16,2.49,2.49,0,0,0,.08-.45,6.73,6.73,0,0,0,0-1.68c-.06-.72-.2-1.56-.37-2.49a17.53,17.53,0,0,1-.33-3,46.14,46.14,0,0,1,.1-5.51,13.66,13.66,0,0,1,.33-1.79c.1-.43.17-.67.21-.66a18.5,18.5,0,0,1-.12,2.48c0,1.49.09,3.46.24,5.45s.76,3.83.92,5.39a8.37,8.37,0,0,1,0,1.92c0,.23-.07.42-.09.55s0,.19,0,.19a5.2,5.2,0,0,1-.27.72,10.5,10.5,0,0,1-1,1.61,8.43,8.43,0,0,0-1.24,2.08,5,5,0,0,0-.06,2.67,9.69,9.69,0,0,0,1.3,2.51l.19.31a1.17,1.17,0,0,1,.13.37c.06.23.11.45.17.67s0,.21.07.32l0,.32c0,.2,0,.4,0,.6A7.87,7.87,0,0,1,90.41,120.88Z"/><path class="cls-4" d="M72,107.34s0-.19.15-.46a2,2,0,0,0,.1-1.16,4.16,4.16,0,0,0-.85-1.46,5,5,0,0,1-1-1.94,5.34,5.34,0,0,1,.09-2.23c.14-.66.31-1.25.4-1.75,0-.12,0-.24.06-.35l0-.08v0s0,0,0,0a0,0,0,0,0,0,0h0s0,0,0,0l0,0-.18.13a2,2,0,0,1-.91.38,1.08,1.08,0,0,1-.7-.2,1.2,1.2,0,0,1-.4-.52,2.71,2.71,0,0,1-.22-1,7.37,7.37,0,0,1,.21-2,14.23,14.23,0,0,1,1.17-3.44,3.18,3.18,0,0,1,1-1.29c.07.05-.29.57-.62,1.45a18,18,0,0,0-.82,3.41,6.74,6.74,0,0,0-.06,1.84,2.22,2.22,0,0,0,.18.73c0,.08.1.14.12.14s0,0,.07,0A1.08,1.08,0,0,0,70,97.2a.67.67,0,0,0,.12-.1l.19-.19a3.32,3.32,0,0,0,.36-.38l1-1.18c.09.47.1.51.1.51l.14.78a4.23,4.23,0,0,1,0,.43,2.53,2.53,0,0,1,0,.54l0,.31,0,.15,0,.1c0,.12,0,.26-.08.39-.25,1.07-.88,2.38-.72,3.62s1.43,2.26,1.57,3.47A2.09,2.09,0,0,1,72.3,107C72.11,107.24,72,107.36,72,107.34Z"/><path class="cls-4" d="M104.43,128s.09-.08.27-.16a5,5,0,0,0,.73-.41,1.47,1.47,0,0,0,.65-1,2,2,0,0,0-.58-1.45,6.42,6.42,0,0,0-1.51-1.28,8.11,8.11,0,0,0-2-.87,10.74,10.74,0,0,1-1.18-.44c-.19-.1-.38-.22-.57-.33l-.28-.18-.25-.22A6.22,6.22,0,0,1,98,119.51a15.65,15.65,0,0,1-1.32-4.94c-.2-1.61-.29-3.1-.43-4.35s-.37-2.29-.48-3L95.62,106s-.07-.42-.17-1.16-.24-1.8-.37-3.07c0-.65-.1-1.34-.13-2.08s-.06-1.51,0-2.32L95,96.18l.18-1.26c.09-.85.33-1.67.5-2.5s.4-1.66.56-2.47c.09-.4.17-.8.26-1.2s.12-.79.18-1.18.14-.78.16-1.14,0-.75.06-1.11c0-.73.07-1.42.11-2.06a20.44,20.44,0,0,1,.36-3.06,2.63,2.63,0,0,1,.31-.83c.11-.19.26-.2.26-.19s-.1.06-.17.24a3.18,3.18,0,0,0-.18.81,27.83,27.83,0,0,0-.17,3c0,.64,0,1.32,0,2,0,.37,0,.74,0,1.13a11.76,11.76,0,0,1-.11,1.18c0,.4-.09.81-.15,1.22s-.15.81-.22,1.23c-.14.83-.33,1.65-.49,2.49S96.08,94.23,96,95c0,.41-.09.81-.13,1.21s0,.79,0,1.18c0,.78,0,1.54,0,2.26s.12,1.39.17,2c.16,1.25.3,2.29.43,3s.18,1.14.18,1.14.07.42.18,1.16.3,1.77.42,3.09.17,2.78.34,4.34a15,15,0,0,0,1.11,4.72,5.31,5.31,0,0,0,3.41,3.06,8.23,8.23,0,0,1,2.14,1,6.64,6.64,0,0,1,1.56,1.46,2.34,2.34,0,0,1,.57,1.74,1.69,1.69,0,0,1-.85,1.13,3.29,3.29,0,0,1-.82.33A1.11,1.11,0,0,1,104.43,128Z"/><path class="cls-4" d="M84.42,130.71s0,0,.1.13a1.71,1.71,0,0,0,.22.35A2.9,2.9,0,0,0,86,132a14.4,14.4,0,0,0,2.08.51,12.24,12.24,0,0,1,2.51.62,24,24,0,0,0,4.26,1.7,5,5,0,0,0,.79.1,2.42,2.42,0,0,0,.61,0l.39,0a.41.41,0,0,0,.14,0l.53-.09a2.74,2.74,0,0,0,1.16-.48.62.62,0,0,0,.21-.54,2,2,0,0,0-.32-.87A10.11,10.11,0,0,0,96.78,131a10.86,10.86,0,0,1-1.62-2A8.16,8.16,0,0,1,94.3,127a6.15,6.15,0,0,1-.3-2.13,16,16,0,0,1,.7,2,8.31,8.31,0,0,0,1,1.87,11.29,11.29,0,0,0,1.64,1.77,10.29,10.29,0,0,1,1.76,1.91,2.9,2.9,0,0,1,.51,1.25,1.6,1.6,0,0,1-.46,1.33,3.5,3.5,0,0,1-1.6.8l-.61.13a.59.59,0,0,1-.17,0l-.47,0a3.79,3.79,0,0,1-.74,0,4.91,4.91,0,0,1-.93-.16,22.64,22.64,0,0,1-4.37-2,12.79,12.79,0,0,0-2.32-.73,11.69,11.69,0,0,1-2.12-.71,2.67,2.67,0,0,1-1.22-1.06,1,1,0,0,1-.14-.43C84.4,130.77,84.4,130.72,84.42,130.71Z"/><path class="cls-4" d="M104.79,128.19a4.89,4.89,0,0,1-2.36.54l-2.35.15-.72,0a14.73,14.73,0,0,0-1.56.06,7.33,7.33,0,0,0-1.51.3c-.41.12-.68.24-.73.17s.16-.29.55-.55a5.17,5.17,0,0,1,1.55-.66,10.23,10.23,0,0,1,1.65-.3l.75-.07s1.2,0,2.37.16A14.27,14.27,0,0,1,104.79,128.19Z"/><path class="cls-5" d="M91.85,127.37c.42-.29,1.22.14,1.78,1s.67,1.72.24,2-1.21-.15-1.77-1S91.43,127.65,91.85,127.37Zm-1.52-1.13c.17.61.56,1,.88,1s.43-.66.26-1.28-.56-1-.88-1S90.15,125.62,90.33,126.24ZM99,124c.23-.35,1-.27,1.64.17s1,1.09.81,1.44-1,.27-1.64-.18S98.79,124.3,99,124Zm-1.5-.38c.32.41.76.61,1,.45s.12-.63-.2-1-.75-.62-1-.45S97.2,123.17,97.52,123.58ZM93.44,91.81c.62.07,1,1.11.87,2.31s-.74,2.13-1.37,2.06-1-1.11-.87-2.31S92.82,91.75,93.44,91.81Zm-.51-2.25c-.34.7-.31,1.42,0,1.59s.93-.27,1.26-1,.31-1.42,0-1.59S93.26,88.85,92.93,89.56Z"/><path class="cls-3" d="M81.12,94.86a8.34,8.34,0,1,0,8.17,8.51A8.35,8.35,0,0,0,81.12,94.86Zm-2.07,11.6L77,103.09l2.08-3.27,4.09.08,1.95,3.39-1.73,3.16Zm4,.63-1.69,3.09-1.88-3.07Zm-4.72-.62H74.84l1.76-2.78Zm-1.68-4-1.68-2.74,3.38.07Zm4.57-6,1.59,2.77-3.3-.07Zm2.72,3.43,3,.06-1.46,2.66Zm1.57,4,1.44,2.49H84.1Zm.37-.66,2-3.59a7.75,7.75,0,0,1,.84,3.65,7.56,7.56,0,0,1-.85,3.35Zm1.76-4-4.08-.08-2.15-3.73A7.68,7.68,0,0,1,87.6,99.34ZM81,95.51l-2.33,3.66-4.25-.08A7.69,7.69,0,0,1,81,95.51Zm-6.91,4.16,2.1,3.42L74,106.54a7.6,7.6,0,0,1,.1-6.87Zm.21,7.45h4.35L81,110.89h-.2A7.73,7.73,0,0,1,74.34,107.12Zm7.34,3.74,2.07-3.77H87.6A7.72,7.72,0,0,1,81.68,110.86Z"/><path class="cls-6" d="M81.25,95.55a8.06,8.06,0,1,0,7.9,8.21A8.06,8.06,0,0,0,81.25,95.55Zm-2,11.21-2-3.26,2-3.16,3.95.08,1.88,3.28-1.67,3Zm3.83.61-1.64,3-1.81-3Zm-4.56-.61H75.18l1.7-2.68Zm-1.63-3.85-1.62-2.65,3.26.06Zm4.42-5.79,1.53,2.67-3.19-.07Zm2.62,3.31,2.93.06-1.41,2.57Zm1.53,3.89,1.39,2.41H84.13Zm.35-.63,1.9-3.47a7.49,7.49,0,0,1,.82,3.53,7.57,7.57,0,0,1-.82,3.23Zm1.7-3.81-3.94-.08-2.08-3.61A7.42,7.42,0,0,1,87.51,99.88Zm-6.34-3.71-2.25,3.54-4.1-.08A7.42,7.42,0,0,1,81.17,96.17Zm-6.67,4,2,3.31-2.12,3.34a7.3,7.3,0,0,1,.1-6.65Zm.2,7.2h4.2L81.14,111H81A7.42,7.42,0,0,1,74.7,107.39ZM81.79,111l2-3.64,3.72,0A7.45,7.45,0,0,1,81.79,111Z"/><path class="cls-7" d="M85.09,103.7l-.75,1.37,3.1-5.19-3.87-.08-.37-.64-.36.62h0l-.36.61.73,0Zm1.77-3.21-1.41,2.57-1.52-2.63Z"/><polygon class="cls-7" points="78.9 107.38 80.95 110.74 81.31 110.14 79.63 107.38 82.97 107.37 83.34 106.74 79.25 106.76 79.02 106.39 78.44 107.38 78.9 107.38"/><path class="cls-7" d="M74.54,108.28l.35-.6-.19-.29h.36l.38-.62h-.26l1.7-2.68.08.13.36-.6-.07-.12,2-3.16h0l2.34-3.93-.13-.22.25,0,.36-.61a6,6,0,0,0-.85-.06,8,8,0,0,0-2.77.44l-.52.89a7.36,7.36,0,0,1,3.21-.71l-2.25,3.54-2.56,0-.36.62,2.53,0-1.64,2.59-1.24-2-.36.61,1.23,2-2.12,3.34a7.23,7.23,0,0,1-.71-2.57l-.51.87A8,8,0,0,0,74.54,108.28Z"/><polygon class="cls-7" points="87.7 106.97 86.06 104.12 85.7 104.74 86.85 106.73 84.54 106.74 84.18 107.36 87.47 107.35 87.7 106.97"/><path class="cls-7" d="M88.36,100.15l-.39.67a7.35,7.35,0,0,1,.56,2.93,7.51,7.51,0,0,1-.8,3.17l1.35-2.25c0-.29.06-.6.07-.91A8.09,8.09,0,0,0,88.36,100.15Z"/><path class="cls-7" d="M87.2,107.81A7.44,7.44,0,0,1,82.1,111l-.39.68a8,8,0,0,0,4.12-1.53Z"/><path class="cls-7" d="M84.77,96.45l-.32.55a7.4,7.4,0,0,1,3,2.82l.37-.61A8,8,0,0,0,84.77,96.45Z"/><path class="cls-7" d="M80.78,111A7.44,7.44,0,0,1,77,109.82l-.32.54a8,8,0,0,0,3.71,1.27Z"/><path class="cls-8" d="M66.56,66.12c-1.38.23-1.72,1.9-1.56,3,.2,1.38.43,1.94-.15,3.32S63.18,75.5,63.72,77c1,3,3.55,1.2,5.59.92a3.9,3.9,0,0,1,2.64.87A6.09,6.09,0,0,0,75.31,80c3,.26,2.8,2.93,3.92,5.24.68,1.41,1.92,4,3.76,4.13,2.2.11,3.25-3.06,3.82-4.7.63-1.81.49-4.28,2.78-2.84,2,1.26,2.63.52,4-1.17a4.08,4.08,0,0,1,1.87-1.55c1-.25,2,.54,3-.07a5.38,5.38,0,0,0,1.13-1.56,7.91,7.91,0,0,0,.84-3.92c.05-2.21.6-3.42-1.21-5.1a8.78,8.78,0,0,0-3.85-1.66c-1.66-.43-3.17-1.06-4.79-1.63a37.4,37.4,0,0,0-5.28-1.32,11.71,11.71,0,0,0-3.49-.36c-3.57.35-7,1.08-10.52,1.49-1.62.19-4.12.21-5.16,1.72"/><path class="cls-3" d="M93.45,66.92l.07,0c.68.34,1.69.52,1.69,1.44,0,.76-1,1.26-1.57,1.43-2.26.67-5.11.08-7.4-.12-2.51-.23-5.09-.59-7.58-.71-2.24-.11-4.31.17-6.46-.37-.82-.2-2.62-.15-2.65-1.31,0-1.83,3.88-1.61,5-1.82A42.18,42.18,0,0,1,82,64.92C85.72,64.92,90.07,65.26,93.45,66.92Z"/><path class="cls-9" d="M88.55,65.22a2.16,2.16,0,0,1,.78.18,10.37,10.37,0,0,1,1.91.89,4.17,4.17,0,0,1,1.11.95,1.22,1.22,0,0,1,.3.89,1.15,1.15,0,0,1-.61.81,4.75,4.75,0,0,1-1.7.5,11.29,11.29,0,0,1-1.74.1H86.86c-.57,0-1.12-.07-1.66-.11l-2.93-.25c-.86-.1-1.56-.11-2-.13l-.77,0s-.34,0-.91,0l-2.4,0c-1,0-2.14,0-3.35-.13a11.53,11.53,0,0,1-1.86-.29,3.84,3.84,0,0,1-1-.36,1.75,1.75,0,0,1-.46-.38,1,1,0,0,1-.19-.69v0a1.19,1.19,0,0,1,.58-.9,3.46,3.46,0,0,1,.74-.38,9,9,0,0,1,1.45-.42,20,20,0,0,1,2.54-.36,6,6,0,0,1,2.41.08s-.93,0-2.36.29c-.72.12-1.56.28-2.45.52a9.26,9.26,0,0,0-1.34.47,3.13,3.13,0,0,0-.6.34.54.54,0,0,0-.26.36v0h0c-.06.21.55.51,1.1.6a11,11,0,0,0,1.73.2c1.17.06,2.3,0,3.27,0l2.41-.11.94,0,.8.05c.52,0,1.24.07,2.1.2l2.91.35c.53,0,1.08.14,1.63.17l1.68.06a11.59,11.59,0,0,0,1.67,0,4.24,4.24,0,0,0,1.49-.34c.42-.21.44-.49.19-.88a4,4,0,0,0-.94-.9C89.62,65.67,88.51,65.31,88.55,65.22Z"/><path class="cls-9" d="M72.55,75.47c0,.07-.58.33-1.39.9s-1.88,1.38-3.07,2.07a5.57,5.57,0,0,1-2,.75A2.23,2.23,0,0,1,65,79.06a2,2,0,0,1-.83-.61,3.5,3.5,0,0,1-.65-1.23c-.1-.31-.14-.49-.14-.49l-.08-.48c0-.15,0-.34-.07-.55s0-.48,0-.76a6.22,6.22,0,0,1,.43-1.78c.22-.61.52-1.2.74-1.8a7.1,7.1,0,0,0,.43-1.81c0-.6.07-1.2.15-1.71a2.49,2.49,0,0,1,.73-1.54,12.74,12.74,0,0,0-.31,1.59c0,.48,0,1,0,1.69a7,7,0,0,1-.31,2c-.18.67-.44,1.29-.61,1.86A5.72,5.72,0,0,0,64.22,75c0,.22,0,.43,0,.61s.06.35.08.48.09.42.09.42,0,.15.1.41a2.78,2.78,0,0,0,.41.92,1.22,1.22,0,0,0,1.1.48,5.11,5.11,0,0,0,1.71-.54c1.17-.56,2.3-1.3,3.2-1.76A3.28,3.28,0,0,1,72.55,75.47Z"/><path class="cls-9" d="M76.33,80.5c0,.08-.29.08-.67.09l-1.42.06a5.45,5.45,0,0,1-1.52-.19l-.48-.17-.08,0s.06,0,0,0h0a3.79,3.79,0,0,1-.66-.34A7.88,7.88,0,0,1,70.3,79c-.37-.36-.75-.67-1-.91s-.51-.38-.48-.46.29,0,.68.09a7.35,7.35,0,0,1,1.3.67,9.15,9.15,0,0,0,1.17.67,3.22,3.22,0,0,0,.52.19h0l.12,0,.06,0,.38.2a5.46,5.46,0,0,0,1.26.36,13.74,13.74,0,0,1,1.42.28C76.11,80.3,76.34,80.43,76.33,80.5Z"/><path class="cls-9" d="M91.07,76.37c.06.08-.81.6-1.72,1.7a5.86,5.86,0,0,0-1.09,2.13C88,81,87.87,82,87.65,83a17,17,0,0,1-1.58,5.28,3.35,3.35,0,0,1-1.49,1.41,2.32,2.32,0,0,1-.78.21l-.2,0a1.9,1.9,0,0,1-.58,0,3.41,3.41,0,0,1-1.87-.79c-1.3-1-2.13-3-2.78-4.79-.33-.93-.58-1.89-.91-2.7a5.37,5.37,0,0,0-1.36-1.94,14.92,14.92,0,0,1-1.23-1.28c-.25-.36-.37-.58-.34-.6s.21.15.5.45.77.66,1.35,1.12a5.68,5.68,0,0,1,1.63,2c.41.86.7,1.78,1.07,2.67.71,1.77,1.62,3.52,2.68,4.28a2.38,2.38,0,0,0,1.35.52.89.89,0,0,0,.4,0l.14,0a1.62,1.62,0,0,0,.52-.11,2.32,2.32,0,0,0,1.06-1,16.67,16.67,0,0,0,1.68-4.92c.28-1,.45-1.9.79-2.8A5.78,5.78,0,0,1,89,77.79c.13-.13.25-.27.38-.38l.38-.3a3.73,3.73,0,0,1,.65-.44C90.83,76.44,91.05,76.33,91.07,76.37Z"/><path class="cls-9" d="M97.54,76c0,.07-.34.29-.77.75a12.73,12.73,0,0,0-1.36,1.89c-.45.74-.89,1.49-1.22,2s-.62.93-.62.93l-.2.24a5.56,5.56,0,0,1-.6.6,3,3,0,0,1-1.1.67A1.93,1.93,0,0,1,90.13,83a4.66,4.66,0,0,1-1.71-1.85c-.32-.58-.47-1-.41-1s.34.31.76.79a4.79,4.79,0,0,0,1.67,1.4,1.48,1.48,0,0,0,1.65-.57,5.78,5.78,0,0,0,.63-.78s.27-.31.65-.83.88-1.24,1.42-1.94a9,9,0,0,1,1.71-1.76C97.06,76.05,97.51,75.94,97.54,76Z"/><path class="cls-9" d="M93.88,80.62s0-.21.19-.55a1.9,1.9,0,0,1,1.26-.9,14.66,14.66,0,0,1,2.11,0,1.54,1.54,0,0,0,.92-.27A2,2,0,0,0,98.9,78a12.42,12.42,0,0,0,.66-4.23c0-.62.07-1.14.1-1.48s0-.55,0-.55,0-.19,0-.52A3.16,3.16,0,0,0,99.58,70a3.77,3.77,0,0,0-1-1.52,5.85,5.85,0,0,0-1.88-1.13,32.15,32.15,0,0,0-4.25-1,5.35,5.35,0,0,1-1.93-.63,18.1,18.1,0,0,1,2,.22A24.26,24.26,0,0,1,97,66.6a6.34,6.34,0,0,1,2.22,1.18,4.54,4.54,0,0,1,1.33,1.85,4.35,4.35,0,0,1,.27,1.61c0,.38,0,.58,0,.58s-.09.81-.22,2a12.83,12.83,0,0,1-1,4.48,2.68,2.68,0,0,1-.84,1.09,2.24,2.24,0,0,1-1.31.31,19,19,0,0,0-2-.14,1.75,1.75,0,0,0-1.16.62C94,80.47,93.92,80.64,93.88,80.62Z"/><path class="cls-3" d="M98.44,77.44c-2.07.27.44-1.16-.9-1.43s-4.32,3.5-5.94,3.68-.53-3.32-.53-3.32c-1.89-.36-4.41,7.72-6.57,9.16s-1.7-3.77-2.87-6.83-5.49-5.39-7.91-6.11-5.12,1.17-6.92,1,0-2.43-.18-4.4c-.09-.94-.11-2-.11-2.93a2.4,2.4,0,0,0-.43.47l.43-.53v0c-1.34.26-1.67,1.89-1.51,3,.2,1.38.43,1.94-.15,3.32S63.18,75.5,63.72,77c1,3,3.55,1.2,5.59.92a3.9,3.9,0,0,1,2.64.87A6.09,6.09,0,0,0,75.31,80c3,.26,2.8,2.93,3.92,5.24.68,1.41,1.92,4,3.76,4.13,2.2.11,3.25-3.06,3.82-4.7.63-1.81.49-4.28,2.78-2.84,2,1.26,2.63.52,4-1.17a4.08,4.08,0,0,1,1.87-1.55c1-.25,2,.54,3-.07a5.38,5.38,0,0,0,1.13-1.56,5.6,5.6,0,0,0,.36-.74A5.05,5.05,0,0,1,98.44,77.44Z"/><path class="cls-10" d="M85.51,78.41c.47.15.61,1,.31,1.93s-.92,1.54-1.39,1.39-.61-1-.31-1.94S85,78.25,85.51,78.41Zm0-1.85c-.38.5-.47,1.06-.21,1.25s.76-.06,1.13-.55.47-1.06.21-1.25S85.84,76.06,85.47,76.56Z"/><path class="cls-10" d="M94.24,71.51c-.23-.58.49-1.41,1.62-1.86s2.23-.34,2.46.24-.5,1.42-1.63,1.86S94.47,72.09,94.24,71.51ZM92.49,73c.77,0,1.39-.39,1.37-.79s-.67-.7-1.44-.66-1.4.4-1.38.8S91.7,73.07,92.49,73Z"/><path class="cls-6" d="M78.66,41.9S72,55.82,79.38,59s11.15-1.36,10.07-6.79l-1.08,1.36s1.8-4.08.36-6.79S83.1,36.8,83.94,34c0,0-4.68,9.06-3.48,11.1l-.12-6.23Z"/><path class="cls-7" d="M80.28,47.05s-4.25,8.83.46,10.84,7.06-.86,6.38-4.31l-.69.86s1.14-2.58.23-4.3-3.57-6.32-3-8.11c0,0-3,5.74-2.2,7l-.08-4Z"/><path class="cls-2" d="M81.62,51.87s-2.06,4.27.22,5.25,3.42-.42,3.09-2.09l-.33.42a2.87,2.87,0,0,0,.11-2.09c-.44-.83-1.73-3.06-1.47-3.93,0,0-1.44,2.78-1.07,3.41l0-1.91Z"/><path class="cls-8" d="M82.44,56.05c.07,0,.35.24.72.75A5.77,5.77,0,0,1,84,59a9.92,9.92,0,0,1,0,2.29c0,.62-.11,1-.11,1s-.09.38-.22,1a14.42,14.42,0,0,0-.34,2,7.18,7.18,0,0,0,.18,2c.16.54.28.93.19,1s-.35-.25-.68-.79a5.82,5.82,0,0,1-.64-2.21A11.71,11.71,0,0,1,82.43,63c.07-.59.12-1,.12-1s.1-.38.21-.94A10.07,10.07,0,0,0,83,59a7,7,0,0,0-.31-2C82.49,56.49,82.36,56.11,82.44,56.05Z"/><path class="cls-8" d="M39.07,47.07c-1.91-.2-3.84-.43-5.9-.59-3.86-.29-8.27.39-12.1.94-5.07.72-8.68,2.53-8.32,4s-2.17,6.51-1.81,8,1.09,12.29.73,14.82-.73,26-.37,31.1-1.08,14.82-1.8,18.08-8,11.57-8,13.38-3.25,4,3.26,6.51,9.4,5.42,14.09,5.06c5.06-.39,9.56-3.53,14.85-3.25,2.3.12,4.42,1.26,6.56,2.1,4.15,1.62,8.22,4.46,12.62,5.23,2.46.43,8.46,1.68,9.49-1.43,1.27-3.83-5.12-4.29-4.51-6.95.25-1.08,5.26-1.72,6.31-1.72,2.68,0,4.49.56,7.12-.85,4.7-2.53-2.17-6.15-5.06-7.23s-5.79-8-6.87-12.66-3.26-22.06-2.17-25.67,5.42-37.61,2.17-43c-2.3-3.83-8.84-5.5-13-5.38A53.68,53.68,0,0,1,39.07,47.07Z"/><path class="cls-3" d="M56.36,73.2c1.23-.38,2.49.54,3.71.23.71-9.1.86-18-.67-20.59a7.71,7.71,0,0,0-1.27-1.54c-.67-.25-1.34-.45-2-.66-2.51-.79-4.79-2-7.24-3l-.27-.1a16.86,16.86,0,0,0-2.2-.09,53.68,53.68,0,0,1-7.37-.39c-1.91-.2-3.84-.43-5.9-.59-3.86-.29-8.27.39-12.1.94-5.07.72-8.68,2.53-8.32,4s-2.17,6.51-1.81,8a105.9,105.9,0,0,1,.82,13.1c1.62-.07,3.49-1.12,5.15-1.4,1.5-.25,2.73.62,4,1.58A8.27,8.27,0,0,0,26,74.84c4.53.47,4.22,5.37,5.92,9.61,1,2.57,2.89,7.4,5.67,7.56,3.32.2,4.91-5.62,5.76-8.62,1-3.32.74-7.84,4.2-5.2,3,2.31,4,1,6-2.15C54.25,74.94,55.19,73.57,56.36,73.2Z"/><path class="cls-3" d="M18.89,148.3c5.06-.39,9.56-3.53,14.85-3.25,2.3.12,4.42,1.26,6.56,2.1,4.15,1.62,8.22,4.46,12.62,5.23,2.46.43,8.46,1.68,9.49-1.43.84-2.53-1.66-3.59-3.28-4.78a6.83,6.83,0,0,1,1.44,2.26c.41,1.77-6.24-1.22-10.71-3.39s-9.63-13-12.48-14.1-7.73,5.7-14.78,5-3.66-6.37-5.29-8.68,3.4-15.73,4.1-17.14-.43-3.47-1.93-5.37.68-10.3.55-11.39-2.44,3.53-4.19,2.72,2.29-10.18,3.24-11.8,1.06-15,1.06-15c-1.15-4.68-4.7-6.93-8.93-7.92.35,3.66.74,10.78.46,12.77-.37,2.53-.73,26-.37,31.1s-1.08,14.82-1.8,18.08-8,11.57-8,13.38-3.25,4,3.26,6.51S14.2,148.66,18.89,148.3Z"/><path class="cls-3" d="M62.33,139.35a9.21,9.21,0,0,1-7.59-5.15,57.8,57.8,0,0,0,.55,6.78c.2,1,1.42,2.38,2.65,3.79a1.42,1.42,0,0,1,0-.77c.25-1.08,5.26-1.72,6.31-1.72,2.68,0,4.49.56,7.12-.85,1.63-.88,1.87-1.89,1.36-2.87C70.4,139.67,66.3,139.55,62.33,139.35Z"/><path class="cls-9" d="M7.87,135.1a5.63,5.63,0,0,1,.5-1.38,30,30,0,0,0,1.31-3.57,12.69,12.69,0,0,0,.46-2.45c0-.86,0-1.83,0-2.83,0-.5,0-1,0-1.53s.07-1,.11-1.57c.08-1,.17-2.1.26-3.16a73.44,73.44,0,0,0-.15-11.54c-.11-1.59-.19-2.92-.26-3.84s-.08-1.47-.08-1.47-.09-2.13,0-5.32.2-7.36.29-11.58.25-8.46.63-11.62c.15-1.58.39-2.89.55-3.8A4.78,4.78,0,0,1,11.85,68a5.69,5.69,0,0,1,0,1.46c-.07.92-.2,2.22-.25,3.8-.19,3.15-.19,7.36-.12,11.57s.13,8.44.06,11.62.12,5.22.12,5.22,0,.52,0,1.45.1,2.25.17,3.83a70.56,70.56,0,0,1-.21,11.75c-.12,1-.25,2.1-.37,3.13,0,.52-.12,1-.16,1.52s0,1,0,1.51c0,1-.07,1.94-.16,2.89a13.93,13.93,0,0,1-.61,2.56,23,23,0,0,1-1.63,3.53A4.74,4.74,0,0,1,7.87,135.1Z"/><path class="cls-9" d="M15.1,139.8c0,.06-.29.09-.77.21s-1.15.32-2,.6a54.16,54.16,0,0,1-6.1,1.86,8.47,8.47,0,0,1-3.62.1A3.51,3.51,0,0,1,1,141.64a3.71,3.71,0,0,1-.81-1.54,7.4,7.4,0,0,1,0-3.21s0-.07.05-.22.12-.34.21-.6a10.35,10.35,0,0,1,1-2A34.27,34.27,0,0,1,5.6,129.2a28.36,28.36,0,0,0,2.15-2.5,12.13,12.13,0,0,0,.82-1.25c.11-.21.23-.41.33-.61s.17-.4.25-.59c.61-1.54.55-2.71.71-2.71a5.06,5.06,0,0,1-.11,2.91c-.07.21-.13.44-.2.67s-.2.44-.3.68a12.9,12.9,0,0,1-.75,1.41,27,27,0,0,1-2,2.74,36.89,36.89,0,0,0-3.72,4.89A8.66,8.66,0,0,0,2,136.59c-.07.22-.13.38-.16.5l0,.18s-.05.25-.15.69a5.07,5.07,0,0,0,0,1.8,2.27,2.27,0,0,0,.42.92,2,2,0,0,0,1,.6,7.51,7.51,0,0,0,3.08.06c2.21-.31,4.42-1,6.12-1.34a12.26,12.26,0,0,1,2.09-.31C14.81,139.67,15.11,139.75,15.1,139.8Z"/><path class="cls-9" d="M39.87,144.5c0,.13-1.17-.06-2.85.08a26.38,26.38,0,0,0-6.07,1.3c-2.17.67-4.34,1.47-6,2s-2.85.75-2.85.75-.29.06-.81.13-1.28.08-2.18.08a23.65,23.65,0,0,1-6.36-1.18c-.56-.17-1.09-.42-1.62-.63a9.31,9.31,0,0,1-1.53-.71l-1.39-.75L7,144.72a9.31,9.31,0,0,1-1.57-1.39c-.35-.37-.53-.6-.49-.64s.29.11.7.39a15.47,15.47,0,0,0,1.71,1.12l1.18.67,1.4.6a10,10,0,0,0,1.51.57c.53.16,1,.37,1.59.5a24.26,24.26,0,0,0,6,.78c.82,0,1.49-.13,2-.16s.73-.14.73-.14,1.1-.17,2.75-.6,3.84-1.09,6.1-1.65A23.58,23.58,0,0,1,37,144,6.44,6.44,0,0,1,39.87,144.5Z"/><path class="cls-9" d="M48.73,131.12c-.15,0,0-1.54-.22-3.75,0-.27-.08-.56-.13-.85l-.06-.45c0-.14-.1-.29-.14-.44l-.3-.91a1,1,0,0,0-.17-.4l-.28-.42a14.87,14.87,0,0,1-2.31-4A8.84,8.84,0,0,1,45,115.2,14,14,0,0,1,47,111.62a14.6,14.6,0,0,0,1.34-2.21c.2-.54.29-.87.29-.87l0-.24a4,4,0,0,0,.13-.67,10.68,10.68,0,0,0,0-2.55c-.09-1.08-.3-2.35-.55-3.74a26.47,26.47,0,0,1-.5-4.48,65,65,0,0,1,.16-8.32,20,20,0,0,1,.49-2.71c.15-.64.25-1,.31-1a26.27,26.27,0,0,1-.18,3.75c0,2.24.13,5.21.37,8.22s1.15,5.78,1.38,8.13a11.79,11.79,0,0,1,0,2.89,5,5,0,0,1-.13.83l-.06.29a9.59,9.59,0,0,1-.4,1.1,16.78,16.78,0,0,1-1.56,2.42,12.67,12.67,0,0,0-1.87,3.14,7.61,7.61,0,0,0-.09,4,14.55,14.55,0,0,0,2,3.78l.27.47a1.42,1.42,0,0,1,.2.55c.09.35.17.69.26,1,0,.17.07.33.11.49s0,.32,0,.48c0,.31,0,.62.06.91A11.41,11.41,0,0,1,48.73,131.12Z"/><path class="cls-9" d="M20.89,110.69c-.05,0,.05-.28.23-.7a3.08,3.08,0,0,0,.15-1.74A6.54,6.54,0,0,0,20,106a7.56,7.56,0,0,1-1.57-2.92,8,8,0,0,1,.13-3.36c.22-1,.47-1.9.61-2.65,0-.19.06-.36.09-.53l0-.12s0,0,0,0v0s0,0,0,0a0,0,0,0,0,0,0h0s0,0,0,0l-.08,0-.27.2a2.87,2.87,0,0,1-1.37.56,1.58,1.58,0,0,1-1.05-.29,1.84,1.84,0,0,1-.61-.79,4.44,4.44,0,0,1-.33-1.59,11.73,11.73,0,0,1,.31-3.07,21.8,21.8,0,0,1,1.77-5.19,4.74,4.74,0,0,1,1.49-2c.09.08-.45.86-.94,2.2a26.09,26.09,0,0,0-1.24,5.13,10.92,10.92,0,0,0-.1,2.78,3.26,3.26,0,0,0,.28,1.09.53.53,0,0,0,.18.23s0,0,.11,0a1.55,1.55,0,0,0,.62-.34,1.37,1.37,0,0,0,.18-.15l.28-.28a6.25,6.25,0,0,0,.55-.58l1.45-1.78.15.77s.08.42.21,1.18a5.39,5.39,0,0,1,.05.65,3.75,3.75,0,0,1,0,.81c0,.15,0,.3-.05.46l0,.24,0,.14c0,.18-.08.39-.14.59-.36,1.61-1.31,3.6-1.07,5.46s2.16,3.41,2.36,5.24a3.17,3.17,0,0,1-.48,2C21.12,110.54,20.93,110.72,20.89,110.69Z"/><path class="cls-9" d="M69.88,141.79s.14-.11.41-.24a6.21,6.21,0,0,0,1.11-.61,2.21,2.21,0,0,0,1-1.5,3,3,0,0,0-.88-2.18,9.73,9.73,0,0,0-2.27-1.94,12.09,12.09,0,0,0-3.1-1.3,16.37,16.37,0,0,1-1.78-.67c-.29-.15-.57-.34-.85-.51l-.43-.26-.38-.33a9.71,9.71,0,0,1-2.45-3.2,23.83,23.83,0,0,1-2-7.46c-.31-2.42-.44-4.67-.66-6.56s-.54-3.45-.72-4.56-.29-1.75-.29-1.75L56.34,107c-.17-1.11-.35-2.71-.55-4.64-.06-1-.16-2-.21-3.13s-.09-2.29,0-3.51c0-.61.07-1.23.1-1.85L56,92c.14-1.28.5-2.51.75-3.78s.6-2.49.85-3.71L58,82.64c.12-.6.19-1.19.28-1.78s.21-1.17.23-1.72.07-1.13.09-1.68c.06-1.09.12-2.13.17-3.09a30.28,30.28,0,0,1,.55-4.63,4,4,0,0,1,.46-1.26c.18-.28.39-.3.39-.27s-.14.09-.25.35a5.83,5.83,0,0,0-.28,1.23,40.45,40.45,0,0,0-.24,4.6c0,1,0,2,0,3.09l0,1.71c0,.6-.12,1.18-.17,1.78s-.13,1.22-.23,1.84l-.33,1.85c-.22,1.26-.5,2.5-.74,3.75s-.54,2.5-.64,3.72c-.07.62-.14,1.22-.21,1.82s0,1.2,0,1.79c-.07,1.17.06,2.32.07,3.4s.19,2.11.27,3c.23,1.89.45,3.46.64,4.56s.28,1.72.28,1.72.09.64.26,1.75.45,2.68.63,4.66.26,4.19.51,6.56a23,23,0,0,0,1.68,7.11,8,8,0,0,0,5.15,4.61,12.61,12.61,0,0,1,3.23,1.52A10.11,10.11,0,0,1,72,136.87a3.54,3.54,0,0,1,.86,2.63,2.56,2.56,0,0,1-1.28,1.71,4.62,4.62,0,0,1-1.23.5C70.05,141.79,69.89,141.82,69.88,141.79Z"/><path class="cls-9" d="M39.69,146s.08.06.15.19a2.47,2.47,0,0,0,.35.52,4,4,0,0,0,1.82,1.2,19.1,19.1,0,0,0,3.13.77,18.07,18.07,0,0,1,3.79.94c2.4,1,4.67,2.26,6.43,2.56a6.14,6.14,0,0,0,1.19.15,3.42,3.42,0,0,0,.92,0l.59,0a.85.85,0,0,0,.21,0l.81-.14a4.14,4.14,0,0,0,1.74-.74,1,1,0,0,0,.32-.81,2.81,2.81,0,0,0-.49-1.3,14.82,14.82,0,0,0-2.3-2.77,16.51,16.51,0,0,1-2.44-3,11.53,11.53,0,0,1-1.31-3.12,9.12,9.12,0,0,1-.44-3.21,25.6,25.6,0,0,1,1,3,12.68,12.68,0,0,0,1.46,2.82,16.61,16.61,0,0,0,2.47,2.67,15.8,15.8,0,0,1,2.66,2.88,4.3,4.3,0,0,1,.77,1.89,2.41,2.41,0,0,1-.7,2,5.2,5.2,0,0,1-2.41,1.21l-.93.2a1.53,1.53,0,0,1-.25,0l-.72,0a5.24,5.24,0,0,1-1.1,0,7.06,7.06,0,0,1-1.41-.24c-2.07-.46-4.32-1.86-6.59-3a18.52,18.52,0,0,0-3.5-1.1,16.65,16.65,0,0,1-3.2-1.08,4,4,0,0,1-1.84-1.59,1.54,1.54,0,0,1-.22-.65Q39.64,146,39.69,146Z"/><path class="cls-9" d="M70.43,142.15c0,.23-1.75.69-3.56.81l-3.55.23-1.08,0a22.42,22.42,0,0,0-2.35.09,11.18,11.18,0,0,0-2.29.45c-.61.18-1,.36-1.1.26s.25-.44.83-.83a8.27,8.27,0,0,1,2.35-1,18,18,0,0,1,2.49-.45l1.13-.1s1.81.08,3.57.24S70.38,142,70.43,142.15Z"/><path class="cls-10" d="M50.91,140.9c.64-.43,1.84.22,2.68,1.46s1,2.6.37,3-1.84-.22-2.68-1.46S50.27,141.34,50.91,140.9Zm-2.3-1.7c.25.93.85,1.58,1.33,1.44s.65-1,.4-1.92-.85-1.58-1.33-1.44S48.35,138.27,48.61,139.2Z"/><path class="cls-10" d="M61.73,135.76c.35-.53,1.45-.41,2.47.26s1.57,1.65,1.22,2.17-1.45.4-2.47-.27S61.39,136.28,61.73,135.76Zm-2.26-.57c.48.62,1.13.92,1.45.68s.19-1-.3-1.58-1.13-.92-1.45-.67S59,134.57,59.47,135.19Z"/><path class="cls-10" d="M53.31,87.27c.93.1,1.52,1.66,1.32,3.48S53.5,94,52.56,93.85,51,92.18,51.24,90.36,52.37,87.16,53.31,87.27Zm-.78-3.41c-.5,1.06-.47,2.14.08,2.4s1.4-.4,1.91-1.47.47-2.14-.08-2.39S53,82.79,52.53,83.86Z"/><path class="cls-9" d="M34.71,91.86a12.59,12.59,0,1,0,12.34,12.83A12.6,12.6,0,0,0,34.71,91.86Zm-3.12,17.51-3.11-5.09,3.13-4.94,6.16.12,2.95,5.12-2.61,4.76Zm6,.95L35,115l-2.84-4.64Zm-7.13-.95-5.21,0,2.66-4.19Zm-2.54-6-2.53-4.14,5.1.1Zm6.9-9,2.4,4.17-5-.1Zm4.1,5.18,4.56.09-2.2,4Zm2.38,6.08,2.16,3.76H39.22Zm.55-1,3-5.4a11.51,11.51,0,0,1,0,10.54Zm2.66-5.95-6.16-.12-3.25-5.64A11.64,11.64,0,0,1,44.5,98.62Zm-9.91-5.78-3.5,5.52-6.42-.12A11.61,11.61,0,0,1,34.59,92.84ZM24.17,99.11l3.16,5.16L24,109.49a11.52,11.52,0,0,1,.15-10.38Zm.32,11.25,6.56,0,3.49,5.7-.3,0A11.61,11.61,0,0,1,24.49,110.36ZM35.56,116l3.13-5.69,5.8,0A11.62,11.62,0,0,1,35.56,116Z"/><path class="cls-6" d="M34.91,92.9a12.16,12.16,0,1,0,11.92,12.39A12.18,12.18,0,0,0,34.91,92.9Zm-3,16.91-3-4.91,3-4.78,6,.12,2.85,5-2.53,4.6Zm5.79.92-2.47,4.5-2.75-4.48Zm-6.89-.91h-5l2.57-4ZM28.34,104l-2.45-4,4.92.09ZM35,95.26l2.32,4L32.5,99.2Zm4,5,4.41.09-2.12,3.88Zm2.3,5.88,2.1,3.63-4.1,0Zm.53-1L44.66,100a11.17,11.17,0,0,1,0,10.2Zm2.57-5.75-5.94-.12-3.14-5.45A11.19,11.19,0,0,1,44.36,99.43Zm-9.57-5.59L31.4,99.18l-6.19-.12A11.17,11.17,0,0,1,34.79,93.84ZM24.72,99.9l3.06,5-3.2,5a11,11,0,0,1-1.13-5.09A11.2,11.2,0,0,1,24.72,99.9ZM25,110.77l6.34,0,3.37,5.52h-.29A11.21,11.21,0,0,1,25,110.77Zm10.7,5.45,3-5.49,5.61,0A11.25,11.25,0,0,1,35.73,116.22Z"/><path class="cls-7" d="M40.72,105.19l-1.14,2.07,4.68-7.83-5.84-.12-.56-1-.54.94h0l-.54.93,1.1,0Zm2.65-4.84-2.12,3.88-2.29-4Z"/><polygon class="cls-7" points="31.37 110.75 34.47 115.82 35.01 114.91 32.46 110.75 37.51 110.73 38.07 109.79 31.89 109.81 31.55 109.25 30.68 110.75 31.37 110.75"/><path class="cls-7" d="M24.79,112.11l.54-.91c-.1-.14-.21-.28-.3-.43h.55l.56-.94h-.39l2.57-4,.12.2.55-.91-.11-.17,3-4.78h0l3.53-5.92-.19-.34.37,0L36.2,93q-.64-.08-1.29-.09a11.86,11.86,0,0,0-4.18.67L30,94.91a11,11,0,0,1,4.83-1.07L31.4,99.18l-3.87-.08L27,100l3.82.07L28.34,104l-1.88-3.07-.53.93,1.85,3-3.2,5a11.26,11.26,0,0,1-1.08-3.87l-.76,1.32A12,12,0,0,0,24.79,112.11Z"/><polygon class="cls-7" points="44.65 110.14 42.17 105.83 41.63 106.77 43.36 109.77 39.88 109.78 39.34 110.73 44.31 110.71 44.65 110.14"/><path class="cls-7" d="M45.64,99.84l-.58,1a11.25,11.25,0,0,1,.83,4.42,11,11,0,0,1-1.2,4.79l2-3.39a12.43,12.43,0,0,0,.11-1.38A12,12,0,0,0,45.64,99.84Z"/><path class="cls-7" d="M43.9,111.4a11.25,11.25,0,0,1-7.7,4.75l-.6,1a12.05,12.05,0,0,0,6.22-2.31Z"/><path class="cls-7" d="M40.23,94.25l-.48.83a11.41,11.41,0,0,1,4.56,4.26l.55-.92A12.32,12.32,0,0,0,40.23,94.25Z"/><path class="cls-7" d="M34.21,116.25a11.11,11.11,0,0,1-5.66-1.82l-.48.82a12.11,12.11,0,0,0,5.6,1.91Z"/><path class="cls-2" d="M12.75,48.5c-2.08.34-2.6,2.87-2.36,4.52.32,2.09.66,2.93-.22,5S7.66,62.65,8.46,65c1.54,4.47,5.37,1.81,8.45,1.39a5.94,5.94,0,0,1,4,1.3A9.11,9.11,0,0,0,26,69.47c4.53.39,4.22,4.42,5.92,7.91,1,2.12,2.89,6.09,5.67,6.23,3.32.16,4.91-4.63,5.76-7.1,1-2.73.74-6.45,4.2-4.28,3,1.9,4,.78,6-1.77a6.12,6.12,0,0,1,2.83-2.33c1.48-.39,3,.81,4.45-.11a8.37,8.37,0,0,0,1.7-2.35,11.81,11.81,0,0,0,1.26-5.91c.09-3.34.92-5.16-1.82-7.7-1.59-1.47-3.85-2-5.8-2.5-2.51-.65-4.79-1.6-7.24-2.46a54.19,54.19,0,0,0-8-2,17.61,17.61,0,0,0-5.27-.55c-5.39.53-10.55,1.64-15.87,2.25-2.44.29-6.21.32-7.78,2.59"/><path class="cls-5" d="M53.32,49.71l.1.06c1,.52,2.55.78,2.55,2.17,0,1.14-1.49,1.9-2.36,2.16-3.4,1-7.72.12-11.16-.19C38.66,53.57,34.76,53,31,52.84c-3.38-.17-6.51.26-9.75-.55-1.24-.31-4-.22-4-2-.08-2.75,5.85-2.43,7.6-2.74a62.86,62.86,0,0,1,11.21-.88C41.66,46.69,48.23,47.2,53.32,49.71Z"/><path class="cls-4" d="M45.93,47.14a3.28,3.28,0,0,1,1.17.28A14.35,14.35,0,0,1,50,48.76a6.44,6.44,0,0,1,1.69,1.43,1.88,1.88,0,0,1,.44,1.34,1.71,1.71,0,0,1-.92,1.23,7.23,7.23,0,0,1-2.56.75,17.86,17.86,0,0,1-2.63.16H43.38c-.86,0-1.7-.12-2.51-.17l-4.42-.38c-1.29-.14-2.35-.17-3.09-.19l-1.17,0s-.51,0-1.36-.07l-3.62,0c-1.5,0-3.23,0-5.06-.19a18.88,18.88,0,0,1-2.8-.44,5.76,5.76,0,0,1-1.43-.55,2.19,2.19,0,0,1-.7-.58,1.5,1.5,0,0,1-.3-1v.06a1.83,1.83,0,0,1,.86-1.36,5.71,5.71,0,0,1,1.13-.57,14.1,14.1,0,0,1,2.19-.64A28.48,28.48,0,0,1,24.93,47c2.21-.19,3.66,0,3.64.12s-1.41.08-3.57.45a33.46,33.46,0,0,0-3.7.78,13.81,13.81,0,0,0-2,.7,4.7,4.7,0,0,0-.91.52.8.8,0,0,0-.39.54v0c-.1.32.82.76,1.64.9a20.75,20.75,0,0,0,2.63.31c1.76.09,3.46,0,4.93,0l3.63-.15c.91,0,1.43,0,1.43,0l1.2.08c.77,0,1.87.1,3.16.29l4.39.53c.8.08,1.63.21,2.46.26l2.54.08a17.59,17.59,0,0,0,2.52,0A6.58,6.58,0,0,0,50.75,52c.64-.31.68-.74.29-1.33a6.06,6.06,0,0,0-1.41-1.36C47.55,47.82,45.87,47.28,45.93,47.14Z"/><path class="cls-4" d="M21.79,62.6c0,.11-.88.5-2.1,1.37s-2.83,2.08-4.63,3.12a8.25,8.25,0,0,1-3,1.13A3.42,3.42,0,0,1,10.4,68a3.18,3.18,0,0,1-1.26-.91,5.53,5.53,0,0,1-1-1.87C8,64.78,8,64.51,8,64.51s0-.26-.12-.72c0-.24-.06-.52-.1-.84s0-.72,0-1.14a9.67,9.67,0,0,1,.65-2.68c.33-.92.78-1.82,1.11-2.72a10.71,10.71,0,0,0,.65-2.73c.07-.91.11-1.81.24-2.58a3.71,3.71,0,0,1,1.09-2.33,23.66,23.66,0,0,0-.47,2.4c0,.73,0,1.58.05,2.55a11.51,11.51,0,0,1-.47,3c-.29,1-.68,1.94-.94,2.8a8.72,8.72,0,0,0-.42,2.33c0,.33,0,.64,0,.91s.09.53.12.73l.14.63s0,.23.14.61a4.12,4.12,0,0,0,.63,1.4,1.8,1.8,0,0,0,1.65.72,7.52,7.52,0,0,0,2.58-.81c1.76-.85,3.47-2,4.83-2.65A5.08,5.08,0,0,1,21.79,62.6Z"/><path class="cls-4" d="M27.48,70.2c0,.11-.42.12-1,.13l-2.14.08a8.16,8.16,0,0,1-2.3-.27l-.72-.26-.12,0s.08,0,0,0l-.08,0a5.53,5.53,0,0,1-1-.51,12.41,12.41,0,0,1-1.74-1.4c-.57-.54-1.13-1-1.58-1.38s-.77-.58-.73-.68.45-.06,1,.13a10.86,10.86,0,0,1,2,1,13.48,13.48,0,0,0,1.77,1,4.76,4.76,0,0,0,.77.28l.05,0,.18.07.09,0,.58.29a8.71,8.71,0,0,0,1.9.55,17.55,17.55,0,0,1,2.14.43C27.15,69.89,27.51,70.09,27.48,70.2Z"/><path class="cls-4" d="M49.72,64c.1.13-1.21.91-2.59,2.56a8.79,8.79,0,0,0-1.63,3.22c-.4,1.27-.6,2.76-.93,4.19-.55,2.88-1.12,5.88-2.39,8A5.19,5.19,0,0,1,39.94,84a3.87,3.87,0,0,1-1.18.31l-.3,0a2.88,2.88,0,0,1-.88,0,5.14,5.14,0,0,1-2.81-1.2c-2-1.58-3.23-4.44-4.2-7.23-.5-1.39-.88-2.85-1.37-4.07A8.17,8.17,0,0,0,27.14,69,20.25,20.25,0,0,1,25.29,67c-.38-.54-.56-.86-.52-.89s.32.22.76.67,1.16,1,2,1.7a8.55,8.55,0,0,1,2.46,3c.61,1.3,1,2.68,1.61,4,1.07,2.68,2.44,5.32,4,6.46a3.52,3.52,0,0,0,2,.79,1.65,1.65,0,0,0,.6,0l.22,0a2.39,2.39,0,0,0,.78-.17,3.65,3.65,0,0,0,1.6-1.47c1.13-1.69,1.85-4.56,2.54-7.43.41-1.43.67-2.87,1.18-4.23a9,9,0,0,1,2-3.34c.2-.2.39-.41.58-.58l.58-.45a6.37,6.37,0,0,1,1-.67C49.36,64.08,49.69,63.91,49.72,64Z"/><path class="cls-4" d="M59.49,63.41c0,.12-.51.45-1.16,1.15a17.75,17.75,0,0,0-2,2.84l-1.84,3.09c-.52.86-.93,1.42-.93,1.42s-.1.13-.31.36a9.37,9.37,0,0,1-.9.9,4.76,4.76,0,0,1-1.66,1A2.93,2.93,0,0,1,48.32,74a7,7,0,0,1-2.58-2.8c-.5-.87-.71-1.5-.63-1.55s.51.46,1.14,1.19A7.43,7.43,0,0,0,48.78,73a2.24,2.24,0,0,0,2.49-.87,8.74,8.74,0,0,0,.95-1.17s.41-.47,1-1.26,1.32-1.86,2.14-2.91a13.48,13.48,0,0,1,2.58-2.67C58.76,63.47,59.46,63.32,59.49,63.41Z"/><path class="cls-4" d="M54,70.38s0-.33.29-.83a2.87,2.87,0,0,1,1.91-1.36,20.72,20.72,0,0,1,3.17-.07,2.48,2.48,0,0,0,1.39-.41,3,3,0,0,0,.82-1.29,19,19,0,0,0,1-6.38c.05-.93.11-1.71.15-2.24s.06-.82.06-.82,0-.29,0-.78a5.32,5.32,0,0,0-.22-1.91A5.66,5.66,0,0,0,61.07,52a8.24,8.24,0,0,0-2.83-1.71,46.33,46.33,0,0,0-6.41-1.57,8.37,8.37,0,0,1-2.92-.95,23.38,23.38,0,0,1,3,.33,36.38,36.38,0,0,1,6.69,1.11A9.38,9.38,0,0,1,62,51a6.94,6.94,0,0,1,2,2.78,6.54,6.54,0,0,1,.4,2.43,8.61,8.61,0,0,1,0,.88s-.13,1.22-.33,3a19.29,19.29,0,0,1-1.45,6.76,3.84,3.84,0,0,1-1.26,1.65,3.32,3.32,0,0,1-2,.47,27.68,27.68,0,0,0-3.08-.21,2.66,2.66,0,0,0-1.75.93C54.21,70.14,54,70.4,54,70.38Z"/><path class="cls-3" d="M60.84,65.58c-3.12.41.68-1.76-1.35-2.17S53,68.7,50.54,69s-.82-5-.82-5c-2.85-.55-6.64,11.66-9.9,13.83s-2.57-5.7-4.34-10.31-8.27-8.13-11.93-9.22S15.82,60,13.11,59.75s0-3.66-.27-6.64c-.13-1.41-.16-3.06-.17-4.41a3.55,3.55,0,0,0-.64.7l.64-.8v-.08c-2,.4-2.52,2.87-2.28,4.5.32,2.09.66,2.93-.22,5S7.66,62.65,8.46,65c1.54,4.47,5.37,1.81,8.45,1.39a5.94,5.94,0,0,1,4,1.3A9.11,9.11,0,0,0,26,69.47c4.53.39,4.22,4.42,5.92,7.91,1,2.12,2.89,6.09,5.67,6.23,3.32.16,4.91-4.63,5.76-7.1,1-2.73.74-6.45,4.2-4.28,3,1.9,4,.78,6-1.77a6.12,6.12,0,0,1,2.83-2.33c1.48-.39,3,.81,4.45-.11a8.37,8.37,0,0,0,1.7-2.35,7.2,7.2,0,0,0,.54-1.12A7.5,7.5,0,0,1,60.84,65.58Z"/><path class="cls-5" d="M41.34,67c.71.23.92,1.54.47,2.93s-1.39,2.32-2.1,2.08-.92-1.54-.47-2.92S40.63,66.8,41.34,67Zm-.07-2.77c-.56.74-.7,1.59-.31,1.88s1.15-.09,1.71-.84.7-1.59.32-1.88S41.83,63.5,41.27,64.26Z"/><path class="cls-5" d="M54.51,56.64c-.35-.88.75-2.13,2.45-2.81s3.37-.51,3.71.36-.75,2.13-2.46,2.81S54.86,57.51,54.51,56.64Zm-2.64,2.29c1.17-.06,2.11-.6,2.08-1.2s-1-1-2.19-1-2.11.6-2.08,1.2S50.69,59,51.87,58.93Z"/><path class="cls-6" d="M31,12S20.89,33,32.09,37.74s16.82-2,15.19-10.24l-1.63,2.05s2.72-6.15.55-10.25S37.7,4.27,39,0c0,0-7,13.66-5.24,16.74l-.18-9.4Z"/><path class="cls-7" d="M33.45,19.73S27,33.05,34.14,36.08s10.66-1.3,9.63-6.5l-1,1.3s1.71-3.9.34-6.49-5.39-9.53-4.58-12.24c0,0-4.48,8.66-3.33,10.61l-.11-6Z"/><path class="cls-2" d="M35.47,27s-3.11,6.45.33,7.91,5.17-.62,4.67-3.14l-.5.63s.83-1.89.16-3.15-2.6-4.62-2.22-5.93c0,0-2.16,4.2-1.61,5.14l0-2.88Z"/><path class="cls-8" d="M36.7,33.31c.11-.07.54.36,1.09,1.13A8.67,8.67,0,0,1,39,37.7a14.6,14.6,0,0,1,.07,3.46c-.08.92-.16,1.51-.16,1.51s-.14.58-.34,1.45A21.39,21.39,0,0,0,38,47.21a10.76,10.76,0,0,0,.27,3.06c.23.82.42,1.41.29,1.48s-.53-.37-1-1.18a8.77,8.77,0,0,1-1-3.34,18.47,18.47,0,0,1,.1-3.42c.11-.9.18-1.49.18-1.49s.14-.58.31-1.42a14.68,14.68,0,0,0,.35-3.08,10.21,10.21,0,0,0-.47-3C36.78,34,36.58,33.4,36.7,33.31Z"/></g></g></g></svg>