<svg xmlns="http://www.w3.org/2000/svg" viewBox="0 0 167.7 132.55"><defs><style>.cls-1{isolation:isolate;}.cls-12,.cls-2{fill:#ffe031;}.cls-13,.cls-3,.cls-5{fill:#3a219e;}.cls-4{fill:#f830cf;}.cls-5{opacity:0.3;}.cls-13,.cls-5,.cls-6{mix-blend-mode:multiply;}.cls-6,.cls-8{opacity:0.6;}.cls-10,.cls-7{fill:#6f4af0;}.cls-9{fill:#fff;}.cls-10,.cls-11{opacity:0.2;}.cls-12{mix-blend-mode:screen;}.cls-13{opacity:0.5;}</style></defs><g class="cls-1"><g id="Layer_2" data-name="Layer 2"><g id="OBJECTS"><path class="cls-2" d="M138.49,128c-.73,2.57-4.06,3.87-7.43,2.91L67.2,112.76c-3.37-1-5.52-3.82-4.79-6.39L91.49,4.09c.73-2.57,4.06-3.87,7.43-2.91l63.85,18.15c3.37,1,5.52,3.81,4.79,6.38Z"/><path class="cls-3" d="M137.45,125.66c-.72,2.54-4,3.83-7.35,2.88L67,110.6c-3.33-.95-5.45-3.78-4.73-6.32L91,3.19C91.72.65,95-.64,98.34.31l63.11,17.94c3.34.95,5.46,3.78,4.74,6.31Z"/><path class="cls-4" d="M134.38,119.85c-.65,2.31-3.58,3.5-6.52,2.66L72.07,106.66c-2.94-.84-4.8-3.39-4.15-5.7L94.06,9c.66-2.31,3.58-3.5,6.53-2.66l55.78,15.85c2.95.84,4.81,3.39,4.15,5.7Z"/><path class="cls-5" d="M134.38,119.85c-.65,2.31-3.58,3.5-6.52,2.66L72.07,106.66c-2.94-.84-4.8-3.39-4.15-5.7L94.06,9c.66-2.31,3.58-3.5,6.53-2.66l55.78,15.85c2.95.84,4.81,3.39,4.15,5.7Z"/><path class="cls-4" d="M133.61,118.43c-.64,2.25-3.48,3.42-6.33,2.61L73.34,105.7c-2.86-.8-4.65-3.29-4-5.54L94.84,10.42c.64-2.25,3.47-3.42,6.32-2.61l54,15.33c2.85.81,4.64,3.3,4,5.55Z"/><g class="cls-6"><path class="cls-5" d="M99,2.66a6.24,6.24,0,1,0,4.29,7.71A6.25,6.25,0,0,0,99,2.66Z"/><path class="cls-5" d="M155.13,31.6a6.24,6.24,0,1,0-4.3-7.71A6.24,6.24,0,0,0,155.13,31.6Z"/><path class="cls-5" d="M72.27,96.6a6.24,6.24,0,1,0,4.3,7.71A6.23,6.23,0,0,0,72.27,96.6Z"/><path class="cls-5" d="M131.84,113.53a6.24,6.24,0,1,0,4.3,7.71A6.24,6.24,0,0,0,131.84,113.53Z"/></g><path class="cls-3" d="M103,8.73A6.43,6.43,0,1,1,98.53.79,6.43,6.43,0,0,1,103,8.73Z"/><path class="cls-3" d="M164.34,26.18a6.44,6.44,0,1,1-4.43-7.94A6.43,6.43,0,0,1,164.34,26.18Z"/><path class="cls-3" d="M75.44,105.54a6.43,6.43,0,1,1-4.43-8A6.44,6.44,0,0,1,75.44,105.54Z"/><path class="cls-3" d="M136.82,123a6.43,6.43,0,1,1-4.43-7.95A6.42,6.42,0,0,1,136.82,123Z"/><path class="cls-2" d="M99.53,7.63a2.46,2.46,0,1,1-1.69-3A2.46,2.46,0,0,1,99.53,7.63Z"/><path class="cls-2" d="M160.19,24.87a2.46,2.46,0,1,1-1.7-3A2.45,2.45,0,0,1,160.19,24.87Z"/><path class="cls-4" d="M98.24,7.26a1.11,1.11,0,1,1-2.14-.61,1.11,1.11,0,0,1,2.14.61Z"/><path class="cls-4" d="M158.89,24.5a1.11,1.11,0,1,1-.76-1.37A1.11,1.11,0,0,1,158.89,24.5Z"/><path class="cls-4" d="M98.24,7.26a1.11,1.11,0,1,1-2.14-.61,1.11,1.11,0,0,1,2.14.61Z"/><path class="cls-4" d="M158.89,24.5a1.11,1.11,0,1,1-.76-1.37A1.11,1.11,0,0,1,158.89,24.5Z"/><path class="cls-2" d="M72.09,104.19a2.46,2.46,0,1,1-1.7-3A2.46,2.46,0,0,1,72.09,104.19Z"/><path class="cls-2" d="M132.74,121.43a2.46,2.46,0,1,1-1.69-3A2.46,2.46,0,0,1,132.74,121.43Z"/><path class="cls-7" d="M132.07,68.69s-11.75,11.36-21.47,8.6S96.87,58.68,96.87,58.68s11.74-11.36,21.46-8.6S132.07,68.69,132.07,68.69Z"/><path class="cls-3" d="M111,22.67a14,14,0,0,1-2.86,0,13.61,13.61,0,0,1,2.45,1.49,21.89,21.89,0,0,1-.28,3.75,21.19,21.19,0,0,1,1.74-3.34,14.11,14.11,0,0,1,2.87,0,13.61,13.61,0,0,1-2.45-1.49,21,21,0,0,1,.27-3.75A21.19,21.19,0,0,1,111,22.67Z"/><path class="cls-3" d="M114.2,35a7.34,7.34,0,0,1-1.43,0,6.84,6.84,0,0,1,1.22.74,10.45,10.45,0,0,1-.14,1.88,11.27,11.27,0,0,1,.87-1.67,7.34,7.34,0,0,1,1.43,0,6.41,6.41,0,0,1-1.22-.75,10.4,10.4,0,0,1,.14-1.87A11.27,11.27,0,0,1,114.2,35Z"/><path class="cls-3" d="M139.69,30.82a14,14,0,0,0,2.46,1.49,14.1,14.1,0,0,0-2.87,0,22.07,22.07,0,0,0-1.74,3.34,21.89,21.89,0,0,0,.28-3.75,13.61,13.61,0,0,0-2.45-1.49,14.1,14.1,0,0,0,2.87,0A22.61,22.61,0,0,0,140,27.06,21.94,21.94,0,0,0,139.69,30.82Z"/><path class="cls-3" d="M149.66,46a9.94,9.94,0,0,0,1.72,1,10,10,0,0,0-2,0,14.69,14.69,0,0,0-1.22,2.33,15.44,15.44,0,0,0,.2-2.62,9.9,9.9,0,0,0-1.71-1,10,10,0,0,0,2,0,15.43,15.43,0,0,0,1.21-2.33A15.52,15.52,0,0,0,149.66,46Z"/><path class="cls-3" d="M94.67,30.32a10,10,0,0,0,1.71,1,10,10,0,0,0-2,0,15.43,15.43,0,0,0-1.21,2.33,15.52,15.52,0,0,0,.2-2.62,9.94,9.94,0,0,0-1.72-1,9.48,9.48,0,0,0,2,0,15,15,0,0,0,1.21-2.33A15.52,15.52,0,0,0,94.67,30.32Z"/><path class="cls-3" d="M80.22,81.16a9.94,9.94,0,0,0,1.72,1,9.48,9.48,0,0,0-2,0,15,15,0,0,0-1.21,2.33,15.52,15.52,0,0,0,.2-2.62,10,10,0,0,0-1.71-1,10,10,0,0,0,2,0,15.43,15.43,0,0,0,1.21-2.33A15.52,15.52,0,0,0,80.22,81.16Z"/><path class="cls-3" d="M135.75,96.94a9.54,9.54,0,0,0,1.71,1,9.39,9.39,0,0,0-2,0,15.1,15.1,0,0,0-1.22,2.33,15.52,15.52,0,0,0,.2-2.62,9.66,9.66,0,0,0-1.71-1,10,10,0,0,0,2,0,15.43,15.43,0,0,0,1.21-2.33A14.62,14.62,0,0,0,135.75,96.94Z"/><path class="cls-3" d="M130.49,39.65a7.26,7.26,0,0,0,1.23.74,6.7,6.7,0,0,0-1.43,0,10,10,0,0,0-.87,1.67,11.54,11.54,0,0,0,.14-1.88,7.26,7.26,0,0,0-1.23-.74,6.7,6.7,0,0,0,1.43,0,10,10,0,0,0,.87-1.67A11.54,11.54,0,0,0,130.49,39.65Z"/><path class="cls-3" d="M118,107.05a13.49,13.49,0,0,1,2.87,0,14.51,14.51,0,0,1-2.46-1.48,21.94,21.94,0,0,1,.28-3.76,21.19,21.19,0,0,1-1.74,3.34,14,14,0,0,1-2.86,0,13.61,13.61,0,0,1,2.45,1.49,21.94,21.94,0,0,1-.28,3.76A21.19,21.19,0,0,1,118,107.05Z"/><path class="cls-3" d="M114.85,94.7a6.7,6.7,0,0,1,1.43,0,7.26,7.26,0,0,1-1.23-.74,11.54,11.54,0,0,1,.14-1.88,10,10,0,0,1-.87,1.67,6.7,6.7,0,0,1-1.43,0,7.26,7.26,0,0,1,1.23.74,11.41,11.41,0,0,1-.14,1.87A9.93,9.93,0,0,1,114.85,94.7Z"/><path class="cls-3" d="M88.63,98.69a13.61,13.61,0,0,0-2.45-1.49,14.1,14.1,0,0,0,2.87,0,22.07,22.07,0,0,0,1.74-3.34,20.93,20.93,0,0,0-.28,3.75A13.61,13.61,0,0,0,93,99.13a14.1,14.1,0,0,0-2.87,0,22,22,0,0,0-1.73,3.35A21.12,21.12,0,0,0,88.63,98.69Z"/><path class="cls-3" d="M97.84,89.86a7.26,7.26,0,0,0-1.23-.74,7.34,7.34,0,0,0,1.43,0,10.39,10.39,0,0,0,.87-1.67,11.41,11.41,0,0,0-.14,1.87,7.26,7.26,0,0,0,1.23.74,6.7,6.7,0,0,0-1.43,0,10,10,0,0,0-.87,1.67A11.45,11.45,0,0,0,97.84,89.86Z"/><path class="cls-3" d="M88.4,75.72A7.26,7.26,0,0,0,87.17,75a6.79,6.79,0,0,0,1.44,0,10.68,10.68,0,0,0,.86-1.67,10.59,10.59,0,0,0-.13,1.88,6.84,6.84,0,0,0,1.22.74,6.7,6.7,0,0,0-1.43,0,10.74,10.74,0,0,0-.87,1.66A10.4,10.4,0,0,0,88.4,75.72Z"/><path class="cls-3" d="M130.67,87.74a6.41,6.41,0,0,0-1.22-.75,6.63,6.63,0,0,0,1.43,0,11.27,11.27,0,0,0,.87-1.67,10.45,10.45,0,0,0-.14,1.88,6.84,6.84,0,0,0,1.22.74,6.7,6.7,0,0,0-1.43,0,10.74,10.74,0,0,0-.87,1.66A10.4,10.4,0,0,0,130.67,87.74Z"/><path class="cls-3" d="M140.76,52.26a7.26,7.26,0,0,0-1.23-.74,7.34,7.34,0,0,0,1.43,0,11.27,11.27,0,0,0,.87-1.67,10.4,10.4,0,0,0-.14,1.87,6.65,6.65,0,0,0,1.23.74,7.45,7.45,0,0,0-1.43,0,10.39,10.39,0,0,0-.87,1.67A11.45,11.45,0,0,0,140.76,52.26Z"/><path class="cls-3" d="M141.12,65.47a7.26,7.26,0,0,0-1.23-.74,7.43,7.43,0,0,0,1.44,0,11.13,11.13,0,0,0,.86-1.67,11.41,11.41,0,0,0-.14,1.87,6.77,6.77,0,0,0,1.23.75,7.34,7.34,0,0,0-1.43,0,11.27,11.27,0,0,0-.87,1.67A10.45,10.45,0,0,0,141.12,65.47Z"/><path class="cls-3" d="M88.49,50.52a6.77,6.77,0,0,0-1.23-.75,7.43,7.43,0,0,0,1.44,0,11.13,11.13,0,0,0,.86-1.67A11.41,11.41,0,0,0,89.42,50a6.77,6.77,0,0,0,1.23.75,7.34,7.34,0,0,0-1.43,0,10.39,10.39,0,0,0-.87,1.67A11.41,11.41,0,0,0,88.49,50.52Z"/><path class="cls-3" d="M85,62.91a7.26,7.26,0,0,0-1.23-.74,6.7,6.7,0,0,0,1.43,0A11.27,11.27,0,0,0,86,60.51a10.52,10.52,0,0,0-.14,1.88,7.26,7.26,0,0,0,1.23.74,6.79,6.79,0,0,0-1.44,0,10.61,10.61,0,0,0-.86,1.66A11.41,11.41,0,0,0,85,62.91Z"/><path class="cls-3" d="M137.7,77.9a6.77,6.77,0,0,0-1.23-.75,6.63,6.63,0,0,0,1.43,0,10.39,10.39,0,0,0,.87-1.67,11.45,11.45,0,0,0-.14,1.88,7.26,7.26,0,0,0,1.23.74,7.34,7.34,0,0,0-1.43,0,10.39,10.39,0,0,0-.87,1.67A10.4,10.4,0,0,0,137.7,77.9Z"/><path class="cls-3" d="M97.53,40a6.61,6.61,0,0,0-1.22-.74,6.69,6.69,0,0,0,1.43,0,11.27,11.27,0,0,0,.87-1.67,10.45,10.45,0,0,0-.14,1.88,6.84,6.84,0,0,0,1.22.74,7.34,7.34,0,0,0-1.43,0,10.39,10.39,0,0,0-.87,1.67A10.4,10.4,0,0,0,97.53,40Z"/><path class="cls-7" d="M128.2,16.48l-5.51,31-6.26-1.78ZM100.9,111.9l11.6-29.25-6.26-1.78Z"/><g class="cls-8"><polygon class="cls-3" points="127.59 18.01 119.47 46.55 122.69 47.46 128.2 16.48 127.59 18.01"/><polygon class="cls-3" points="112.5 82.65 109.46 81.78 100.9 111.88 112.5 82.65"/></g><path class="cls-7" d="M97.94,17.37l13.52,28.42L105.33,48Zm33.21,93.53-7.54-30.55-6.13,2.19Z"/><g class="cls-8"><polygon class="cls-3" points="98.33 18.97 108.31 46.92 111.46 45.79 97.94 17.37 98.33 18.97"/><polygon class="cls-3" points="123.61 80.35 120.63 81.42 131.15 110.89 123.61 80.35"/></g><polygon class="cls-7" points="82.41 55.09 94.71 59.97 95.45 57.34 82.41 55.09"/><g class="cls-8"><polygon class="cls-3" points="83.06 55.34 95.07 58.69 95.45 57.34 82.41 55.09 83.06 55.34"/></g><polygon class="cls-7" points="145.43 72.94 133.13 68.05 132.4 70.69 145.43 72.94"/><g class="cls-8"><polygon class="cls-3" points="144.78 72.68 132.77 69.33 132.4 70.69 145.43 72.94 144.78 72.68"/></g><polygon class="cls-7" points="81.86 70.68 95.02 69.32 94.46 66.65 81.86 70.68"/><g class="cls-8"><polygon class="cls-3" points="82.55 70.61 94.75 68.02 94.46 66.65 81.86 70.68 82.55 70.61"/></g><polygon class="cls-7" points="145.98 57.35 132.82 58.7 133.39 61.38 145.98 57.35"/><g class="cls-8"><polygon class="cls-3" points="145.29 57.42 133.09 60.01 133.39 61.38 145.98 57.35 145.29 57.42"/></g><polygon class="cls-7" points="89.36 42.35 98.34 52.07 100.14 50.01 89.36 42.35"/><g class="cls-8"><polygon class="cls-3" points="89.83 42.86 99.22 51.07 100.14 50.01 89.36 42.35 89.83 42.86"/></g><polygon class="cls-7" points="138.48 85.67 129.5 75.95 127.7 78.01 138.48 85.67"/><g class="cls-8"><polygon class="cls-3" points="138.01 85.16 128.63 76.95 127.7 78.01 138.48 85.67 138.01 85.16"/></g><path class="cls-7" d="M98.21,73l4.06,5.08L75.83,95.17Zm28.51-23,4.06,5.08,22.49-22Z"/><g class="cls-8"><polygon class="cls-3" points="77 94.02 100.18 75.5 102.27 78.11 75.83 95.17 77 94.02"/><polygon class="cls-3" points="130.78 55.11 128.81 52.64 153.26 33.11 130.78 55.11"/></g><path class="cls-9" d="M131.78,68.6s-11,9.1-20.52,6.38-14.1-16.22-14.1-16.22,11-9.09,20.52-6.38S131.78,68.6,131.78,68.6Z"/><path class="cls-10" d="M123.85,56a34,34,0,0,1,5.48,9.71s-10.18,8.45-19.05,5.93c-6.88-2-11-9.93-12.44-13.42-.44.33-.68.53-.68.53s4.54,13.5,14.1,16.22,20.52-6.38,20.52-6.38S129.2,61,123.85,56Z"/><path class="cls-3" d="M121.19,65a6.93,6.93,0,1,1-4.77-8.55A6.93,6.93,0,0,1,121.19,65Z"/><path class="cls-2" d="M119.8,64.62A5.48,5.48,0,1,1,116,57.85,5.48,5.48,0,0,1,119.8,64.62Z"/><path class="cls-3" d="M118.41,64.22a4,4,0,1,1-2.78-5A4,4,0,0,1,118.41,64.22Z"/><path class="cls-9" d="M120.22,61.23a2,2,0,1,1-3.76-1.06,2,2,0,0,1,3.76,1.06Z"/><path class="cls-9" d="M112.27,65.53a1.18,1.18,0,0,1-1.48.82,1.2,1.2,0,1,1,1.48-.82Z"/><g class="cls-11"><path class="cls-7" d="M109.07,54.62c.28.62-.47,1.56-1.67,2.1s-2.41.48-2.68-.14.47-1.56,1.67-2.1S108.79,54,109.07,54.62Z"/><path class="cls-7" d="M112.62,53.68c0,.44-.61.86-1.46.94s-1.56-.21-1.6-.64.61-.86,1.45-.94S112.58,53.25,112.62,53.68Z"/></g><path class="cls-9" d="M120.48,72.38c-.19-.57.56-1.34,1.66-1.71s2.17-.21,2.36.36-.56,1.33-1.66,1.7S120.67,73,120.48,72.38Z"/><path class="cls-9" d="M117.27,72.89c0-.39.62-.7,1.37-.7s1.36.32,1.36.71-.62.7-1.37.69S117.27,73.27,117.27,72.89Z"/><path class="cls-4" d="M70.79,103.82a1.11,1.11,0,1,1-.76-1.37A1.1,1.1,0,0,1,70.79,103.82Z"/><path class="cls-4" d="M131.44,121.07a1.11,1.11,0,0,1-2.14-.61,1.11,1.11,0,1,1,2.14.61Z"/><path class="cls-5" d="M164.82,20.21a7.62,7.62,0,0,0-3.41-2L130,9.28,98.12,121.51l32.9,9.35c3.37,1,6.7-.35,7.43-2.92L167.52,25.66C168.09,23.68,166.93,21.53,164.82,20.21Z"/><path class="cls-4" d="M110.92,103.48c.88,2.52-1.09,5.5-4.4,6.66L43.87,132.08c-3.31,1.16-6.71.06-7.59-2.46L1.13,29.27c-.89-2.52,1.08-5.5,4.4-6.66L68.17.66C71.49-.5,74.89.6,75.77,3.12Z"/><path class="cls-2" d="M108.73,102.17c.87,2.49-1.08,5.44-4.35,6.58L42.46,130.44c-3.27,1.15-6.64.06-7.51-2.43L.21,28.82c-.87-2.49,1.07-5.44,4.35-6.59L66.48.54C69.75-.6,73.11.49,74,3Z"/><path class="cls-12" d="M36.35,129,1.6,29.75C.73,27.26,2.68,24.32,6,23.17L67.87,1.48a7.18,7.18,0,0,1,5.18.05,6.46,6.46,0,0,0-6.57-1L4.56,22.23C1.28,23.38-.66,26.33.21,28.82L35,128a4.16,4.16,0,0,0,2.33,2.38A3.81,3.81,0,0,1,36.35,129Z"/><path class="cls-3" d="M102.87,99.19c.8,2.26-.9,4.92-3.8,5.93L44.34,124.29c-2.89,1-5.88,0-6.67-2.26L6.06,31.8c-.79-2.27.91-4.93,3.8-5.94L64.59,6.69c2.9-1,5.89,0,6.68,2.27Z"/><path class="cls-13" d="M102.87,99.19c.8,2.26-.9,4.92-3.8,5.93L44.34,124.29c-2.89,1-5.88,0-6.67-2.26L6.06,31.8c-.79-2.27.91-4.93,3.8-5.94L64.59,6.69c2.9-1,5.89,0,6.68,2.27Z"/><path class="cls-3" d="M101.42,98.47c.77,2.21-.87,4.8-3.66,5.78L44.82,122.79c-2.79,1-5.69,0-6.46-2.23L7.52,32.51c-.78-2.21.86-4.79,3.66-5.77L64.11,8.2c2.8-1,5.7,0,6.47,2.22Z"/><g class="cls-6"><path class="cls-3" d="M6.43,23.79a6.24,6.24,0,1,0,8,3.83A6.24,6.24,0,0,0,6.43,23.79Z"/><path class="cls-3" d="M69,15.1a6.24,6.24,0,1,0-8-3.83A6.24,6.24,0,0,0,69,15.1Z"/><path class="cls-3" d="M38.71,116a6.24,6.24,0,1,0,8,3.82A6.24,6.24,0,0,0,38.71,116Z"/><path class="cls-3" d="M97.16,95.49a6.24,6.24,0,1,0,8,3.83A6.23,6.23,0,0,0,97.16,95.49Z"/></g><path class="cls-2" d="M13.18,26.46A6.43,6.43,0,1,1,5,22.52,6.44,6.44,0,0,1,13.18,26.46Z"/><path class="cls-2" d="M73.41,5.36a6.44,6.44,0,1,1-8.2-3.94A6.44,6.44,0,0,1,73.41,5.36Z"/><path class="cls-2" d="M46.45,121.44a6.43,6.43,0,1,1-8.2-3.94A6.44,6.44,0,0,1,46.45,121.44Z"/><path class="cls-2" d="M106.67,100.35a6.43,6.43,0,1,1-8.19-3.95A6.42,6.42,0,0,1,106.67,100.35Z"/><path class="cls-3" d="M9.74,27.53A2.46,2.46,0,1,1,6.61,26,2.45,2.45,0,0,1,9.74,27.53Z"/><path class="cls-3" d="M69.26,6.68a2.46,2.46,0,1,1-3.14-1.5A2.46,2.46,0,0,1,69.26,6.68Z"/><path class="cls-4" d="M8.48,28a1.12,1.12,0,1,1-1.42-.68A1.12,1.12,0,0,1,8.48,28Z"/><path class="cls-4" d="M68,7.13a1.12,1.12,0,1,1-2.11.73A1.12,1.12,0,0,1,68,7.13Z"/><path class="cls-4" d="M8.48,28a1.12,1.12,0,1,1-1.42-.68A1.12,1.12,0,0,1,8.48,28Z"/><path class="cls-4" d="M68,7.13a1.12,1.12,0,1,1-2.11.73A1.12,1.12,0,0,1,68,7.13Z"/><path class="cls-3" d="M42.93,122.27a2.46,2.46,0,1,1-3.13-1.51A2.46,2.46,0,0,1,42.93,122.27Z"/><path class="cls-3" d="M102.44,101.43a2.46,2.46,0,1,1-3.13-1.51A2.45,2.45,0,0,1,102.44,101.43Z"/><path class="cls-7" d="M71.51,58.7s-3.06,16-12.59,19.4-22-7.31-22-7.31S40,54.74,49.56,51.4,71.51,58.7,71.51,58.7Z"/><path class="cls-2" d="M27.79,33.21a14.25,14.25,0,0,1-2.36,1.63,14,14,0,0,1,2.86-.2,21.35,21.35,0,0,1,1.94,3.23,21,21,0,0,1-.5-3.73,13.66,13.66,0,0,1,2.36-1.63,14,14,0,0,1-2.86.2,21.35,21.35,0,0,1-1.94-3.23A21.77,21.77,0,0,1,27.79,33.21Z"/><path class="cls-2" d="M37.51,41.47a7,7,0,0,1-1.18.81,7.37,7.37,0,0,1,1.43-.1,10.82,10.82,0,0,1,1,1.62,11.47,11.47,0,0,1-.25-1.87,7,7,0,0,1,1.18-.81,7.37,7.37,0,0,1-1.43.1,10.82,10.82,0,0,1-1-1.62A11.47,11.47,0,0,1,37.51,41.47Z"/><path class="cls-2" d="M55.93,23.35a14.1,14.1,0,0,0,2.87-.2,14.25,14.25,0,0,0-2.36,1.63,20.82,20.82,0,0,0,.5,3.73A21.86,21.86,0,0,0,55,25.28a14,14,0,0,0-2.86.2,13.66,13.66,0,0,0,2.36-1.63,21.91,21.91,0,0,0-.5-3.73A22.08,22.08,0,0,0,55.93,23.35Z"/><path class="cls-2" d="M72.8,30a9.72,9.72,0,0,0,2-.14A9.7,9.7,0,0,0,73.15,31a15,15,0,0,0,.35,2.6,15,15,0,0,0-1.35-2.25,9.72,9.72,0,0,0-2,.14,9.7,9.7,0,0,0,1.65-1.14,15,15,0,0,0-.35-2.6A15,15,0,0,0,72.8,30Z"/><path class="cls-2" d="M18.84,48.88a9.72,9.72,0,0,0,2-.14,9.7,9.7,0,0,0-1.65,1.14,15,15,0,0,0,.36,2.6,15.89,15.89,0,0,0-1.35-2.25,9.72,9.72,0,0,0-2,.14,9.7,9.7,0,0,0,1.65-1.14,15,15,0,0,0-.36-2.6A15.89,15.89,0,0,0,18.84,48.88Z"/><path class="cls-2" d="M36.31,98.76a10.38,10.38,0,0,0,2-.15,9.7,9.7,0,0,0-1.65,1.14,15.08,15.08,0,0,0,.36,2.61,16,16,0,0,0-1.35-2.26,9.72,9.72,0,0,0-2,.14,10.11,10.11,0,0,0,1.65-1.14A15.1,15.1,0,0,0,35,96.5,16.53,16.53,0,0,0,36.31,98.76Z"/><path class="cls-2" d="M90.79,79.67a9.72,9.72,0,0,0,2-.14,9.7,9.7,0,0,0-1.65,1.14,15.15,15.15,0,0,0,.35,2.61A15.05,15.05,0,0,0,90.14,81a9.61,9.61,0,0,0-2,.14A9.67,9.67,0,0,0,89.79,80a15,15,0,0,0-.35-2.6A15,15,0,0,0,90.79,79.67Z"/><path class="cls-2" d="M53.5,35.87a7.43,7.43,0,0,0,1.43-.1,6.59,6.59,0,0,0-1.18.81A10.47,10.47,0,0,0,54,38.45a11,11,0,0,0-1-1.62,7.43,7.43,0,0,0-1.43.1,6.59,6.59,0,0,0,1.18-.81,10.47,10.47,0,0,0-.25-1.87A11,11,0,0,0,53.5,35.87Z"/><path class="cls-2" d="M82.13,98.14a13.66,13.66,0,0,1,2.36-1.63,14,14,0,0,1-2.86.2,21.35,21.35,0,0,1-1.94-3.23,21.7,21.7,0,0,1,.51,3.73,13.66,13.66,0,0,1-2.36,1.63,14,14,0,0,1,2.86-.2,22.08,22.08,0,0,1,1.93,3.23A21.91,21.91,0,0,1,82.13,98.14Z"/><path class="cls-2" d="M72.42,89.88a6.67,6.67,0,0,1,1.17-.82,6.61,6.61,0,0,1-1.42.1,10.41,10.41,0,0,1-1-1.61,10.48,10.48,0,0,1,.25,1.86,7.09,7.09,0,0,1-1.18.82,7.37,7.37,0,0,1,1.43-.1,10.41,10.41,0,0,1,1,1.61A10.35,10.35,0,0,1,72.42,89.88Z"/><path class="cls-2" d="M53.29,108.24a14,14,0,0,0-2.86.2,14.06,14.06,0,0,0,2.36-1.63,21.7,21.7,0,0,0-.51-3.73,21.35,21.35,0,0,0,1.94,3.23,14,14,0,0,0,2.86-.2,13.66,13.66,0,0,0-2.36,1.63,21.77,21.77,0,0,0,.5,3.73A22.08,22.08,0,0,0,53.29,108.24Z"/><path class="cls-2" d="M55.73,95.73a6.73,6.73,0,0,0-1.43.09A7,7,0,0,0,55.48,95a11.26,11.26,0,0,0-.26-1.86,10.9,10.9,0,0,0,1,1.61,6.66,6.66,0,0,0,1.43-.1,7.09,7.09,0,0,0-1.18.82,10.48,10.48,0,0,0,.25,1.86A11.13,11.13,0,0,0,55.73,95.73Z"/><path class="cls-2" d="M39.87,89.6a7.37,7.37,0,0,0-1.43.1,7,7,0,0,0,1.18-.81A11.39,11.39,0,0,0,39.36,87a11,11,0,0,0,1,1.62,7.37,7.37,0,0,0,1.43-.1,7,7,0,0,0-1.18.81,10.35,10.35,0,0,0,.25,1.86A11.69,11.69,0,0,0,39.87,89.6Z"/><path class="cls-2" d="M81.34,75.07a7.37,7.37,0,0,0-1.43.1,6.59,6.59,0,0,0,1.18-.81,10.35,10.35,0,0,0-.25-1.86,10.9,10.9,0,0,0,1,1.61,6.71,6.71,0,0,0,1.43-.1,7.16,7.16,0,0,0-1.18.81,10.47,10.47,0,0,0,.25,1.87A11,11,0,0,0,81.34,75.07Z"/><path class="cls-2" d="M69.15,40.27a6.66,6.66,0,0,0-1.43.1,6.7,6.7,0,0,0,1.18-.82,10.48,10.48,0,0,0-.25-1.86,10.41,10.41,0,0,0,1,1.61A6.61,6.61,0,0,0,71,39.2a6.67,6.67,0,0,0-1.17.82,10.35,10.35,0,0,0,.25,1.86A10.41,10.41,0,0,0,69.15,40.27Z"/><path class="cls-2" d="M77.06,50.86a6.66,6.66,0,0,0-1.43.1,7.09,7.09,0,0,0,1.18-.82,11.49,11.49,0,0,0-.25-1.86,11.13,11.13,0,0,0,1,1.61,6.66,6.66,0,0,0,1.43-.1,7.09,7.09,0,0,0-1.18.82A11.34,11.34,0,0,0,78,52.47,10.29,10.29,0,0,0,77.06,50.86Z"/><path class="cls-2" d="M25.42,69a6.66,6.66,0,0,0-1.43.1,7.09,7.09,0,0,0,1.18-.82,10.35,10.35,0,0,0-.25-1.86,11.13,11.13,0,0,0,1,1.61,6.66,6.66,0,0,0,1.43-.1,7.09,7.09,0,0,0-1.18.82,11.49,11.49,0,0,0,.25,1.86A10.29,10.29,0,0,0,25.42,69Z"/><path class="cls-2" d="M29.68,81.11a6.66,6.66,0,0,0-1.43.1,7.09,7.09,0,0,0,1.18-.82,11.34,11.34,0,0,0-.25-1.86,11.13,11.13,0,0,0,1,1.61,6.66,6.66,0,0,0,1.43-.1,7.09,7.09,0,0,0-1.18.82,11.42,11.42,0,0,0,.26,1.86A10.41,10.41,0,0,0,29.68,81.11Z"/><path class="cls-2" d="M81.42,63a7.37,7.37,0,0,0-1.43.1,7,7,0,0,0,1.18-.81,11.47,11.47,0,0,0-.25-1.87,10.82,10.82,0,0,0,1,1.62,7.37,7.37,0,0,0,1.43-.1,7.61,7.61,0,0,0-1.18.81,11.47,11.47,0,0,0,.25,1.87A10.82,10.82,0,0,0,81.42,63Z"/><path class="cls-2" d="M26.74,55.12a7.37,7.37,0,0,0-1.43.1,7,7,0,0,0,1.18-.81,10.35,10.35,0,0,0-.25-1.86,10.9,10.9,0,0,0,1,1.61,7.32,7.32,0,0,0,1.42-.1,7.13,7.13,0,0,0-1.17.81,10.47,10.47,0,0,0,.25,1.87A11,11,0,0,0,26.74,55.12Z"/><path class="cls-7" d="M38.28,18.25l13.34,28.5L45.48,48.9ZM70.92,112l-7.36-30.6-6.14,2.15Z"/><g class="cls-8"><polygon class="cls-3" points="38.66 19.85 48.47 47.85 51.62 46.75 38.28 18.25 38.66 19.85"/><polygon class="cls-3" points="63.56 81.38 60.57 82.43 70.92 111.96 63.56 81.38"/></g><path class="cls-7" d="M14.06,36.41,41.47,51.86l-3.75,5.32Zm81,57.32L71.31,73.11l-3.75,5.31Z"/><g class="cls-8"><polygon class="cls-3" points="15.29 37.49 39.55 54.59 41.47 51.86 14.06 36.41 15.29 37.49"/><polygon class="cls-3" points="71.31 73.11 69.49 75.69 95.07 93.72 71.31 73.11"/></g><polygon class="cls-7" points="23.09 76.18 35.95 73.09 35.04 70.52 23.09 76.18"/><g class="cls-8"><polygon class="cls-3" points="23.76 76.02 35.51 71.84 35.04 70.52 23.09 76.18 23.76 76.02"/></g><polygon class="cls-7" points="84.88 54.48 72.01 57.56 72.93 60.14 84.88 54.48"/><g class="cls-8"><polygon class="cls-3" points="84.21 54.64 72.46 58.82 72.93 60.14 84.88 54.48 84.21 54.64"/></g><polygon class="cls-7" points="31.62 89.25 41.59 80.56 39.59 78.69 31.62 89.25"/><g class="cls-8"><polygon class="cls-3" points="32.14 88.79 40.62 79.65 39.59 78.69 31.62 89.25 32.14 88.79"/></g><polygon class="cls-7" points="76.35 41.41 66.37 50.1 68.38 51.96 76.35 41.41"/><g class="cls-8"><polygon class="cls-3" points="75.83 41.87 67.35 51.01 68.38 51.96 76.35 41.41 75.83 41.87"/></g><polygon class="cls-7" points="21.43 61.77 34.37 64.55 34.66 61.83 21.43 61.77"/><g class="cls-8"><polygon class="cls-3" points="22.11 61.92 34.51 63.22 34.66 61.83 21.43 61.77 22.11 61.92"/></g><polygon class="cls-7" points="86.54 68.88 73.6 66.11 73.31 68.83 86.54 68.88"/><g class="cls-8"><polygon class="cls-3" points="85.86 68.74 73.46 67.44 73.31 68.83 86.54 68.88 85.86 68.74"/></g><path class="cls-7" d="M46.33,81.75l6.25,1.82L40.8,112.75ZM56.39,46.53l6.25,1.81,5.7-30.95Z"/><g class="cls-8"><polygon class="cls-3" points="41.09 111.13 49.37 82.63 52.58 83.57 40.8 112.75 41.09 111.13"/><polygon class="cls-3" points="62.64 48.34 59.6 47.46 68.34 17.41 62.64 48.34"/></g><path class="cls-9" d="M71.22,58.8s-3.72,13.75-13.1,17-20.86-5.14-20.86-5.14S41,57,50.36,53.66,71.22,58.8,71.22,58.8Z"/><path class="cls-10" d="M57.49,53.07a34.09,34.09,0,0,1,10.08,4.78S64.11,70.62,55.4,73.67c-6.75,2.36-14.67-1.81-17.89-3.8-.17.52-.25.82-.25.82s11.48,8.43,20.86,5.14,13.1-17,13.1-17S64.71,54,57.49,53.07Z"/><path class="cls-3" d="M60.5,62a6.92,6.92,0,1,1-8.83-4.24A6.94,6.94,0,0,1,60.5,62Z"/><path class="cls-4" d="M59.14,62.44a5.48,5.48,0,1,1-7-3.36A5.49,5.49,0,0,1,59.14,62.44Z"/><path class="cls-3" d="M57.77,62.92a4,4,0,1,1-5.14-2.48A4,4,0,0,1,57.77,62.92Z"/><path class="cls-9" d="M57.53,59.43A2,2,0,1,1,55,58.23,2,2,0,0,1,57.53,59.43Z"/><path class="cls-9" d="M53.51,67.52A1.2,1.2,0,1,1,52,66.79,1.2,1.2,0,0,1,53.51,67.52Z"/><g class="cls-11"><path class="cls-7" d="M44.61,60.44c.58.35.51,1.55-.16,2.68s-1.69,1.78-2.27,1.43-.51-1.54.16-2.68S44,60.1,44.61,60.44Z"/><path class="cls-7" d="M47,57.64c.28.33,0,1-.65,1.6s-1.4.73-1.69.4,0-1,.66-1.6S46.68,57.3,47,57.64Z"/></g><path class="cls-9" d="M64.16,68.39c-.48-.36-.31-1.41.38-2.35s1.65-1.42,2.13-1.07.32,1.41-.37,2.35S64.65,68.74,64.16,68.39Z"/><path class="cls-9" d="M61.84,70.65c-.23-.31.1-.92.71-1.35s1.3-.52,1.52-.21-.1.93-.72,1.36S62.06,71,61.84,70.65Z"/><path class="cls-4" d="M41.66,122.72a1.11,1.11,0,1,1-1.42-.69A1.12,1.12,0,0,1,41.66,122.72Z"/><path class="cls-4" d="M101.17,101.87a1.11,1.11,0,1,1-1.42-.68A1.11,1.11,0,0,1,101.17,101.87Z"/><path class="cls-5" d="M70.42.22a7.61,7.61,0,0,0-3.94.32L35.67,11.33,74.24,121.45l32.28-11.31c3.31-1.16,5.28-4.14,4.4-6.66L75.77,3.12C75.09,1.18,72.9.08,70.42.22Z"/></g></g></g></svg>