<svg xmlns="http://www.w3.org/2000/svg" viewBox="0 0 120.7 133.38"><defs><style>.cls-1{isolation:isolate;}.cls-2{fill:#4726d2;}.cls-3{fill:#2821cb;}.cls-10,.cls-3{opacity:0.3;mix-blend-mode:multiply;}.cls-4,.cls-6{fill:#ffe031;}.cls-5{fill:#7839f0;}.cls-6{opacity:0.4;}.cls-6,.cls-7{mix-blend-mode:screen;}.cls-8{fill:#fff;}.cls-9{fill:#f830cf;}.cls-10{fill:#3a219e;}.cls-11{fill:#6f4af0;}</style></defs><g class="cls-1"><g id="Layer_2" data-name="Layer 2"><g id="OBJECTS"><polygon class="cls-2" points="56.68 56.49 66.69 30.67 58.36 17.68 46.03 26.7 41.83 15.64 26.01 0 19.67 22.44 13.85 22.98 12.9 28 17.94 34.87 10.53 34.1 10.5 44.06 22.25 53.73 17.94 53.72 17.53 57.29 27.2 63.03 35.97 63.83 46.16 62.21 56.68 56.49"/><polygon class="cls-3" points="47.89 61.27 46.16 62.21 40.29 63.14 45.96 26.51 46.03 26.7 58.36 17.68 66.69 30.67 55.76 32.7 47.89 61.27"/><path class="cls-3" d="M55.71,32.44l-9-6.21,11.67-8.54-.43,3.9C56.94,25.06,56.56,28.93,55.71,32.44Z"/><path class="cls-3" d="M55.71,32.44l-2.45-8.16,5.09-6.59-.43,3.9C56.94,25.06,56.56,28.93,55.71,32.44Z"/><polygon class="cls-3" points="30.76 20.52 40.64 63.09 36.33 63.77 19.67 22.44 26.01 0 41.38 15.2 30.76 20.52"/><polygon class="cls-3" points="30.76 20.52 19.67 22.44 26.01 0 30.76 20.52"/><polygon class="cls-3" points="30.76 20.52 23.2 15.33 26.01 0 30.76 20.52"/><polygon class="cls-3" points="27.2 63.03 17.53 57.29 17.94 53.72 20.71 56.3 29.91 63.28 27.2 63.03"/><polygon class="cls-3" points="35.97 63.83 17.94 34.87 12.9 28 13.85 22.98 19.67 22.44 17.7 26.31 35.97 63.83"/><polygon class="cls-3" points="14.71 39.92 34.94 63.74 34.31 63.68 22.25 53.73 10.5 44.06 10.53 34.1 14.71 39.92"/><polygon class="cls-3" points="12.9 28.01 12.9 28 13.85 22.98 17.7 26.31 12.9 28.01"/><polygon class="cls-3" points="12.9 28.01 14.46 26.23 13.85 22.98 17.7 26.31 12.9 28.01"/><polygon class="cls-3" points="10.5 43.95 10.53 34.1 17.94 34.87 15.47 41.12 10.5 43.95"/><polygon class="cls-3" points="13.11 40.75 10.53 34.1 17.94 34.87 15.47 41.12 13.11 40.75"/><polygon class="cls-3" points="17.54 57.19 17.94 53.72 22.25 53.73 20.71 56.3 17.54 57.19"/><polygon class="cls-3" points="20.18 54.92 17.94 53.72 22.25 53.73 20.71 56.3 20.18 54.92"/><polygon class="cls-4" points="65.11 30.16 58.5 30.04 58.7 19.51 56.19 32.09 65.11 30.16"/><polygon class="cls-4" points="41.18 16.03 31.46 20.7 40.32 60.69 33.11 21.83 41.18 16.03"/><path class="cls-5" d="M19.75,23.32l-1.62,2.91s-3.87-3-3.72-2.63,2.93,3.22,2.93,3.22l-3.7,1.32,4.07-.31L34.35,60.9,18.58,27.22Z"/><polygon class="cls-4" points="30.11 62.76 21.33 56.05 22.25 53.73 20.71 56.3 17.94 53.72 20.08 56.55 18.05 57.2 20.88 57.21 30.11 62.76"/><polygon class="cls-6" points="65.22 32.16 56.37 33.8 49.16 59.5 65.22 32.16"/><path class="cls-6" d="M41.69,16.83l3.46,9.94L40.51,58.32S41.54,16.5,41.69,16.83Z"/><polygon class="cls-6" points="27.12 2.13 31.4 18.92 39.66 14.6 32.59 15.65 27.12 2.13"/><path class="cls-6" d="M21.37,23.38,36.7,62.44l2.46-.28S21.26,22.77,21.31,23"/><polygon class="cls-6" points="18.22 36.35 33.34 60.82 16.27 40.84 20.96 44.36 18.22 36.35"/><polygon class="cls-5" points="47.07 26.96 55.11 32.55 47.02 61.51 52.6 33.56 47.07 26.96"/><polygon class="cls-5" points="26.47 1.53 30.23 19.85 20.66 21.45 28.41 18.76 26.47 1.53"/><polygon class="cls-5" points="16.93 35.2 15.04 38.1 11.12 34.39 15.43 40.19 16.93 35.2"/><polygon class="cls-5" points="32.44 62.69 22.38 54.42 22 55.75 32.44 62.69"/><g class="cls-7"><polygon class="cls-5" points="47.07 26.96 55.11 32.55 47.02 61.51 52.6 33.56 47.07 26.96"/><polygon class="cls-5" points="26.47 1.53 30.23 19.85 20.66 21.45 28.41 18.76 26.47 1.53"/><polygon class="cls-5" points="16.93 35.2 15.04 38.1 11.12 34.39 15.43 40.19 16.93 35.2"/><polygon class="cls-5" points="32.44 62.69 22.38 54.42 22 55.75 32.44 62.69"/></g><polygon class="cls-3" points="46.45 28.91 41.31 62.17 45.32 61.29 46.45 28.91"/><path class="cls-3" d="M22.73,23l7.49-1S39,58.42,38.8,58.06s-10-33.81-10-33.81Z"/><polygon class="cls-3" points="31.4 60.24 15.35 41.95 11.74 44.24 15.06 44.02 31.4 60.24"/><path class="cls-4" d="M29.81,22.62a10.32,10.32,0,0,1-2.62.27c-1.56.09-3.65.14-5.69.4l-.8.12-1.37.17-.34,0,.06-.33.12-.66c.06-.36.12-.72.19-1.08a27,27,0,0,1,.52-2.67c.18-.77.34-1.41.44-1.86s.2-.7.2-.7.32-1,.84-2.48L23.3,8.45c.71-1.94,1.35-3.91,1.81-5.39A9.8,9.8,0,0,1,25.94.59a9.93,9.93,0,0,1-.26,2.61c-.29,1.54-.78,3.58-1.37,5.58s-1.19,4-1.64,5.48S22,16.74,22,16.74l-.22.68c-.13.43-.3,1-.52,1.79s-.44,1.62-.64,2.56l-.07.31,0,.07,0,.09,0,0h.21l.76-.05a45.14,45.14,0,0,1,5.79.07A9.61,9.61,0,0,1,29.81,22.62Z"/><path class="cls-5" d="M34.85,53.72c-.19.09-2.3-3.76-4.37-7.63l-4.26-7.68s-1.87-4-3.75-7.92c-1.67-4.07-3.28-8.13-3.09-8.21s2.15,3.83,4.05,7.75l4.13,7.68,3.86,7.9C33.26,49.61,35,53.64,34.85,53.72Z"/><path class="cls-5" d="M15.85,41.11c.05.12-.37.38-.91.86s-1.24,1.17-2.09,1.81a6.31,6.31,0,0,1-.66.44,10.13,10.13,0,0,1-1.16.5l-.59.22c-.08,0-.23.12-.26.06v-.29c0-.39,0-.76,0-1.09,0-.92,0-1.54,0-1.54s.47-7.85.88-7.86.62,7.93.62,7.93,0,.12,0,.34,0,.24,0,.39,0,.18,0,.2-.08.14,0,.12a.27.27,0,0,0,.14,0,3.52,3.52,0,0,0,.62-.3c.82-.45,1.64-1.05,2.33-1.39S15.82,41,15.85,41.11Z"/><path class="cls-5" d="M21.4,52.38c-.18.13-1.39-1.05-2.77-2s-2.83-1.86-2.83-1.86l-2.7-2.1c-1.35-1.07-2.59-2.28-2.46-2.44s1.58.73,3.06,1.57,3,1.74,3,1.74a34.7,34.7,0,0,1,2.65,2.27C20.58,50.78,21.56,52.27,21.4,52.38Z"/><path class="cls-4" d="M31.66,57.59c-.18.11-2.19-2.6-4.15-5.35-1-1.37-2-2.75-2.68-3.78l-1.24-1.78s-.39-.72-1-1.79-1.53-2.51-2.36-4a24,24,0,0,1-2-4.25,8.08,8.08,0,0,1-.37-1.51c-.05-.37-.06-.58,0-.59s.16.17.31.51.3.82.61,1.37a34.73,34.73,0,0,0,2.32,3.91l2.63,3.8c.71,1.05,1.16,1.78,1.16,1.78l3.49,5.72C30.13,54.55,31.83,57.48,31.66,57.59Z"/><path class="cls-5" d="M18.88,35.56c-.17.11-1.32-1.16-2.38-2.55-.54-.68-1-1.44-1.37-2a6.06,6.06,0,0,1-.41-.69l-.15-.27-.41-1a7.08,7.08,0,0,1-.33-1.11c-.06-.2-.11-.42-.17-.63s0-.46-.06-.69a7.41,7.41,0,0,1,.4-3.49c.24,0,.29,1.77.65,3.33,0,.19.08.38.14.57s.15.36.22.54c.16.34.26.67.42.94l.5.91s0,.09.1.26a6.72,6.72,0,0,0,.31.69c.3.56.63,1.33,1.06,2.07C18.2,33.93,19.06,35.44,18.88,35.56Z"/><path class="cls-4" d="M42.42,56.41A7.31,7.31,0,0,1,42.23,54a42.77,42.77,0,0,1,.47-5.28c.26-1.91.59-3.8.8-5.21.11-.7.2-1.29.26-1.7s.07-.65.07-.65l.11-.64c.08-.41.17-1,.26-1.69s.21-1.52.33-2.39.19-1.83.29-2.78.24-1.9.35-2.79c.06-.44.12-.87.18-1.28s.17-.79.25-1.14a7.6,7.6,0,0,1,.69-2.3,8.81,8.81,0,0,1-.11,2.39c0,.35-.09.73-.12,1.13S46,30.51,46,31c0,.89-.1,1.82-.13,2.78s-.07,1.91-.11,2.8-.14,1.74-.2,2.46-.11,1.32-.17,1.73l-.08.66-.11.65c-.08.42-.2,1-.34,1.72-.31,1.4-.72,3.27-1.12,5.14s-.73,3.73-.94,5.15A9.61,9.61,0,0,1,42.42,56.41Z"/><path class="cls-4" d="M58.05,19.09c.14.13-1,1.42-2.48,2.42s-2.9,1.83-2.9,1.83-1.53.69-3,1.45S47,26.62,46.79,26.48s.9-1.53,2.31-2.58c.7-.5,1.41-1,2-1.33L52,22,55,20.6C56.53,19.88,57.9,18.93,58.05,19.09Z"/><path class="cls-5" d="M57.21,26.15C57,26.12,57,25,57,24s.09-2.17.09-2.17.28-1.06.62-2.09.86-2,1.06-2,.11,1.14,0,2.18-.18,2.1-.18,2.1-.23,1-.52,2.07S57.42,26.17,57.21,26.15Z"/><path class="cls-8" d="M31.14,20.41c-.47.47-4.66,1.28-4.66,1.28s4.19.8,4.66,1.27,1.27,6.21,1.27,6.21.81-5.74,1.28-6.21,4.65-1.27,4.65-1.27-4.18-.81-4.65-1.28-1.28-6.2-1.28-6.2S31.61,19.94,31.14,20.41Z"/><path class="cls-8" d="M34.72,34.59a12.72,12.72,0,0,1-2.61.72,13.28,13.28,0,0,1,2.61.71,20.12,20.12,0,0,1,.72,3.49A20.12,20.12,0,0,1,36.16,36a13.28,13.28,0,0,1,2.61-.71,12.72,12.72,0,0,1-2.61-.72,19.84,19.84,0,0,1-.72-3.48A19.84,19.84,0,0,1,34.72,34.59Z"/><polygon class="cls-9" points="35.13 126.28 5.44 79.64 16.69 50.95 44.34 63.8 48.26 40.49 73.14 3.7 94.3 45.17 105.91 43.96 109.73 53.42 102.53 68.84 116.75 64.43 120.7 83.93 101.46 107.43 109.89 105.74 112.1 112.58 95.39 127.59 78.54 132.57 57.94 133.38 35.13 126.28"/><polygon class="cls-10" points="54.2 132.21 57.94 133.38 69.8 132.91 44.41 63.39 44.34 63.8 16.69 50.95 5.44 79.64 27.64 79.34 54.2 132.21"/><path class="cls-10" d="M27.63,78.82,42.9,63.13,16.71,51l2.36,7.46C22.35,64.84,24.6,72.28,27.63,78.82Z"/><path class="cls-10" d="M27.63,78.82l1.62-16.94L16.71,51l2.36,7.46C22.35,64.84,24.6,72.28,27.63,78.82Z"/><polygon class="cls-10" points="71.84 45.73 69.09 132.94 77.8 132.6 94.3 45.17 73.14 3.7 48.96 39.45 71.84 45.73"/><polygon class="cls-10" points="71.84 45.73 94.3 45.17 73.14 3.7 71.84 45.73"/><polygon class="cls-10" points="71.84 45.73 84.62 32.62 73.14 3.7 71.84 45.73"/><polygon class="cls-10" points="95.39 127.59 112.1 112.58 109.89 105.74 105.48 111.87 90.18 129.13 95.39 127.59"/><polygon class="cls-10" points="78.54 132.57 102.53 68.84 109.73 53.42 105.91 43.96 94.3 45.17 99.67 51.97 78.54 132.57"/><polygon class="cls-10" points="110.84 77.45 80.52 131.99 81.72 131.64 101.46 107.43 120.7 83.93 116.75 64.43 110.84 77.45"/><polygon class="cls-10" points="109.72 53.43 109.73 53.42 105.91 43.96 99.67 51.97 109.72 53.43"/><polygon class="cls-10" points="109.72 53.43 105.99 50.56 105.91 43.96 99.67 51.97 109.72 53.43"/><polygon class="cls-10" points="120.66 83.71 116.75 64.43 102.53 68.84 109.82 80.11 120.66 83.71"/><polygon class="cls-10" points="114.29 78.46 116.75 64.43 102.53 68.84 109.82 80.11 114.29 78.46"/><polygon class="cls-10" points="112.03 112.38 109.89 105.74 101.46 107.43 105.48 111.87 112.03 112.38"/><polygon class="cls-10" points="105.97 108.96 109.89 105.74 101.46 107.43 105.48 111.87 105.97 108.96"/><polygon class="cls-4" points="8.33 78.02 21.24 75.2 16.74 54.65 26.56 78.3 8.33 78.02"/><polygon class="cls-4" points="49.67 41.01 70.53 46.37 68.79 128.12 67.75 49.22 49.67 41.01"/><path class="cls-4" d="M94.5,46.93l4.29,5s6.42-7.3,6.25-6.6-4.48,7.46-4.48,7.46L108.33,54l-8.09,1L80.57,126.21,98.29,54.1Z"/><polygon class="cls-4" points="89.58 128.2 104.16 111.63 101.46 107.43 105.48 111.87 109.89 105.74 106.81 112.12 111.04 112.59 105.51 113.72 89.58 128.2"/><polygon class="cls-6" points="8.91 81.97 26.87 81.73 51.02 129.24 8.91 81.97"/><path class="cls-6" d="M49,42.78,46.1,63.6l21.4,60S49.16,42.07,49,42.78Z"/><polygon class="cls-6" points="71.79 8.3 69.96 42.85 52.1 37.63 66.36 36.91 71.79 8.3"/><path class="cls-6" d="M91.33,47.68,76.57,130.13l-4.93.42S91.32,46.44,91.33,47"/><polygon class="cls-6" points="102.58 71.84 82.5 125.65 108.14 79.87 100.33 88.6 102.58 71.84"/><polygon class="cls-11" points="42.41 64.7 28.86 78.8 55.99 132.34 34.16 79.79 42.41 64.7"/><polygon class="cls-11" points="72.83 6.88 72.62 44.23 91.98 43.62 75.75 41.37 72.83 6.88"/><polygon class="cls-11" points="104.65 69.08 109.47 74.04 115.7 65.23 109.53 78.26 104.65 69.08"/><polygon class="cls-11" points="85.01 128.97 101.48 108.84 102.75 111.29 85.01 128.97"/><g class="cls-7"><polygon class="cls-11" points="42.41 64.7 28.86 78.8 55.99 132.34 34.16 79.79 42.41 64.7"/><polygon class="cls-11" points="72.83 6.88 72.62 44.23 91.98 43.62 75.75 41.37 72.83 6.88"/><polygon class="cls-11" points="104.65 69.08 109.47 74.04 115.7 65.23 109.53 78.26 104.65 69.08"/><polygon class="cls-11" points="85.01 128.97 101.48 108.84 102.75 111.29 85.01 128.97"/></g><polygon class="cls-10" points="44.4 68.29 67.43 131.4 59.23 131.24 44.4 68.29"/><path class="cls-10" d="M88.51,47.36l-15.05,1s-3,74.82-2.72,74,6.48-70.1,6.48-70.1Z"/><polygon class="cls-10" points="86.09 123.75 110.37 81.69 118.33 84.75 111.74 85.63 86.09 123.75"/><path class="cls-4" d="M4.41,82c-.2-.12,1.76-3.77,3.17-7.65.65-2,1.36-3.9,1.78-5.4l.75-2.47s1.31-3.92,2.7-7.83S16,51,16.19,51,15,55,13.82,59s-2.27,8-2.27,8-.35,1-.88,2.46-1.31,3.42-2.1,5.36C6.88,78.57,4.56,82.07,4.41,82Z"/><path class="cls-4" d="M34.68,126.7a4.36,4.36,0,0,1-.64-1c-.37-.68-.81-1.69-1.52-2.81a86.89,86.89,0,0,0-5.44-8c-2.11-2.84-4.26-5.67-5.78-7.89s-2.43-3.74-2.43-3.74L16.63,99.4c-1.36-2.27-3.28-5.22-5.14-8.22s-3.76-6-5-8.32a30.07,30.07,0,0,1-2-3.91A27.06,27.06,0,0,1,7,82.56c1.42,2.23,3.44,5.12,5.42,8s4,5.83,5.42,8.07l2.35,3.74s.89,1.56,2.31,3.75,3.48,5.11,5.49,8A69,69,0,0,1,33,122.57a22.2,22.2,0,0,1,1.29,3A3.66,3.66,0,0,1,34.68,126.7Z"/><path class="cls-4" d="M15.85,80c0-.25,3.31-.71,6.5-1.59a36.12,36.12,0,0,0,6.09-2.43l1.77-1c.26-.16.57-.29.86-.49l.89-.64a22.38,22.38,0,0,0,1.91-1.45c.62-.54,1.23-1.09,1.81-1.61s1-1.08,1.48-1.51c.86-.9,1.47-1.48,1.56-1.42a6.74,6.74,0,0,1-1.11,1.79c-.39.5-.78,1.14-1.32,1.72l-1.7,1.82a20.37,20.37,0,0,1-1.88,1.65l-.9.74c-.29.23-.6.39-.86.57l-1.83,1.14A32.2,32.2,0,0,1,22.6,79.4,25.34,25.34,0,0,1,15.85,80Z"/><path class="cls-4" d="M43.09,110.56c-.37.18-9-16.79-9-16.79l-1.23-2.68c-.37-.81-.86-1.7-1.35-2.68l-1.65-3c-.55-1.06-1.15-2.08-1.6-3.1l-1.26-2.77c-.19-.4-.36-.77-.49-1.11a5.17,5.17,0,0,1-.18-.51.31.31,0,0,1,0-.11v0a.21.21,0,0,1,.08-.13.18.18,0,0,1,.21,0,.81.81,0,0,1,.13.11l.12.17c.29.45.41.72.37.75s-.25-.19-.6-.55l-.14-.14,0,0h0s0,0,0-.08,0-.06.14,0,0,0,.06,0a4.39,4.39,0,0,0,.22.41c.18.31.38.66.61,1,.47.79.94,1.68,1.48,2.64s1.18,2,1.77,3,1.25,2,1.83,3,1.09,1.88,1.5,2.67l1.34,2.63S43.46,110.37,43.09,110.56Z"/><path class="cls-4" d="M66.29,128.72a6.66,6.66,0,0,1-.63-1.35c-.35-.87-.84-2.13-1.41-3.64l-4.12-11.08c-1.55-4-3.09-8-4.26-11-.57-1.51-1-2.77-1.39-3.65L54,96.58s-.68-2-1.83-5-2.74-7-4.17-11a70.57,70.57,0,0,1-3.17-11.39c-.14-.79-.25-1.53-.3-2.18a16.84,16.84,0,0,1-.12-1.7,6,6,0,0,1,0-1.48c.14,0,.24,2.14,1,5.25A79.21,79.21,0,0,0,49,80.19c1.54,4,3.25,7.9,4.46,10.88s2,5,2,5l.47,1.41c.32.88.77,2.15,1.31,3.67,1.08,3,2.51,7.09,4,11.14s2.7,8.18,3.68,11.26c.48,1.54.88,2.82,1.14,3.73A5.23,5.23,0,0,1,66.29,128.72Z"/><path class="cls-4" d="M92.53,45a34.21,34.21,0,0,1-4.8.81l-4.94.69c-1.8.27-3.76.4-5.7.6a26,26,0,0,1-2.92.14l-2.84.06H69.72a5.41,5.41,0,0,1,0-.59c0-.55,0-1.1,0-1.63,0-.84-.06-1.64-.09-2.37-.07-1.48,0-2.69,0-3.55s0-1.35,0-1.35,0-.48.06-1.33.16-2.06.27-3.51c.23-2.9.63-6.75,1-10.6.2-1.92.39-3.84.58-5.64l.41-4.93A33.75,33.75,0,0,1,72.35,7a33.21,33.21,0,0,1,.18,4.84c0,1.46-.11,3.15-.17,5s-.23,3.74-.35,5.68c-.28,3.86-.57,7.71-.72,10.59-.08,1.45-.13,2.65-.18,3.49s0,1.32,0,1.32,0,.48,0,1.33-.13,2-.09,3.5c0,.72,0,1.5,0,2.33,0,.36,0,1,0,.93s0,0,0,.06h.41l2.78,0A27.75,27.75,0,0,0,77,46c1.93-.13,3.86-.19,5.67-.37l5-.44A34.69,34.69,0,0,1,92.53,45Z"/><path class="cls-4" d="M75,124.68a7.54,7.54,0,0,1,.35-1.67c.27-1,.68-2.53,1.17-4.31,1.1-3.53,2.1-8.37,3.27-13.15,1-4.83,2-9.64,2.65-13.29s1.14-6.06,1.14-6.06,1.89-9.64,4-19.24c1.18-4.78,2.25-9.58,3.36-13.1.52-1.77,1-3.24,1.29-4.26A7.63,7.63,0,0,1,92.86,48a7.61,7.61,0,0,1-.29,1.67c-.23,1-.58,2.54-1,4.33-.94,3.56-1.85,8.38-2.89,13.17-1.85,9.63-3.58,19.3-3.58,19.3l-1.25,6c-.72,3.63-1.87,8.45-3,13.26-1.32,4.78-2.48,9.58-3.75,13.08-.58,1.76-1.08,3.22-1.44,4.24A7,7,0,0,1,75,124.68Z"/><path class="cls-4" d="M109.34,54.73c-.22,0-.64-1.23-1.2-2.43S107,49.92,107,49.92s-.46-1.25-.87-2.55-.63-2.67-.44-2.73.78,1.15,1.42,2.32,1.27,2.36,1.27,2.36a27.11,27.11,0,0,1,.81,2.64C109.47,53.31,109.53,54.71,109.34,54.73Z"/><path class="cls-4" d="M83.78,117.29a5.71,5.71,0,0,1,.21-1.46c.2-.91.39-2.24.85-3.77A99.26,99.26,0,0,1,88.63,101C90.25,97,92,93.12,93.33,90.23s2.21-4.82,2.21-4.82l.16-.34c.12-.22.26-.55.44-1l1.48-3.53,4.52-10.7c1.68-3.88,3.35-7.76,4.6-10.67.64-1.46,1.18-2.66,1.58-3.5A6,6,0,0,1,109,54.4a5.48,5.48,0,0,1-.4,1.4c-.3.87-.76,2.12-1.31,3.6-1.14,3-2.65,6.92-4.17,10.87S100,78.16,98.89,81.12c-.58,1.48-1.07,2.71-1.41,3.57-.16.43-.3.77-.41,1s-.16.35-.16.35l-2.33,4.79c-1.4,2.86-3.24,6.69-5,10.55s-3.23,7.83-4.21,10.86S83.91,117.31,83.78,117.29Z"/><path class="cls-4" d="M109.68,81.64c-.22,0-.73-1.26-1.38-2.47s-1.42-2.34-1.42-2.34-.62-1.2-1.32-2.4-1.43-2.42-1.26-2.55,1.17.86,2.12,1.93a26.15,26.15,0,0,1,1.76,2.26,18.93,18.93,0,0,1,1.1,2.69C109.72,80.16,109.86,81.6,109.68,81.64Z"/><path class="cls-4" d="M118.42,85.34c-.09.06-.62-.59-1.73-1.14a16.27,16.27,0,0,0-4.3-1.34c-.41-.06-.81-.12-1.21-.16l-.6,0-.92,0-1.07,0h-.13s-.12,0-.08,0l.1-.24c.07-.16.14-.31.2-.47l.62-1.47c.47-1.16.75-2,.75-2s.34-.77.83-1.92,1.17-2.71,1.9-4.24c.35-.77.77-1.52,1.13-2.23s.79-1.33,1.13-1.87a6.53,6.53,0,0,1,1.36-1.64,6.45,6.45,0,0,1-.86,1.93l-.87,1.95c-.29.73-.63,1.49-.91,2.28-1.16,3.15-2.31,6.31-2.31,6.31s-.33.78-.88,1.94l-.11.22,0,.12h0l0,0c-.06.07,0,.08.06.09l.92.15c.43.07.85.17,1.27.27A14.62,14.62,0,0,1,117,83.7C118.1,84.45,118.51,85.3,118.42,85.34Z"/><path class="cls-4" d="M85.13,127.37a24.31,24.31,0,0,1,1.61-3.82c1.05-2.26,2.48-5.26,3.93-8.25l5.82-12,6.63-11.44c1.67-2.86,3.35-5.7,4.63-7.82A24,24,0,0,1,110,80.63a25,25,0,0,1-1.75,3.75c-1.13,2.2-2.67,5.13-4.21,8l-6.23,11.63-6.21,11.73c-1.56,2.92-3.13,5.84-4.34,8A24.87,24.87,0,0,1,85.13,127.37Z"/><path class="cls-4" d="M43.43,64.82c-.2-.06.55-3.26,1.34-6.43L46.11,52l1.4-6.34c.53-3.19,1.09-6.41,1.3-6.4s0,3.28-.25,6.56l-.66,4.47c-.09.61-.17,1.12-.23,1.47s-.09.56-.09.56-.86,3.19-1.78,6.35S43.62,64.89,43.43,64.82Z"/><path class="cls-8" d="M4.65,79.52C4.18,80,0,80.79,0,80.79s4.18.81,4.65,1.28,1.28,6.2,1.28,6.2.8-5.73,1.27-6.2,4.66-1.28,4.66-1.28S7.67,80,7.2,79.52s-1.27-6.2-1.27-6.2S5.12,79.05,4.65,79.52Z"/><path class="cls-8" d="M104.07,112.69c-.42.43-4.23,1.16-4.23,1.16s3.81.73,4.23,1.16,1.16,5.65,1.16,5.65.74-5.22,1.17-5.65,4.23-1.16,4.23-1.16-3.81-.73-4.23-1.16-1.17-5.64-1.17-5.64S104.5,112.26,104.07,112.69Z"/><path class="cls-8" d="M95.61,65.49a11.78,11.78,0,0,1-2.35.65,12.38,12.38,0,0,1,2.35.64,18.24,18.24,0,0,1,.64,3.14,18.34,18.34,0,0,1,.65-3.14,12.18,12.18,0,0,1,2.35-.64,11.6,11.6,0,0,1-2.35-.65,18.06,18.06,0,0,1-.65-3.13A18,18,0,0,1,95.61,65.49Z"/><path class="cls-8" d="M77.39,43.8a14,14,0,0,1-2.77.76,14,14,0,0,1,2.77.76A21.67,21.67,0,0,1,78.15,49a21.67,21.67,0,0,1,.76-3.69,14,14,0,0,1,2.77-.76,14,14,0,0,1-2.77-.76,21.67,21.67,0,0,1-.76-3.69A21.67,21.67,0,0,1,77.39,43.8Z"/></g></g></g></svg>