<svg xmlns="http://www.w3.org/2000/svg" viewBox="0 0 88.31 126.25"><defs><style>.cls-1{isolation:isolate;}.cls-2,.cls-4{fill:#ffe031;}.cls-3{fill:#ffa531;}.cls-4{mix-blend-mode:multiply;}.cls-5{mix-blend-mode:screen;}.cls-6{fill:#3a219e;}.cls-7{fill:#fff;}.cls-11,.cls-8{fill:#6f4af0;}.cls-10,.cls-8{opacity:0.2;}.cls-9{fill:#f830cf;}.cls-12{fill:none;stroke:#3a219e;stroke-miterlimit:10;stroke-width:0.5px;}</style></defs><g class="cls-1"><g id="Layer_2" data-name="Layer 2"><g id="OBJECTS"><path class="cls-2" d="M.78,83.6s1.28,43.05,42.06,42.65S89.19,97.68,87.47,70.33c-1.82-24.54-16.91-11.5-15.34,2.31,1.61,14.18-5.26,15.39-4.4-.3-.86-17.7,1.55-56.3-6-60.75-9.23-5.43-12.23,6.24-12.23,6.24s1.29-15.29-7.73-16.5C30.39.73,31,24.06,31,24.06a10.13,10.13,0,0,0-2.79-4.83c-3-2.54-8-3.16-10.72,6A240.13,240.13,0,0,0,15.8,49.41S13.08,37.8,6.36,40.56C-.51,43.37.78,83.6.78,83.6Z"/><path class="cls-3" d="M66.39,88.5a20.5,20.5,0,0,1-3,1A37.66,37.66,0,0,0,57,92.19a40.18,40.18,0,0,0-5.64,3.75c-1.41,1.16-2.31,2-2.31,2l-.6.56c-.37.37-1,.84-1.57,1.51a31.86,31.86,0,0,0-4,5.13A24.11,24.11,0,0,0,40.24,111a18.56,18.56,0,0,0-.49,2.06c-.12.5-.21.79-.28.79s-.09-.3-.08-.82a10.09,10.09,0,0,1,.16-2.16,20.91,20.91,0,0,1,2.14-6.29A30.72,30.72,0,0,1,45.6,99c.59-.73,1.19-1.25,1.56-1.65l.61-.62s1-.83,2.51-2a39.33,39.33,0,0,1,6.1-3.6,32.38,32.38,0,0,1,6.76-2.3,16.8,16.8,0,0,1,2.35-.36C66.06,88.44,66.38,88.44,66.39,88.5Z"/><path class="cls-3" d="M71.05,86.64c-.17-.06.6-1.79.9-4.54a87.25,87.25,0,0,0,0-10.19c0-3.75.4-7.59,1.69-10.34a9.7,9.7,0,0,1,2-3.08,8.55,8.55,0,0,1,1.11-1l.33-.22a6.11,6.11,0,0,1,1-.54A5.75,5.75,0,0,1,80,56.25a5.21,5.21,0,0,1,2.41.27A7.09,7.09,0,0,1,86.54,60a10.35,10.35,0,0,1,.93,2.71c.2,1,.26,1.85.4,2.79a41.69,41.69,0,0,1,.24,10.24,28.15,28.15,0,0,1-.46,4.62,22.78,22.78,0,0,1-.24-4.64,46.53,46.53,0,0,0-.81-10.07c-.17-.9-.29-1.84-.5-2.68a9.47,9.47,0,0,0-.9-2.35A5.59,5.59,0,0,0,81.88,58a3.86,3.86,0,0,0-2.91.22,4.71,4.71,0,0,0-.74.43L78,58.8a6.73,6.73,0,0,0-.92.77,8.56,8.56,0,0,0-1.83,2.61c-1.24,2.39-1.78,6.07-2,9.75s-.06,7.46-.62,10.26a17.18,17.18,0,0,1-.47,1.88,7.55,7.55,0,0,1-.51,1.41C71.33,86.25,71.11,86.67,71.05,86.64Z"/><path class="cls-3" d="M57.28,69.06a15.82,15.82,0,0,1-2.61,3.06,43.91,43.91,0,0,1-7.06,5.61A52.17,52.17,0,0,1,39.43,82c-1.16.51-2.17.83-2.87,1.08l-1.1.39a11.38,11.38,0,0,1-1.11.31c-.72.18-1.74.48-3,.75a68.65,68.65,0,0,1-9.2,1.36,67.53,67.53,0,0,1-9.29.06,19.55,19.55,0,0,1-4.17-.55,27.77,27.77,0,0,1,4.19-.1A84.06,84.06,0,0,0,22,84.68,73.35,73.35,0,0,0,31,83c1.19-.3,2.17-.62,2.86-.81s1.07-.34,1.07-.34L36,81.51c.68-.22,1.68-.5,2.81-1a53.83,53.83,0,0,0,8.13-3.78,54.09,54.09,0,0,0,7.28-5.1A26.4,26.4,0,0,1,57.28,69.06Z"/><path class="cls-3" d="M62.14,77.94a29.94,29.94,0,0,1-4,1.73c-2.45,1-5.6,2.49-8.66,4.11s-6,3.47-8.12,4.92c-1.08.7-1.92,1.36-2.54,1.79l-1,.68-1,.69c-.59.45-1.48,1-2.47,1.83a90.63,90.63,0,0,0-7.06,6.06,78,78,0,0,0-6.24,6.78,28.65,28.65,0,0,1-2.68,3.25,16.88,16.88,0,0,1,2.1-3.61A60.25,60.25,0,0,1,26.39,99a81.14,81.14,0,0,1,6.91-6.41c1-.84,1.87-1.48,2.46-2l.94-.73,1-.67c.64-.42,1.52-1.06,2.65-1.74a94.14,94.14,0,0,1,8.46-4.7,74.2,74.2,0,0,1,9-3.68A22.34,22.34,0,0,1,62.14,77.94Z"/><path class="cls-3" d="M50.61,57.77A6.52,6.52,0,0,1,50.34,56c-.11-1.15-.25-2.81-.4-4.79-.4-4-.36-9.29-.48-14.6,0-2.65-.08-5.29-.11-7.78,0-1.24,0-2.44-.06-3.57S49.16,23,49.11,22c-.23-3.95-.38-6.58-.38-6.58a29.27,29.27,0,0,0-1-6.39A15.44,15.44,0,0,0,45,3.15a5,5,0,0,0-2.94-1.84,6.23,6.23,0,0,0-3.69.74,13.65,13.65,0,0,0-1.72,1,7.12,7.12,0,0,0-1.39,1.29,13.5,13.5,0,0,0-1.9,3.22A27.85,27.85,0,0,0,31.63,14a36.8,36.8,0,0,0-.4,4.73,9.88,9.88,0,0,1-.06,1.82,6.44,6.44,0,0,1-.31-1.81A28.36,28.36,0,0,1,30.93,14a26.88,26.88,0,0,1,1.49-6.7,14.09,14.09,0,0,1,1.93-3.53A8.09,8.09,0,0,1,35.91,2.2,14.55,14.55,0,0,1,37.76,1a7.61,7.61,0,0,1,4.55-1A6.46,6.46,0,0,1,46.19,2.3a16.89,16.89,0,0,1,3.17,6.38,32.57,32.57,0,0,1,1,4.8,15.85,15.85,0,0,1,.18,1.83s.1,2.67.24,6.66c0,1,.07,2.08.12,3.22s0,2.35,0,3.59c0,2.49-.08,5.14-.11,7.8-.05,5.29-.28,10.6-.09,14.56,0,2,.06,3.64.05,4.8A7.46,7.46,0,0,1,50.61,57.77Z"/><path class="cls-3" d="M67.61,72.76a6.27,6.27,0,0,1-.17-1.67c0-1.06-.09-2.57-.12-4.39,0-3.63-.38-8.46-.61-13.3s-.69-9.68-.77-13.33S65.72,34,65.72,34s0-.6,0-1.65,0-2.55,0-4.34a57.81,57.81,0,0,0-.51-6.09,23.16,23.16,0,0,0-1.85-6.67,13.86,13.86,0,0,0-1.89-3,7.2,7.2,0,0,0-2.72-2,4.25,4.25,0,0,0-3.12,0,7.2,7.2,0,0,0-2.41,1.62,15.65,15.65,0,0,0-1.63,1.9c-.39.63-.77,1.16-1,1.63a6.62,6.62,0,0,1-.9,1.45,6.28,6.28,0,0,1,.57-1.59c.21-.5.55-1.07.9-1.74a13.73,13.73,0,0,1,1.56-2.08,7.64,7.64,0,0,1,2.6-1.91A5.19,5.19,0,0,1,59,9.4a8.11,8.11,0,0,1,3.26,2.19,14.87,14.87,0,0,1,2.16,3.16,23.92,23.92,0,0,1,2.17,7,57.15,57.15,0,0,1,.7,6.22c.1,1.82.14,3.34.16,4.4s0,1.66,0,1.66,0,2.41.07,6,.27,8.47.39,13.32.27,9.71,0,13.36c-.07,1.82-.14,3.33-.21,4.39A6.13,6.13,0,0,1,67.61,72.76Z"/><path class="cls-3" d="M31.78,65.55a7.7,7.7,0,0,1-.15-1.84c0-1.17,0-2.85,0-4.85.11-4,.38-9.34.46-14.67a101.45,101.45,0,0,0-.69-14.56c-.17-1-.32-1.86-.46-2.65s-.35-1.45-.48-2a13.07,13.07,0,0,0-.4-1.26c-.09-.29-.15-.45-.15-.45a9.29,9.29,0,0,0-.62-1.64,6.23,6.23,0,0,0-2.88-3.19,4.22,4.22,0,0,0-2.85-.14,7.18,7.18,0,0,0-3,1.68,8.57,8.57,0,0,0-2,3.05A12.61,12.61,0,0,0,18,24.83c-.22.62-.35,1.26-.51,1.9a91.18,91.18,0,0,0-1.57,14.43c-.11,2-.21,3.65-.35,4.82a5.23,5.23,0,0,1-.39,1.8,14.07,14.07,0,0,1,0-1.82V41.15a80.15,80.15,0,0,1,1-14.65c.14-.66.26-1.33.46-2a15.37,15.37,0,0,1,.65-1.95A9.74,9.74,0,0,1,19.55,19a8.75,8.75,0,0,1,3.58-2.14,6.06,6.06,0,0,1,4,.15,6.3,6.3,0,0,1,2.59,2,6.21,6.21,0,0,1,.73,1A6.21,6.21,0,0,1,31,21a13.07,13.07,0,0,1,.56,1.32c.11.31.16.48.16.48l.15.47c.08.31.27.76.39,1.35l.47,2.11c.12.82.25,1.75.4,2.75a95.79,95.79,0,0,1,.31,14.77c-.24,5.35-.71,10.68-1,14.67-.16,2-.29,3.66-.38,4.83A7.24,7.24,0,0,1,31.78,65.55Z"/><path class="cls-3" d="M17.21,75.54a10.21,10.21,0,0,1-.05-1.79c0-1.14,0-2.76-.08-4.71a127.89,127.89,0,0,0-1.16-14.21,50.81,50.81,0,0,0-1.59-7.41c-.69-2.28-1.64-4.42-3-5.58a2.44,2.44,0,0,0-2-.71H9.16l-.23.07-.44.13c-.28.12-.54.27-.78.39a5.18,5.18,0,0,0-1,.71l-.31.3a7,7,0,0,0-1,1.3,16.4,16.4,0,0,0-1.88,4.13,59.7,59.7,0,0,0-2.18,13.9C1,67.22,1,72.4,1,76.28,1,78.22,1,79.84,1,81a6.4,6.4,0,0,1-.16,1.79A7.86,7.86,0,0,1,.61,81c-.07-1.13-.17-2.75-.3-4.69C.1,72.41-.1,67.23.05,62A59.88,59.88,0,0,1,1.9,47.75a18.5,18.5,0,0,1,2-4.54,9,9,0,0,1,1.23-1.58l.4-.37a6.47,6.47,0,0,1,1.3-.91c.31-.15.64-.34,1-.5l.68-.18.36-.09.4,0a3.47,3.47,0,0,1,.85,0c.29.06.59.12.88.2l.82.42a7,7,0,0,1,.71.54c1.72,1.63,2.56,3.93,3.25,6.32a49.23,49.23,0,0,1,1.41,7.63A109.59,109.59,0,0,1,17.79,69C17.71,73,17.36,75.56,17.21,75.54Z"/><path class="cls-3" d="M14.78,56.85c0,.23-1.23.38-2.5.46s-2.48,0-2.48,0-1.18-.22-2.37-.49-2.36-.47-2.37-.7,1.23-.38,2.49-.47,2.47,0,2.47,0,1.19.21,2.38.49S14.78,56.62,14.78,56.85Z"/><path class="cls-3" d="M14,69.43c0,.46-4.87.83-4.87.83s-4.85-.37-4.85-.83,4.85-.82,4.85-.82S14,69,14,69.43Z"/><path class="cls-3" d="M29.76,35c0,.46-4.47.83-4.47.83s-4.44-.37-4.44-.83,4.44-.83,4.44-.83S29.76,34.56,29.76,35Z"/><path class="cls-3" d="M31.78,52.78c0,.45-6.29.82-6.29.82s-6.26-.37-6.26-.82S25.49,52,25.49,52,31.78,52.32,31.78,52.78Z"/><path class="cls-3" d="M46.35,22.43c0,.45-5.88.82-5.88.82s-5.85-.37-5.85-.82,5.85-.83,5.85-.83S46.35,22,46.35,22.43Z"/><path class="cls-3" d="M45.14,40.93c0,.46-5.07.83-5.07.83s-5-.37-5-.83,5-.82,5-.82S45.14,40.48,45.14,40.93Z"/><path class="cls-3" d="M62.14,30.2c0,.46-4.87.83-4.87.83s-4.84-.37-4.84-.83,4.84-.83,4.84-.83S62.14,29.74,62.14,30.2Z"/><path class="cls-3" d="M63,51.67c0,.45-4.67.82-4.67.82s-4.64-.37-4.64-.82,4.64-.83,4.64-.83S63,51.21,63,51.67Z"/><path class="cls-3" d="M83.6,78.32c-.08.21-1.3-.06-2.53-.4s-2.31-.84-2.31-.84-1-.57-2-1.19-2.1-1-2-1.27,1.29-.06,2.56.2,2.36.8,2.36.8,1,.61,2,1.26S83.68,78.1,83.6,78.32Z"/><path class="cls-3" d="M78.33,93.49c-.15.18-1.06-.2-1.92-.62S74.69,92,74.69,92s-.72-.64-1.39-1.31-1.21-1.47-1-1.63,1,.28,1.86.73,1.66.89,1.66.89.72.61,1.4,1.27S78.49,93.31,78.33,93.49Z"/><path class="cls-4" d="M86.38,93.89c-4.7-.63-8-8.75-6-11.69,1.33-1.93,4.56,0,7.2,2.12a116.74,116.74,0,0,0-.09-14,44.2,44.2,0,0,0-.58-4.63c-1.22,3.31-2.58,6.48-3.49,7.06-2,1.3-5.88.74-6.89-7.4-.35-2.84,1.3-5.94,3.59-8.76-4.37.59-8.87,8.19-8,16,1,9.15-1.45,12.89-3.12,10.18,0,2.24,0,3.64,0,3.64s5.66-.74,7.28,7.77-23.48,27.21-29.75,15.18,19-21.47,19-21.47c-19.44-3.7-31,21.28-39.48,20.54S9.72,99,6.28,78c-2.63-16.11.4-31.45,2-37.81a5.2,5.2,0,0,0-1.91.42C-.51,43.37.78,83.6.78,83.6s1.28,43.05,42.06,42.65C71.65,126,82.87,111.81,86.38,93.89Z"/><path class="cls-4" d="M19.84,32.42c-.21-4.09,1.42-9.92,3.08-14.6-2,.63-4,2.76-5.4,7.45A240.13,240.13,0,0,0,15.8,49.41a23.73,23.73,0,0,0-1-3c1.81,9.69,2.6,25.79,2.6,25.79C20.24,66.47,20.24,40.19,19.84,32.42Z"/><path class="cls-4" d="M32,63.72s3.84-30,4.65-46.1a38.82,38.82,0,0,1,5-16.29C31.24,1,31,20.72,31,23.68c.27,1.15.53,2.17.75,3C33.6,33.53,32,63.72,32,63.72Z"/><path class="cls-4" d="M55,10.54c-3.2,1.23-4.8,5-5.33,6.6.18.72.35,1.38.5,2,1.82,6.84.21,37,.21,37S54.17,26.75,55,10.54Z"/><path class="cls-4" d="M49.55,16.5A25.56,25.56,0,0,0,47.88,6.38,65.6,65.6,0,0,0,49.55,16.5Z"/><path class="cls-3" d="M11.29,80c-.08-.09.24-.47.73-1,.24-.27.57-.52.84-.86l.86-1A9,9,0,0,0,14.45,76,6.17,6.17,0,0,0,15,75c.27-.6.44-1,.44-1a26.72,26.72,0,0,0,1.33-3.32c.55-1.74,1.11-3.52,1.36-3.48s.14,1.87-.11,3.72a20.58,20.58,0,0,1-.9,3.7l-.64,1.08a5.89,5.89,0,0,1-.77,1,9.15,9.15,0,0,1-1,1.09l-1.13,1a8.93,8.93,0,0,1-1.09.7C11.82,79.86,11.36,80.07,11.29,80Z"/><path class="cls-3" d="M28.9,67.49c-.2-.19.74-1.32,1.17-2.62A13,13,0,0,0,30.51,63c.07-.51.13-.85.13-.85l.72-2.8c.39-1.44,1.11-2.8,1.33-2.72s0,1.48-.07,2.9-.2,2.91-.2,2.91-.12.36-.29.91a11,11,0,0,1-.88,1.95C30.41,66.72,29,67.64,28.9,67.49Z"/><path class="cls-3" d="M48.78,63.05c-.22-.13.26-1.36.42-2.62a17.24,17.24,0,0,0,.11-1.76c0-.47,0-.79,0-.79s.17-1.26.24-2.57,0-2.63.29-2.67.71,1.24,1,2.59a18,18,0,0,1,.3,2.74s-.06.35-.16.86a12.13,12.13,0,0,1-.53,1.87C49.92,62,49,63.17,48.78,63.05Z"/><g class="cls-5"><path class="cls-2" d="M61.56,99.5c.54.56,0,1.79-1.19,2.75s-2.6,1.28-3.14.71,0-1.79,1.19-2.75S61,98.94,61.56,99.5Z"/><path class="cls-2" d="M65.31,97.37c.2.45-.4,1.1-1.35,1.45s-1.87.29-2.07-.15.4-1.1,1.35-1.45S65.11,96.93,65.31,97.37Z"/></g><g class="cls-5"><path class="cls-2" d="M78.45,62.77c.78.21,1,1.51.59,2.9S77.58,68,76.8,67.8s-1-1.51-.59-2.9S77.67,62.55,78.45,62.77Z"/><path class="cls-2" d="M80.4,59.15c.42.28.29,1.12-.3,1.88s-1.43,1.15-1.85.87-.3-1.12.3-1.88S80,58.87,80.4,59.15Z"/></g><g class="cls-5"><path class="cls-2" d="M60.61,18.49c-.78.24-1.81-.69-2.3-2.07s-.27-2.69.51-2.92,1.8.7,2.3,2.08S61.38,18.26,60.61,18.49Z"/><path class="cls-2" d="M61.27,22.48c-.52,0-.94-.76-.93-1.7s.45-1.69,1-1.68.95.77.93,1.7S61.8,22.49,61.27,22.48Z"/></g><g class="cls-5"><path class="cls-2" d="M45.28,10.31c-.78.23-1.81-.7-2.3-2.08s-.27-2.69.51-2.92,1.8.7,2.29,2.08S46.05,10.07,45.28,10.31Z"/><path class="cls-2" d="M45.94,14.29c-.53,0-.94-.76-.93-1.7s.45-1.69,1-1.68.94.77.93,1.7S46.47,14.3,45.94,14.29Z"/></g><g class="cls-5"><path class="cls-2" d="M27.06,26.27c-.78.23-1.81-.7-2.3-2.08s-.27-2.69.51-2.92,1.81.7,2.3,2.08S27.84,26,27.06,26.27Z"/><path class="cls-2" d="M27.72,30.26c-.52,0-.94-.77-.93-1.71s.45-1.68,1-1.68.94.77.92,1.7S28.25,30.26,27.72,30.26Z"/></g><g class="cls-5"><path class="cls-2" d="M11.58,49.72c-.78.24-1.81-.69-2.3-2.07S9,45,9.79,44.73s1.8.7,2.29,2.08S12.35,49.49,11.58,49.72Z"/><path class="cls-2" d="M12.24,53.71c-.53,0-.94-.77-.93-1.7s.45-1.69,1-1.68.94.77.93,1.7S12.76,53.72,12.24,53.71Z"/></g><path class="cls-6" d="M60.81,89.66s-9,14.64-20.51,14.85-21.13-14.1-21.13-14.1,9-14.64,20.51-14.85S60.81,89.66,60.81,89.66Z"/><path class="cls-7" d="M60.17,89.67s-8.78,12.21-19.92,12.41S19.81,90.4,19.81,90.4,28.58,78.19,39.73,78,60.17,89.67,60.17,89.67Z"/><path class="cls-8" d="M47.54,79.69a36.83,36.83,0,0,1,9.07,7.89S48.46,98.92,38.11,99.1c-8,.15-15-6.45-17.75-9.43-.36.46-.55.73-.55.73s9.29,11.88,20.44,11.68S60.17,89.67,60.17,89.67,54.9,82.94,47.54,79.69Z"/><path class="cls-6" d="M47.63,89.33c.09,3.92-3.32,7.16-7.61,7.24s-7.84-3-7.93-7,3.33-7.16,7.62-7.24S47.55,85.4,47.63,89.33Z"/><path class="cls-9" d="M46,89.35a5.88,5.88,0,0,1-6,5.74,5.65,5.65,0,1,1-.24-11.25A5.93,5.93,0,0,1,46,89.35Z"/><path class="cls-6" d="M44.4,89.38a4.55,4.55,0,1,1-4.62-4.06A4.35,4.35,0,0,1,44.4,89.38Z"/><path class="cls-7" d="M45.36,85.91a2.09,2.09,0,0,1-2.15,2A2.12,2.12,0,0,1,41,86a2.2,2.2,0,0,1,4.39-.08Z"/><path class="cls-7" d="M38.23,92.5a1.29,1.29,0,0,1-1.31,1.26,1.3,1.3,0,0,1-1.37-1.21,1.35,1.35,0,0,1,2.68,0Z"/><g class="cls-10"><path class="cls-11" d="M31.23,82.76c.5.52,0,1.67-1.11,2.56S27.7,86.51,27.2,86s0-1.67,1.11-2.56S30.73,82.23,31.23,82.76Z"/><path class="cls-11" d="M34.73,80.78c.18.41-.38,1-1.26,1.35s-1.75.27-1.93-.15.37-1,1.25-1.35S34.54,80.36,34.73,80.78Z"/></g><path class="cls-7" d="M49.29,96.76c-.39-.5.16-1.47,1.23-2.17s2.25-.86,2.64-.35-.16,1.47-1.22,2.17S49.68,97.26,49.29,96.76Z"/><path class="cls-7" d="M46,98.23c-.13-.39.43-.87,1.23-1.1s1.57-.09,1.7.29-.43.87-1.24,1.09S46.14,98.61,46,98.23Z"/><path class="cls-6" d="M44.61,69c0-.36-2.37-.68-3.72-.83-.17-1.21-.51-3.35-.91-3.35s-.74,2.14-.91,3.35c-1.34.15-3.72.47-3.72.83s2.38.68,3.72.83c.17,1.23.51,3.36.91,3.36s.74-2.14.91-3.36C42.24,69.71,44.61,69.4,44.61,69Z"/><path class="cls-12" d="M29,73.17c0-.3-2-.56-3.11-.69-.14-1-.42-2.8-.76-2.8s-.62,1.79-.75,2.8c-1.13.12-3.11.39-3.11.69s2,.57,3.11.7c.13,1,.42,2.8.75,2.8s.62-1.78.76-2.8C27,73.74,29,73.48,29,73.17Z"/><path class="cls-12" d="M58.94,73.17c0-.3-2-.56-3.11-.69-.14-1-.43-2.8-.76-2.8s-.62,1.79-.76,2.8c-1.12.12-3.11.39-3.11.69s2,.57,3.11.7c.14,1,.43,2.8.76,2.8s.62-1.78.76-2.8C57,73.74,58.94,73.48,58.94,73.17Z"/><path class="cls-6" d="M35.73,114.25a5.44,5.44,0,0,1,5.66-5.18,5.43,5.43,0,0,1,5.66,5.18,4.39,4.39,0,0,1-.11,1,5.52,5.52,0,0,0,1-3.1,6.25,6.25,0,0,0-6.51-6,6.25,6.25,0,0,0-6.5,6,5.52,5.52,0,0,0,1,3.1A4.4,4.4,0,0,1,35.73,114.25Z"/><path class="cls-6" d="M41.63,112.33c0-.11-.74-.21-1.16-.26,0-.38-.16-1-.29-1s-.23.67-.28,1c-.42.05-1.17.15-1.17.26s.75.21,1.17.26c.05.38.16,1,.28,1s.24-.67.29-1C40.89,112.54,41.63,112.44,41.63,112.33Z"/><path class="cls-6" d="M45.13,113.6c0-.11-.74-.21-1.17-.26-.05-.38-.16-1-.28-1s-.24.67-.29,1c-.42,0-1.16.15-1.16.26s.74.21,1.16.26c0,.38.16,1,.29,1s.23-.67.28-1C44.38,113.81,45.13,113.71,45.13,113.6Z"/><path class="cls-6" d="M42.56,116.1c0-.12-.74-.21-1.17-.26,0-.38-.15-1-.28-1s-.23.67-.29,1c-.41,0-1.16.14-1.16.26s.75.21,1.17.26c.05.38.16,1,.28,1s.23-.67.28-1C41.82,116.31,42.56,116.21,42.56,116.1Z"/></g></g></g></svg>