<svg xmlns="http://www.w3.org/2000/svg" viewBox="0 0 130.06 137.65"><defs><style>.cls-1{isolation:isolate;}.cls-2{fill:#fff;}.cls-3,.cls-5{fill:#6f4af0;}.cls-3,.cls-4{opacity:0.2;}.cls-12,.cls-6,.cls-7,.cls-8{fill:#ffe031;}.cls-11,.cls-7{mix-blend-mode:multiply;}.cls-8{opacity:0.6;}.cls-12,.cls-8{mix-blend-mode:screen;}.cls-9{fill:#ffa531;}.cls-10{fill:#f830cf;}.cls-11,.cls-13{fill:#3a219e;}.cls-11{opacity:0.3;}.cls-12{opacity:0.4;}.cls-14{fill:#ff5b31;}.cls-15{fill:#a31197;}</style></defs><g class="cls-1"><g id="Layer_2" data-name="Layer 2"><g id="OBJECTS"><path class="cls-2" d="M92.17,100.68V49.75a34.8,34.8,0,0,0-.62-8.52,8.9,8.9,0,0,0-3.69-5.49A32.7,32.7,0,0,0,79.12,32L78.91,32V22a5.42,5.42,0,0,0-.43-2.74A3.89,3.89,0,0,0,76,17.46a38.58,38.58,0,0,0-5.89-1.2A133.32,133.32,0,0,0,51.8,15.18a123.69,123.69,0,0,0-19.95,1.34,23.66,23.66,0,0,0-5.56,1.41c-2.86,1.35-1.84,3.89-1.84,5.62v8.59c-.71.22-1.43.43-2.14.68-2.83,1-6.07,2.24-8.25,4.39C9.8,41.4,11.32,49.3,11.32,54.67V95.75c0,5.3-1.79,12.35.61,17.34,1.33,2.78,5.6,4.45,8.35,5.58,9.82,4,21.15,4.92,31.66,4.92a99.33,99.33,0,0,0,26-3c5.23-1.43,12.6-3.63,14-9.74C92.75,107.75,92.17,103.84,92.17,100.68Z"/><path class="cls-3" d="M88.93,99.14V52.25a32.24,32.24,0,0,0-.57-7.84,8.22,8.22,0,0,0-3.42-5.06A30.73,30.73,0,0,0,76.86,36l-.2-.06V26.68a5,5,0,0,0-.39-2.53A3.63,3.63,0,0,0,74,22.52a35.51,35.51,0,0,0-5.45-1.09,122.8,122.8,0,0,0-16.93-1,114.4,114.4,0,0,0-18.45,1.23A21.47,21.47,0,0,0,28,23c-2.65,1.24-1.7,3.59-1.7,5.18V36c-.66.21-1.33.4-2,.63-2.62.91-5.61,2.06-7.63,4-3.94,3.86-2.53,11.13-2.53,16.08V94.6c0,4.88-1.65,11.37.56,16,1.23,2.56,5.18,4.08,7.72,5.13,9.08,3.72,19.56,4.53,29.27,4.53a92.15,92.15,0,0,0,24.09-2.81c4.84-1.32,11.65-3.34,13-9C89.46,105.64,88.93,102.05,88.93,99.14ZM68.42,33.19l-.18.2c-2.25,2.43-6,3-9.12,3.42-5.31.7-11.76.81-17-.47-2.45-.6-5-1.27-6.83-3.1-2.25-2.22.17-4.63,2.72-4.82,2.12-.16,4.35.89,6.48,1a99.47,99.47,0,0,0,11.83.34c3.3-.2,6.59-1.8,9.89-1.29C69.06,28.94,70.38,30.9,68.42,33.19Z"/><path class="cls-3" d="M76,20.65c0,3.07-10.69,5.57-23.88,5.57s-23.89-2.5-23.89-5.57,10.7-5.56,23.89-5.56S76,17.58,76,20.65Z"/><path class="cls-2" d="M17.28,49c6.51,8.63,18.82,9.57,28.87,10.43a76.63,76.63,0,0,0,23.43-1.88c5.84-1.3,14.8-2.93,17.1-9.23a2.38,2.38,0,0,0-1.08-2.64c-4.38-3.2-10.67-.65-15.42.5A77.75,77.75,0,0,1,50.1,48.68C41.7,48.5,30.45,47.37,23,43.22c-3.39-1.89-8.42,2.19-5.74,5.74Z"/><path class="cls-2" d="M17.28,105.94c6.51,8.62,18.82,9.57,28.87,10.43a77,77,0,0,0,23.43-1.88c5.84-1.3,14.8-2.93,17.1-9.23a2.39,2.39,0,0,0-1.08-2.65c-4.38-3.2-10.67-.64-15.42.5a77.32,77.32,0,0,1-20.08,2.54c-8.4-.18-19.65-1.31-27.08-5.46-3.39-1.89-8.42,2.2-5.74,5.75Z"/><path class="cls-3" d="M51.72,120.23a92.15,92.15,0,0,0,24.09-2.81c4.84-1.32,11.65-3.34,13-9,.66-2.81.13-6.4.13-9.31V52.25a32.24,32.24,0,0,0-.57-7.84,8.22,8.22,0,0,0-3.42-5.06A30.73,30.73,0,0,0,76.86,36l-.2-.06V26.68a5,5,0,0,0-.39-2.53A3.63,3.63,0,0,0,74,22.52a35.51,35.51,0,0,0-5.45-1.09,122.8,122.8,0,0,0-16.93-1,114.4,114.4,0,0,0-18.45,1.23A21.47,21.47,0,0,0,28,23l-.24.13c7.92,7.73,25.35,5.19,35,5.5a11.06,11.06,0,0,1,3.49-.1c1.73.28,2.89,1.12,3.08,2.25,0,.07.06.12.08.18.51,1.93-1.14,3.39-4,4.43a24.05,24.05,0,0,1-6.24,1.46,55.33,55.33,0,0,1-12.51.27,55.66,55.66,0,0,1-13.4-2.18,19,19,0,0,1-6.9-4.36V36c-.66.21-1.33.4-2,.63l-.79.28c14.07,13,45.32,3.39,47.67,8.09C73.74,50.1,73.74,95.7,43,101.13c-15.69,2.77-24.21-4.25-28.81-11.8V94.6c0,4.88-1.65,11.37.56,16,1.23,2.56,5.18,4.08,7.72,5.13C31.53,119.42,42,120.23,51.72,120.23Z"/><g class="cls-4"><path class="cls-5" d="M32.42,52c.08-1.3,2.19-2,4.71-1.66s4.52,1.74,4.43,3-2.19,2-4.71,1.65S32.34,53.26,32.42,52Z"/><path class="cls-5" d="M25.57,49.78c.32-.75,1.79-.75,3.3,0s2.48,2,2.16,2.72-1.8.74-3.3,0S25.25,50.53,25.57,49.78Z"/></g><path class="cls-2" d="M30.25,109c.08-1.3,2.19-2,4.71-1.66s4.51,1.74,4.43,3-2.19,2-4.71,1.65S30.17,110.26,30.25,109Z"/><path class="cls-2" d="M23.4,106.78c.32-.75,1.79-.75,3.3,0s2.47,2,2.16,2.72-1.8.74-3.31,0S23.08,107.53,23.4,106.78Z"/><g class="cls-4"><path class="cls-5" d="M48,33.62c-.07-1.3,1.94-2.27,4.49-2.18s4.68,1.21,4.75,2.51-1.95,2.27-4.5,2.18S48.05,34.91,48,33.62Z"/><path class="cls-5" d="M40.93,32.22c.23-.78,1.7-.95,3.28-.37s2.68,1.68,2.45,2.46-1.7.94-3.28.36S40.7,33,40.93,32.22Z"/></g><path class="cls-2" d="M79.13,31.92s-.3.37-.89.9a29.09,29.09,0,0,1-2.58,2.11l-.94.59-1,.5c-.72.33-1.47.7-2.26,1a53,53,0,0,1-5.12,1.77,49.83,49.83,0,0,1-10,1.8c-1.38.15-2.54.15-3.35.18l-1.27,0s-.46,0-1.26-.06-2-.08-3.31-.19a73.52,73.52,0,0,1-10-1.37,29.39,29.39,0,0,1-9.41-3.64,15,15,0,0,1-2.57-2.13c-.52-.61-.8-1-.76-1a36.65,36.65,0,0,0,3.66,2.6,30.86,30.86,0,0,0,9.3,3.06,76.74,76.74,0,0,0,9.84,1c1.36.07,2.47.07,3.26.1l1.23,0H53c.79,0,1.92,0,3.26-.08A51,51,0,0,0,66,37.73c1.77-.39,3.47-1,5.09-1.51l2.26-.9,1-.43.91-.49c1.14-.7,2.06-1.39,2.72-1.84S79.09,31.87,79.13,31.92Z"/><path class="cls-3" d="M89,109c0,6.3-16.71,11.4-37.32,11.4S14.39,115.3,14.39,109,31.1,97.6,51.71,97.6,89,102.71,89,109Z"/><path class="cls-6" d="M53.31,26.45c.88.11,1.74.16,2.59.19,3-.23,6-.75,9-.94,10.34-5,13.5-15.29,13.5-18,0-3.58-12-6.48-26.84-6.48S24.67,4.14,24.67,7.72c0,2.74,3.38,13.43,14.76,18.26A109.14,109.14,0,0,1,53.31,26.45Z"/><path class="cls-7" d="M53.31,26.45c.88.11,1.74.16,2.59.19,3-.23,6-.75,9-.94,10.34-5,13.5-15.29,13.5-18,0-1.55-2.26-3-6-4.09a1.44,1.44,0,0,1,.13.6c0,3.14-4.92,18.19-23.07,18.19-16.51,0-22.52-11.21-23.86-16.3a2.3,2.3,0,0,0-.86,1.6c0,2.74,3.38,13.43,14.76,18.26A109.14,109.14,0,0,1,53.31,26.45Z"/><path class="cls-8" d="M76.25,7.76c0,3.1-11,5.62-24.45,5.62S27.35,10.86,27.35,7.76,38.3,2.14,51.8,2.14,76.25,4.65,76.25,7.76Z"/><path class="cls-6" d="M68.41,22c2.2-1.72,3.34-3.91,2.53-4.89s-3.25-.38-5.46,1.34-3.34,3.91-2.54,4.89S66.2,23.67,68.41,22Z"/><path class="cls-6" d="M56.6,26.58c1.26-.12,2.51-.27,3.77-.42,1.16-.54,1.92-1.31,1.8-2-.16-.81-1.68-1.09-3.4-.62s-3,1.52-2.83,2.33A1,1,0,0,0,56.6,26.58Z"/><path class="cls-6" d="M42.66,5c-.06,1.15-2.63,2.51-5.76,3s-5.6,0-5.54-1.13,2.64-2.51,5.76-3S42.72,3.89,42.66,5Zm5.43-1.2c-1.78-.32-3.62,0-4.1.77s.58,1.6,2.36,1.92,3.62,0,4.09-.77S49.87,4.15,48.09,3.84Z"/><path class="cls-9" d="M77.09,6.94s-.27.34-.83.82a16.32,16.32,0,0,1-2.48,1.82,33.07,33.07,0,0,1-8.55,3.72L62.77,14c-.81.18-1.63.31-2.41.47-1.56.34-3,.43-4.32.6s-2.33.15-3.08.2l-1.17.06s-1.69,0-4.23-.18l-2-.21-1.11-.12-1.15-.19-2.41-.41-2.45-.59a35.38,35.38,0,0,1-8.64-3.38A15.3,15.3,0,0,1,27.2,8.52c-.58-.44-.9-.72-.87-.76s.42.14,1.06.49a22,22,0,0,0,2.66,1.39,38.3,38.3,0,0,0,8.61,2.82l2.42.48,2.36.31,1.13.15,1.09.07,2,.14c2.47.07,4.12.06,4.12.06l1.14,0c.72,0,1.76,0,3-.11s2.7-.16,4.23-.44c.76-.12,1.56-.21,2.37-.36l2.41-.54A35.73,35.73,0,0,0,73.46,9a22.21,22.21,0,0,0,2.6-1.53A3.63,3.63,0,0,1,77.09,6.94Z"/><path class="cls-9" d="M71,3.42A5.63,5.63,0,0,1,69.59,3a24.58,24.58,0,0,0-3.75-1.06A56,56,0,0,0,54,1.24c-4.36.14-8.73.1-11.95.28A52.67,52.67,0,0,0,36.73,2s-.54,0-1.45.21a25.47,25.47,0,0,0-3.7.87,11.81,11.81,0,0,0-4.53,2.52A4.52,4.52,0,0,0,25.75,8,7.24,7.24,0,0,0,25.9,11a18.56,18.56,0,0,0,2.6,5.57,39.23,39.23,0,0,0,3.33,4.36c2.12,2.44,3.8,3.8,3.73,3.89a17.41,17.41,0,0,1-4.19-3.46A35.91,35.91,0,0,1,27.75,17a19.35,19.35,0,0,1-3-5.8,8.32,8.32,0,0,1-.27-3.45A5.85,5.85,0,0,1,26.1,4.7a12.89,12.89,0,0,1,5-3,27.19,27.19,0,0,1,3.9-1C36,.5,36.5.43,36.5.43A54.51,54.51,0,0,1,42,0c3.31-.1,7.65.06,12,.07A51.31,51.31,0,0,1,66,1.29a19.66,19.66,0,0,1,3.74,1.38A5.52,5.52,0,0,1,71,3.42Z"/><path class="cls-2" d="M78.63,19.88c0,.05-.3.32-.9.77l-1.1.79c-.45.28-1,.56-1.52.88a18.12,18.12,0,0,1-1.87.92c-.67.3-1.38.65-2.13.94L68.75,25c-.8.29-1.65.44-2.48.67a48.25,48.25,0,0,1-9.38,1.27c-1.3.08-2.37.08-3.12.07H52.59s-.43,0-1.17-.06l-3.08-.2c-2.52-.17-5.93-.33-9.32-.79A46.47,46.47,0,0,1,34.08,25a23.6,23.6,0,0,1-4.14-1.49,17.3,17.3,0,0,1-1.54-.87c-.43-.31-.81-.57-1.09-.82-.55-.52-.83-.83-.79-.87a26,26,0,0,0,3.67,2,32.68,32.68,0,0,0,9,1.87c3.35.31,6.72.35,9.27.45l3.06.1c.73,0,1.15,0,1.15,0l1.16,0c.74,0,1.79.06,3.05,0a49.41,49.41,0,0,0,9.18-.9c.82-.19,1.66-.29,2.45-.54l2.33-.67c.75-.25,1.45-.55,2.13-.79a19,19,0,0,0,1.89-.78L76.39,21l1.16-.64A3.54,3.54,0,0,1,78.63,19.88Z"/><path class="cls-10" d="M42.24,83.1s-16.41-1-13.82-17.53C28.42,65.57,43.1,68.2,42.24,83.1Z"/><path class="cls-11" d="M36.28,69.21a10.45,10.45,0,0,1,2.41,5.66l-3.89-2.6L37,78.47l-4.11-4.25s2.6,4.32,0,3.67c-1.51-.38-3.15-3-4.32-5.37C30.79,82.4,42.24,83.1,42.24,83.1,42.65,76.08,39.61,71.79,36.28,69.21Z"/><path class="cls-12" d="M32.47,69.14l4.38,1.94-2.78-3.33a20.24,20.24,0,0,0-5.65-2.18,17.4,17.4,0,0,0,.44,8.14l.37-2.3L31,74.33l-1-4.22,4.4,4.22Z"/><path class="cls-10" d="M55,97.79s-13.41,9.52-21.75-5C33.25,92.8,46.34,85.65,55,97.79Z"/><path class="cls-11" d="M41.65,90.71a10.35,10.35,0,0,1,5.42,2.9L42.42,94,48,97.49l-5.86-.73s4.73,1.74,2.3,2.86c-1.41.65-4.34-.37-6.73-1.48,8,6.28,17.31-.35,17.31-.35C50.92,92.07,45.86,90.63,41.65,90.71Z"/><path class="cls-12" d="M38.64,93l4.63-1.23L39,91a20.21,20.21,0,0,0-5.77,1.85,17.16,17.16,0,0,0,5.45,6.06l-1.16-2L40.76,98l-3.4-2.67,6.07.53Z"/><path class="cls-10" d="M41.73,66.7S28.5,57.26,39.34,44.77C39.34,44.77,50.26,54.67,41.73,66.7Z"/><path class="cls-11" d="M44,51.94a10.25,10.25,0,0,1-.94,6l-1.9-4.21-1.44,6.32-1.21-5.71s-.1,5-1.93,3.08c-1.06-1.11-1.06-4.18-.8-6.77C32.5,60.11,41.73,66.7,41.73,66.7,45.74,61,45.45,55.85,44,51.94Z"/><path class="cls-12" d="M40.86,49.89l2.65,3.92-.58-4.25a19.6,19.6,0,0,0-3.59-4.79,17.2,17.2,0,0,0-3.9,7L37,50.09l0,3.37,1.4-4,1.47,5.83Z"/><path class="cls-10" d="M56.09,80.13s10.19-12.66-3.62-21.76C52.47,58.37,44.63,70.86,56.09,80.13Z"/><path class="cls-11" d="M49.91,66.54a10.23,10.23,0,0,0,2.53,5.52l.69-4.57,3.09,5.7-.38-5.83s1.44,4.77,2.69,2.44c.73-1.35-.1-4.31-1.05-6.72,5.72,8.21-1.39,17-1.39,17C50.7,75.77,49.58,70.69,49.91,66.54Z"/><path class="cls-12" d="M52.38,63.71,50.89,68.2,50.3,64a19.78,19.78,0,0,1,2.17-5.58,17.19,17.19,0,0,1,5.66,5.74L56.2,62.85l.94,3.24-2.43-3.51.16,6Z"/><path class="cls-10" d="M66,98.05s10.19-12.66-3.62-21.76C62.38,76.29,54.54,88.77,66,98.05Z"/><path class="cls-11" d="M59.81,84.45A10.26,10.26,0,0,0,62.34,90L63,85.4l3.09,5.7-.38-5.82s1.44,4.77,2.69,2.44c.72-1.35-.11-4.31-1.06-6.73C73.1,89.21,66,98.05,66,98.05,60.6,93.68,59.49,88.6,59.81,84.45Z"/><path class="cls-12" d="M62.29,81.62l-1.49,4.5-.59-4.25a19.61,19.61,0,0,1,2.17-5.58A17,17,0,0,1,68,82L66.1,80.76l1,3.24-2.43-3.51.15,6Z"/><path class="cls-13" d="M72.68,107.16c-.74-.6-1.84-1.37-3.06-2.44-1-.76-2-1.65-3.05-2.63a12.6,12.6,0,0,0,.85-3.94,24,24,0,0,0-.14-3.21c-.1-.86-.18-1.44-.18-1.44s-.6-2.25-1.39-4.4-1.57-4.26-1.8-4.21.14,2.33.62,4.55.87,4.41.87,4.41l.3,1.34a26.46,26.46,0,0,1,.49,3,23.65,23.65,0,0,1,0,3.53c-1.67-1.55-3.43-3.31-5.13-5.12-1.46-1.55-2.84-3.17-4.1-4.72,0-.35-.08-.77-.11-1.27a37.57,37.57,0,0,1,0-4.66c.1-1.7.24-3.4.35-4.69s.16-2.15.16-2.15,0-.88,0-2.19a35.13,35.13,0,0,0-.4-4.83,14.22,14.22,0,0,0-1.51-4.64,6.17,6.17,0,0,0-.91-1.32c-.25-.3-.41-.45-.46-.41s0,.25.17.6a10.56,10.56,0,0,1,.59,1.41,16.35,16.35,0,0,1,.9,4.51,40.67,40.67,0,0,1,0,4.66c-.08,1.29-.13,2.14-.13,2.14s0,.86,0,2.14,0,3,0,4.76a25.35,25.35,0,0,0,.57,4.77c0,.1.05.19.07.28-1-1.26-1.9-2.47-2.68-3.53-1.84-2.64-3-4.44-3-4.44s-.29-.45-.78-1.24-1.26-1.89-2-3.3-1.72-3-2.53-4.83c-.42-.91-.92-1.82-1.29-2.8l-1.18-3c-.39-1-.66-2-1-3l-.47-1.49c-.11-.5-.23-1-.34-1.48-.21-1-.46-1.91-.62-2.81S40.07,57.3,40,56.5a35.19,35.19,0,0,1-.3-3.86,5.12,5.12,0,0,0-.18-1.48,4.8,4.8,0,0,0-.17,1.48,23.63,23.63,0,0,0,0,3.92c.07.82.14,1.7.21,2.63s.32,1.89.5,2.9c.09.5.18,1,.28,1.53s.27,1,.41,1.53c.3,1,.53,2.1.89,3.12l1.1,3.06c.35,1,.83,2,1.22,2.9.77,1.89,1.71,3.55,2.45,5s1.5,2.59,2,3.42.76,1.28.76,1.28.68,1,1.82,2.59c-.9-.6-2.46-1.51-4-2.38-1.23-.7-2.45-1.41-3.33-2l-1.46-1s-.6-.35-1.47-.91a22.69,22.69,0,0,1-3-2.34A15.81,15.81,0,0,1,35.23,75c-.54-.88-.85-1.53-1-1.49s0,.76.38,1.79a12.91,12.91,0,0,0,2.11,3.47,21.2,21.2,0,0,0,2.94,2.79c.88.67,1.48,1.09,1.49,1.09s.62.37,1.58.87,2.27,1.12,3.58,1.68a49.82,49.82,0,0,0,5.06,2l.87,1.19A94.15,94.15,0,0,0,59.71,97c-.81,0-2.19.08-3.58.09-1.06,0-2.1,0-2.88-.14L52,96.82l-1.31-.08c-.79,0-1.81-.2-2.87-.33-2.07-.36-4.13-1-4.23-.76s1.83,1.26,3.94,1.95a23.67,23.67,0,0,0,3,.72l1.37.23h1.39a28,28,0,0,0,3-.24,18.52,18.52,0,0,0,3.84-1l.08.08a76,76,0,0,0,9.07,7.82,36.77,36.77,0,0,0,3.27,2.2,5.31,5.31,0,0,0,1.32.71A5.38,5.38,0,0,0,72.68,107.16Z"/><path class="cls-13" d="M78.18,89.73s-6.25-16.56-1.9-16.83,3,15.75,3,15.75,2.45-11.13,4.07-9.23S79.8,90,79.8,90l3,9.77Z"/><path class="cls-13" d="M25.55,91.3s-5-13.19-1.52-13.41,2.38,12.55,2.38,12.55,1.95-8.87,3.25-7.36-2.82,8.44-2.82,8.44l2.38,7.79Z"/><path class="cls-13" d="M67,65.88s5-13.19,1.51-13.41S66.11,65,66.11,65s-1.94-8.86-3.24-7.35,2.81,8.44,2.81,8.44L63.3,73.88Z"/><path class="cls-13" d="M25.72,54.92s-8.53,11.23-5.28,12.42S26.3,56,26.3,56s-.66,9,1,8S27,55.08,27,55.08l4.5-6.78Z"/><path class="cls-13" d="M70.94,111.18s13.65-3.55,11.83-6.5S71.15,110,71.15,110s6.12-6.7,4.13-6.89S70,110.24,70,110.24l-7.74,2.55Z"/><path class="cls-13" d="M34.7,105.2s17.55,2.26,15.75,6.22-15.3-4.76-15.3-4.76,8.67,7.39,6.23,7.93-7.69-8.08-7.69-8.08l-10-2Z"/><path class="cls-3" d="M78.35,34.34A12.06,12.06,0,0,1,76.14,36h0l-.55.32a44.45,44.45,0,0,1-4.41,2l-.63.27h0a6.44,6.44,0,0,1-.61.24l-1.32.39-1.33.4-1.38.28a48,48,0,0,1-6.31.84l-.71.05-1.49.07h-.33l-1.49,0h-.94l.74-.09h0l.73-.09h0l.83-.1c.66-.08,1.38-.19,2.13-.33h0c.52-.09,1.06-.19,1.61-.31l.66-.09c.85-.19,1.72-.3,2.55-.56l2.65-.87h0l.28-.09h0l.45-.14c1-.32,2-.67,2.95-1.06s1.85-.71,2.64-1.08c.58-.3,1.12-.57,1.57-.85s.83-.55,1.12-.79l.14-.13c.39-.29.77-.58,1.11-.88A8.7,8.7,0,0,0,79,30.62c.37-.79.41-1.3.32-1.33s-1,1.68-3.3,3.15c-.26.18-.53.34-.82.51l-.25.14c-.22.12-.44.24-.67.35l-.28.14c-.31.15-.63.29-1,.43h0c-.59.25-1.21.48-1.85.7l-.13.05h0c-1.21.42-2.5.79-3.82,1.11h0l-.25.06-.35.09a62.45,62.45,0,0,1-9.25,1.56h0l-.23,0-.56,0-3.35.22H52L50.72,38l-1.55.1h0l-.68,0h0l-1.12,0a63.88,63.88,0,0,1-10.13-.42,16.67,16.67,0,0,1-2-.32l-.68-.14h0l-.27-.08h0c-.74-.19-1.47-.42-2.18-.66a14.61,14.61,0,0,1-1.56-.66h0L30,35.56h0c-.74-.39-1.41-.81-2-1.21l-.39-.28h0c-2-1.45-3.27-2.6-3.44-2.43s.79,1.51,2.64,3.3h0l.42.4c.34.31.73.62,1.14.93A15.15,15.15,0,0,0,30.71,38c-.49-.21-.95-.42-1.4-.64-.18-.09-.37-.18-.54-.28a18.72,18.72,0,0,1-2-1.19h0l-.29-.2c-2.32-1.6-3.54-3.1-3.76-2.94s.75,1.9,3,3.93a18.66,18.66,0,0,0,2,1.57h0l.09.07a26,26,0,0,0,3.39,2h0l.5.24h0a30.81,30.81,0,0,0,3.58,1.38,46.51,46.51,0,0,0,10.68,2c.59.05,1.13.08,1.64.1h0l1.92.06,1.34,0s1,0,2.78-.11h0l.6,0h.16l1.32-.08c.52,0,1.07-.08,1.64-.13h0l.34,0a56.53,56.53,0,0,0,6.17-1h0l.42-.09c.73-.17,1.46-.35,2.19-.56l1.43-.41,1-.41.31-.12h0l0,0,1.36-.53c.44-.2.85-.45,1.27-.66a40.11,40.11,0,0,0,3.69-2.17h0l.64-.45c.28-.2.54-.41.78-.61l.38-.34.25-.24c.16-.15.3-.3.44-.45l.07-.08c.15-.17.29-.34.41-.5h0l.25-.36c.49-.75.58-1.27.5-1.31S79,33.79,78.35,34.34Z"/><path class="cls-9" d="M78.35,33.08A12.59,12.59,0,0,1,75.59,35a46.75,46.75,0,0,1-4.41,2c-.41.16-.81.36-1.24.5l-1.32.39-1.33.4-1.38.28a54.51,54.51,0,0,1-10.33,1h-.94l2.3-.28A57.87,57.87,0,0,0,67.29,37c3.64-1.16,7.29-2.78,9.53-4.79A8.7,8.7,0,0,0,79,29.35c.37-.79.41-1.3.32-1.32s-1,1.67-3.3,3.15a30.46,30.46,0,0,1-9.4,3.59,62.78,62.78,0,0,1-10,1.62l-3.35.23H52l-1.27.07c-.81,0-2,.15-3.35.15a65.2,65.2,0,0,1-10.13-.43,20.72,20.72,0,0,1-5.15-1.2A19.17,19.17,0,0,1,28,33.09c-2.25-1.58-3.65-2.89-3.83-2.71s.92,1.72,3.06,3.7a17.83,17.83,0,0,0,4.16,2.79c.71.33,1.47.64,2.24.92a26.15,26.15,0,0,1-7.15-3.39c-2.32-1.59-3.54-3.1-3.76-2.94s.75,1.9,3,3.93a26.26,26.26,0,0,0,9.55,5.22,46.44,46.44,0,0,0,10.68,2c1.48.12,2.73.16,3.57.18l1.34,0s2,0,4.89-.24a51.94,51.94,0,0,0,10.76-1.76l1.43-.41,1.4-.54,1.36-.54c.44-.19.85-.45,1.27-.66a33.8,33.8,0,0,0,4.34-2.62,9.89,9.89,0,0,0,2.58-2.58c.49-.75.58-1.27.5-1.3S79,32.53,78.35,33.08Z"/><path class="cls-14" d="M35.21,36.16l0-.06L34.54,36l-.59.61s-.42.41-1,1l.66.25c.52-.42.85-.72.85-.72Z"/><path class="cls-14" d="M27.22,34.08h0c.25-.28.52-.61.79-1l0,0-.39-.29c-.28.33-.55.62-.8.87Z"/><path class="cls-14" d="M29,35.5l.56.37c.18-.23.55-.72,1-1.32L30,34.29C29.56,34.88,29.16,35.34,29,35.5Z"/><path class="cls-14" d="M33.57,37.77l-.69-.22c-.48.42-1.08.94-1.72,1.42v0l.5.23C32.38,38.72,33.06,38.19,33.57,37.77Z"/><path class="cls-14" d="M69.94,37.55l-.22.07c-.22.47-.37.76-.37.76s-.4.82-1,1.89l.94-.36c.44-.72.7-1.22.7-1.22s.25-.52.58-1.33l0,0A6.44,6.44,0,0,1,69.94,37.55Z"/><path class="cls-14" d="M40.19,41.08l.74-.77a16,16,0,0,0,1.48-1.81,13.33,13.33,0,0,0,.92-1.65H43A14.72,14.72,0,0,1,42,38.22a17.11,17.11,0,0,1-1.53,1.65l-.75.7-.78.66-.36.3.76.18Z"/><path class="cls-14" d="M26.76,34.6l-.29-.2a2.61,2.61,0,0,1-.27-.19l-.25.22s-.26.24-.67.57l.4.39.07,0c.39-.28.65-.5.65-.5Z"/><path class="cls-14" d="M75.59,35l-.22.12-.11.42a3.73,3.73,0,0,1-.11.36l-.45,1.21c.32-.19.63-.4.93-.6.1-.25.17-.4.17-.4s0-.14.09-.38l.24-1a0,0,0,0,1,0,0Z"/><path class="cls-14" d="M55.58,39.63h-.24l-.22.39-.87,1.62-.65,1.09.79,0,.45-.72s.34-.66.84-1.66c.12-.21.23-.45.35-.69Z"/><path class="cls-14" d="M29.38,36.1l-.62-.31c-.22.26-.62.7-1.09,1.18l.47.31C28.73,36.77,29.19,36.3,29.38,36.1Z"/><path class="cls-14" d="M60.38,36.17,59.07,39l.78-.15,1-2.54c0-.15.09-.3.13-.45l-.5.08A1.67,1.67,0,0,0,60.38,36.17Z"/><path class="cls-14" d="M57.92,42.42l.09-.13c.75-1.32,1.49-2.62,1.6-2.83l-.78,0c-.25.53-.74,1.53-1.24,2.54l-.24.42Z"/><path class="cls-14" d="M66.19,37.11a1.13,1.13,0,0,1-.08.22l.73-.23a11,11,0,0,0,.41-2.49l-.53.14A10.06,10.06,0,0,1,66.19,37.11Z"/><path class="cls-14" d="M65.48,40.12a11.1,11.1,0,0,0,.76-1.35l.1-.23-.43.08-.39.08a8.92,8.92,0,0,1-.58,1.1,19.89,19.89,0,0,1-1.08,1.69l.81-.18C65,40.89,65.26,40.49,65.48,40.12Z"/><path class="cls-14" d="M75.84,33c.21-.15.4-.31.59-.47l.06-.86c0-.25,0-.49,0-.72l-.39.28,0,0v.4C76,32.06,75.9,32.52,75.84,33Z"/><path class="cls-14" d="M44,42.41a21.28,21.28,0,0,0,2.4-2l1-1,.84-1.16a10.13,10.13,0,0,0,.94-1.43l-.68,0a9.52,9.52,0,0,1-.76,1l-.86,1.09s-.38.4-.94,1A21.41,21.41,0,0,1,43.69,42l-.46.34.69.09Z"/><path class="cls-14" d="M56.11,39.45c.39-.86.79-1.88,1.22-2.89,0-.08.05-.16.07-.23l-.52,0h0c-.53,1.13-1,2.26-1.5,3.16Z"/><path class="cls-14" d="M50.42,40.93c.6-.58,1-1,1-1l.24-.3c.15-.2.38-.46.61-.82a13.73,13.73,0,0,0,1.3-2.21l-.29,0H53a14,14,0,0,1-1.21,1.82,9.62,9.62,0,0,1-.62.76l-.24.28s-.35.42-.91,1-1.36,1.34-2.19,2.06l-.24.2.72,0A28.17,28.17,0,0,0,50.42,40.93Z"/><path class="cls-14" d="M70.46,35.82l.66-.27c.11-.4.21-.82.29-1.24s.09-.65.12-1l-.46.16c0,.24-.08.48-.14.72A15.66,15.66,0,0,1,70.46,35.82Z"/><path class="cls-14" d="M76.41,32.32s-.06.09-.2.24l-.64.62c-.29.24-.68.49-1.12.79s-1,.55-1.57.85a92.21,92.21,0,0,1-9,3.25c-.83.25-1.7.37-2.55.55s-1.68.24-2.49.36l-4.4.56c-2.58.32-4.32.45-4.32.45s-1.74.13-4.35.15A37,37,0,0,1,36.28,39a19.1,19.1,0,0,1-8.41-4.47l-1.19-1.33a8.29,8.29,0,0,1-.8-1.11l-.48-.75q-.16-.26-.15-.27a1.76,1.76,0,0,1,.21.24L26,32a9.16,9.16,0,0,0,.84,1.06l1.23,1.26a18.85,18.85,0,0,0,8.34,4.2,37,37,0,0,0,9.38.95c2.58,0,4.3-.2,4.3-.2s1.72-.11,4.3-.39l4.41-.51c.8-.1,1.63-.18,2.47-.3s1.69-.27,2.51-.51c3.27-1,6.64-2,9-3,.58-.27,1.12-.53,1.58-.78s.84-.51,1.14-.73l.67-.56C76.31,32.38,76.4,32.31,76.41,32.32Z"/><path class="cls-7" d="M45.91,42.64c1.48.12,2.73.16,3.57.18l1.34,0s2,0,4.89-.24a51.94,51.94,0,0,0,10.76-1.76l1.43-.41,1.4-.54,1.36-.54c.44-.19.85-.45,1.27-.66a33.8,33.8,0,0,0,4.34-2.62,10.91,10.91,0,0,0,2.33-2.22c-2.4,2.1-7.42,5.27-17.07,7.2-15.38,3.08-28.68-1.35-29.68-2.26s-4.52-3.35,2.54,0c6.07,2.88,20,1.41,24.66.71-1.25.08-2.42.11-3.47.13h-.94l2.3-.28A57.87,57.87,0,0,0,67.29,37c3.64-1.16,7.29-2.78,9.53-4.79A8.7,8.7,0,0,0,79,29.35c.37-.79.41-1.3.32-1.32s-1,1.67-3.3,3.15a17.84,17.84,0,0,1-3,1.58c-1.59,1.43-5.3,2.89-9.53,4.13-6.15,1.81-13.12,2.26-21.9,1.18a23.11,23.11,0,0,1-7.35-2.19c-.74-.2-1.47-.42-2.18-.67A19.17,19.17,0,0,1,28,33.09c-2.25-1.58-3.65-2.89-3.83-2.71s.92,1.72,3.06,3.7a17.83,17.83,0,0,0,4.16,2.79c.71.33,1.47.64,2.24.92a26.15,26.15,0,0,1-7.15-3.39c-2.32-1.59-3.54-3.1-3.76-2.94s.75,1.9,3,3.93a26.26,26.26,0,0,0,9.55,5.22A46.44,46.44,0,0,0,45.91,42.64Z"/><path class="cls-9" d="M30.78,32.3a8.92,8.92,0,0,1-1.77,1,4.64,4.64,0,0,1-2.66.18,7.89,7.89,0,0,1-2.72-1.58c-.27-.23-.52-.47-.77-.71.11.09.2.14.21.12s-1.15-1.63-2.8-4.07a47,47,0,0,1-5-9.47,22.75,22.75,0,0,1-1.34-5.44,12.38,12.38,0,0,1,.36-4.67A15.81,15.81,0,0,1,15,5.93a8.59,8.59,0,0,1,.75-1.17c.46-.59.7-.68.7-.68s.2-.17.37-.09a4.56,4.56,0,0,1,1.59,2.28A31.77,31.77,0,0,1,19.89,11c.26.89.39,1.81.59,2.75s.33,1.9.46,2.87c.51,3.9.91,7.83,1.18,10.81a9.51,9.51,0,0,0,1,3.53A2.9,2.9,0,0,0,24,32c.08-.06-.19-.48-.48-1.27a10.51,10.51,0,0,1-.58-3.43c0-2.95-.21-6.93-.54-10.9-.09-1-.18-2-.35-3s-.27-2-.49-2.87a33.73,33.73,0,0,0-1.44-5c-.61-1.43-1.23-2.75-2.54-3.4a2.23,2.23,0,0,0-1.72,0,2.94,2.94,0,0,0-.51.24A4.75,4.75,0,0,0,14.1,3.56,10.71,10.71,0,0,0,13.22,5a15.51,15.51,0,0,0-.76,2.08,14.07,14.07,0,0,0-.23,5.39,22.81,22.81,0,0,0,1.68,5.76,41.93,41.93,0,0,0,5.72,9.41c.44.55.85,1,1.23,1.46-.59-.62-1.15-1.23-1.67-1.73a18.16,18.16,0,0,0-2.25-2,5.69,5.69,0,0,0-.71-.45,13.83,13.83,0,0,0-2-1,13,13,0,0,0-3-.82,11.82,11.82,0,0,0-3.6.11A11.92,11.92,0,0,0,4.3,24.55a13.12,13.12,0,0,0-2.44,1.82A7.23,7.23,0,0,0,0,28.66a25.59,25.59,0,0,0,2.25-1.8,13.83,13.83,0,0,1,2.46-1.51,11.75,11.75,0,0,1,3.1-.94A10.6,10.6,0,0,1,11,24.5a11.3,11.3,0,0,1,2.65.86,11.73,11.73,0,0,1,1.73,1,5.87,5.87,0,0,1,.63.42,17.44,17.44,0,0,1,2.15,1.74c1.17,1,2.62,2.57,4.34,3.95a12.43,12.43,0,0,0-3.46,1.34,24.78,24.78,0,0,0-6.87,6.53c-.54.67-1,1.36-1.55,1.93A16.91,16.91,0,0,1,9,43.86a9,9,0,0,1-3.34,2c-1,.23-1.35-.08-1.61-.5a2.86,2.86,0,0,1-.25-.56,2.14,2.14,0,0,1-.07-.23,8.09,8.09,0,0,1-.21-1,6,6,0,0,1,.18-2.66c.6-2.2,2.9-4.76,5.75-6.45a18.17,18.17,0,0,1,8.64-2.72,14.59,14.59,0,0,1,4.12.67s-.29-.37-1-.7a8.83,8.83,0,0,0-3.11-.77,17.93,17.93,0,0,0-9.38,2.27c-3.13,1.64-5.89,4.31-6.82,7.12a7.87,7.87,0,0,0-.37,3.48,7.64,7.64,0,0,0,.23,1.32,3.25,3.25,0,0,0,.12.35,4.12,4.12,0,0,0,.49,1,3,3,0,0,0,1.47,1.21,3.55,3.55,0,0,0,2.3,0,10.62,10.62,0,0,0,4-2.51,16.27,16.27,0,0,0,1.74-1.86c.57-.7,1-1.41,1.51-2.09a26.5,26.5,0,0,1,6.15-6.71c.25-.17.48-.32.72-.46A12,12,0,0,0,19,35.7a26.19,26.19,0,0,0-2.28,4.77c-.34.9-.66,1.85-.93,2.84a9.41,9.41,0,0,0-.33,3.23c.17,2.25,1.26,4.17,1.93,5.86A8.89,8.89,0,0,1,18.1,57,7.53,7.53,0,0,1,17,60a6.21,6.21,0,0,1-.54.78l-.2.26-.2.27-.63.74a29.48,29.48,0,0,1-2.57,2.45c-1.14,1-2.55,2-4,3.28A26.23,26.23,0,0,0,4.49,72.2a14.69,14.69,0,0,0-2.64,5.6,12.93,12.93,0,0,0-.05,5.36,16.31,16.31,0,0,0,.54,2c.24.59.43,1.1.63,1.5.42.8.68,1.24.75,1.21S2.92,86,2.58,83a12.85,12.85,0,0,1,.38-5,13.47,13.47,0,0,1,2.67-5c2.48-3,6-5.14,8.37-7.1a30.64,30.64,0,0,0,2.84-2.53l.74-.82.24-.31.23-.31a7.77,7.77,0,0,0,.61-.94,9,9,0,0,0,1.17-6.57,13.6,13.6,0,0,0-.94-2.78c-.81-1.8-1.83-3.49-2-5.33A7.9,7.9,0,0,1,17,43.62c.21-.95.47-1.88.75-2.78a29.54,29.54,0,0,1,1.89-4.75,9,9,0,0,1,2.09-2.84,3,3,0,0,1,.36-.25l.71-.33.12.1a8.36,8.36,0,0,0,3.23,1.56,5.17,5.17,0,0,0,3.11-.48A6.75,6.75,0,0,0,31,32.55c.35-.37.54-.59.5-.63S31.19,32,30.78,32.3Z"/><path class="cls-14" d="M15.9,20.9s.17.91.36,1.79a1.89,1.89,0,0,1,0,.23l.47.76c0-.31,0-.69,0-1.06-.08-.84-.15-1.66-.16-1.78-.25-.52-.49-1-.72-1.58A14.9,14.9,0,0,0,15.9,20.9Z"/><path class="cls-14" d="M14.81,37.23c-.24.25-.49.52-.73.79l-.66,2s-.24.82-.52,1.83l.44-.63c.24-.35.48-.69.73-1l.71-2.7Z"/><path class="cls-14" d="M16.93,40.19a10,10,0,0,0,.35,1.55l.1.36c.1-.36.2-.71.31-1.06-.1-.29-.19-.61-.29-.94a5.52,5.52,0,0,1-.18-1c-.11.27-.22.54-.32.81A1.43,1.43,0,0,0,16.93,40.19Z"/><path class="cls-14" d="M20.86,32l.32.08c-.08-.15-.18-.33-.29-.55l-.52-.2A7.36,7.36,0,0,0,20.86,32Z"/><path class="cls-14" d="M18.32,57.6,18,57.3a5.74,5.74,0,0,1-.18.79c.15.16.77.79,1.53,1.49a5.84,5.84,0,0,0,.2-.59C18.87,58.22,18.32,57.6,18.32,57.6Z"/><path class="cls-14" d="M7.34,35.87l.49-.37a10.11,10.11,0,0,0-.94-.69l-.47-.22c-.19.14-.36.29-.54.43l.68.38S6.9,35.58,7.34,35.87Z"/><path class="cls-14" d="M6.35,45.57a4,4,0,0,1-.73.25l-.07,0-.09.25A11.48,11.48,0,0,0,5,47.82a4.93,4.93,0,0,0,.54,0,11.56,11.56,0,0,1,.48-1.47C6.2,46,6.3,45.69,6.35,45.57Z"/><path class="cls-14" d="M10.51,42.36a11.1,11.1,0,0,1-.83.85c-.12.48-.19.82-.19.82s-.1.76-.14,1.74l.64-.55c.09-.64.17-1.08.17-1.08S10.28,43.34,10.51,42.36Z"/><path class="cls-14" d="M10,33s-.16-.12-.42-.28l-.66.33a6.16,6.16,0,0,1,.66.49s.25.17.59.45c.19-.1.37-.21.56-.3A9,9,0,0,0,10,33Z"/><path class="cls-14" d="M14.33,31.16c-.29.06-.58.11-.87.18a13.76,13.76,0,0,1,1.3.83l.56-.13-.18-.19A9.63,9.63,0,0,0,14.33,31.16Z"/><path class="cls-14" d="M11.64,23.92l.59.89c.3.09.58.19.85.3l-.88-1.57L12,23.31c-.25-.06-.52-.1-.79-.14h-.11Z"/><path class="cls-14" d="M15.59,64.21,15.19,63a4.88,4.88,0,0,0-.18-.54l-.49.48c0,.09.06.17.08.25l.33,1.17s.06.26.17.69c.19-.17.39-.33.56-.49C15.62,64.35,15.59,64.21,15.59,64.21Z"/><path class="cls-14" d="M19.21,8.57c.2-.45.35-.75.35-.75l.74-1.73c-.07-.18-.13-.37-.2-.54L20,5.4c-.6,1.1-1.1,2.14-1.1,2.14l-.05.1C19,7.94,19.11,8.25,19.21,8.57Z"/><path class="cls-14" d="M17.85,61.76s-.26-.93-.68-2.09L17,60l-.18.29c.26.92.42,1.6.42,1.6l.23.89.16-.18.24-.31.12-.16C17.88,61.92,17.85,61.76,17.85,61.76Z"/><path class="cls-14" d="M5.94,24.47l.48.25a7.54,7.54,0,0,1,.82-.2c-.54-.39-1-.65-1-.65L6,23.76c-.26.09-.51.2-.76.31Z"/><path class="cls-14" d="M18.15,52.94l-.64-.59L17.17,52c.06.13.12.26.17.39.13.33.24.65.34,1l.06.05a12.34,12.34,0,0,0,1.65,1.12l.48.24a2.51,2.51,0,0,1,0-.27c0-.11-.07-.22-.09-.32l-.11-.07A12.54,12.54,0,0,1,18.15,52.94Z"/><path class="cls-14" d="M3.48,43.47c0-.18,0-.37-.06-.58-.8.27-1.48.42-1.48.42l-.46.11c0,.12,0,.25,0,.35s0,.2,0,.29L2.1,44A13.1,13.1,0,0,0,3.48,43.47Z"/><path class="cls-14" d="M3.9,45.1a3.57,3.57,0,0,1-.14-.34,2.14,2.14,0,0,1-.07-.23.28.28,0,0,0,0-.06c-.5.47-.85.86-.85.86s-.28.36-.62.86a2.53,2.53,0,0,0,.13.22,1.91,1.91,0,0,0,.22.3c.43-.54.79-.94.79-.94S3.57,45.48,3.9,45.1Z"/><path class="cls-14" d="M16.83,27.17a4.52,4.52,0,0,0-.44-1.75c-.06-.16-.12-.31-.19-.46-.26-.16-.6-.34-1-.53.19.27.48.71.75,1.19A9.3,9.3,0,0,0,16.83,27.17Z"/><path class="cls-14" d="M2.69,79.26c-.26-1-.38-1.75-.38-1.75l-.15-.82c-.11.37-.23.74-.31,1.11,0,.14,0,.28-.07.43a22,22,0,0,0,.75,2.37A12.53,12.53,0,0,1,2.69,79.26Z"/><path class="cls-14" d="M12.16,8.9l.06.17,1.25,2.31.42.59c0-.31,0-.63-.05-.94-.5-1.14-1-2.24-1-2.24s-.21-.44-.51-1A10.61,10.61,0,0,0,12.16,8.9Z"/><path class="cls-14" d="M2.61,26.6h0c.23-.16.45-.32.71-.48l-.57-.19-.35-.06-.56.5,0,0C2.29,26.51,2.61,26.6,2.61,26.6Z"/><path class="cls-14" d="M13.68,4.2c-.13.23-.27.47-.4.74.15.75.32,1.32.32,1.32s.26.7.63,1.52a.83.83,0,0,1,0-.15,6.37,6.37,0,0,1,.26-.7c-.18-.52-.29-.88-.29-.88S13.93,5.2,13.68,4.2Z"/><path class="cls-14" d="M16.85,46.4a8,8,0,0,1-.05-1.2l-.25-.47a13.81,13.81,0,0,1-.74-1.57l0,0a1.21,1.21,0,0,1,0,.18c-.06.22-.11.45-.16.68a8.71,8.71,0,0,0,.4,1c.21.44.34.74.34.74l.44.69a1.13,1.13,0,0,1,.12.18A1.92,1.92,0,0,1,16.85,46.4Z"/><path class="cls-14" d="M11.4,67.21l-.37-1A1.34,1.34,0,0,1,11,66l-.51.42c.18.59.31,1,.31,1s.12.31.31.76l.54-.39Z"/><path class="cls-14" d="M16.39,2a13.76,13.76,0,0,0-.29,1.84c0,.22,0,.4,0,.54a1.66,1.66,0,0,1,.34-.27.54.54,0,0,1,.33-.1V3.84A12.67,12.67,0,0,1,16.88,2V2A2.82,2.82,0,0,0,16.39,2Z"/><path class="cls-14" d="M5.76,73l-.18-1s0-.37-.12-.92c-.2.23-.39.48-.58.72,0,.19,0,.31,0,.31l.25,1.15c0,.13.06.27.09.41.13-.17.25-.34.38-.5Z"/><path class="cls-14" d="M7.12,69.3l-.6.57c0,.07,0,.13,0,.21a9.26,9.26,0,0,0,.35,1.63l.43-.43A8.15,8.15,0,0,1,7.17,70C7.15,69.68,7.13,69.44,7.12,69.3Z"/><path class="cls-14" d="M20.37,12.84l0,.09c.05.26.09.51.15.77l0,.2.44-.7s.37-.63.82-1.42c0-.26-.09-.52-.15-.77Z"/><path class="cls-14" d="M3.43,42.18q0-.27.06-.57a8.87,8.87,0,0,1-1.35.06,5.75,5.75,0,0,1-.59,0c0,.21-.07.43-.08.62a5.45,5.45,0,0,0,.65.1A8.59,8.59,0,0,0,3.43,42.18Z"/><path class="cls-14" d="M19.78,28.29s-.05-.15-.11-.4-.32-.34-.48-.48l-.31-.31c.11.76.24,1.36.24,1.36a13.66,13.66,0,0,0,.47,1.36l.89.84-.09-.24A17.84,17.84,0,0,1,19.78,28.29Z"/><path class="cls-14" d="M18,34.45c-.18.51-.34,1-.34,1s-.1.35-.23.76q.46-.45.93-.84c0-.23.09-.56.14-.9,0-.12,0-.24,0-.35Z"/><path class="cls-14" d="M13.91,18.27l.06.14c.06-.6.15-1.07.15-1.07a13.87,13.87,0,0,1,.29-1.75c0-.09.05-.19.07-.28s-.11-.42-.16-.64a7.85,7.85,0,0,0-.37.77,12.13,12.13,0,0,0-.49,1.7C13.61,17.52,13.75,17.9,13.91,18.27Z"/><path class="cls-14" d="M22.76,22.2c0-.48-.05-1-.08-1.47l-.3.66-.66,1.89c0,.36.08.71.11,1l.27-.67Z"/><path class="cls-14" d="M22.33,15.89,22.24,15l-.26.29s-.53.73-1,1.55l.09.72.26-.36C21.7,16.65,22.1,16.16,22.33,15.89Z"/><path class="cls-14" d="M18.77,26.19c0,.14,0,.29,0,.43l.79,1c-.1-.41-.24-1-.36-1.53,0-.25-.1-.5-.14-.74l-.42-.68C18.69,25.11,18.72,25.65,18.77,26.19Z"/><path class="cls-2" d="M129.92,122.74V89.61a22.72,22.72,0,0,0-.41-5.54,5.79,5.79,0,0,0-2.4-3.58,21.8,21.8,0,0,0-5.69-2.41l-.14,0V71.53a3.63,3.63,0,0,0-.27-1.78,2.55,2.55,0,0,0-1.62-1.15,25.68,25.68,0,0,0-3.83-.78,86.6,86.6,0,0,0-11.91-.71,80.42,80.42,0,0,0-13,.88,14.77,14.77,0,0,0-3.61.92c-1.87.88-1.2,2.53-1.2,3.66v5.58c-.47.15-.94.28-1.39.44a14.44,14.44,0,0,0-5.37,2.86c-2.77,2.73-1.78,7.87-1.78,11.36v26.72c0,3.45-1.17,8,.39,11.29.87,1.8,3.64,2.89,5.43,3.62,6.39,2.63,13.76,3.21,20.6,3.21a64.47,64.47,0,0,0,16.94-2c3.41-.93,8.2-2.36,9.14-6.34C130.29,127.34,129.92,124.8,129.92,122.74Z"/><path class="cls-3" d="M127.81,121.74V91.23a20.51,20.51,0,0,0-.38-5.09,5.32,5.32,0,0,0-2.22-3.3A20,20,0,0,0,120,80.63l-.12,0v-6a3.28,3.28,0,0,0-.26-1.64,2.32,2.32,0,0,0-1.49-1.06,22.29,22.29,0,0,0-3.55-.72,79.91,79.91,0,0,0-11-.65,75.22,75.22,0,0,0-12,.8,13.7,13.7,0,0,0-3.34.85c-1.73.81-1.11,2.33-1.11,3.37v5.14l-1.29.4a13.43,13.43,0,0,0-5,2.64c-2.56,2.51-1.65,7.24-1.65,10.46v24.6c0,3.17-1.08,7.39.36,10.38.81,1.67,3.37,2.66,5,3.34,5.91,2.42,12.72,3,19,3a59.93,59.93,0,0,0,15.67-1.83c3.15-.86,7.58-2.18,8.45-5.83C128.15,126,127.81,123.63,127.81,121.74Zm-13.35-42.9-.11.12c-1.47,1.58-3.91,2-5.94,2.23a32,32,0,0,1-11-.3,9.31,9.31,0,0,1-4.44-2c-1.47-1.44.11-3,1.77-3.14,1.38-.11,2.83.58,4.21.67a63.88,63.88,0,0,0,7.7.21c2.15-.12,4.28-1.17,6.43-.83C114.88,76.07,115.74,77.34,114.46,78.84Z"/><path class="cls-3" d="M119.4,70.68c0,2-7,3.62-15.54,3.62s-15.54-1.62-15.54-3.62,7-3.62,15.54-3.62S119.4,68.68,119.4,70.68Z"/><path class="cls-2" d="M81.19,89.1c4.24,5.6,12.25,6.22,18.78,6.78a50.16,50.16,0,0,0,15.25-1.22c3.8-.85,9.62-1.91,11.12-6a1.55,1.55,0,0,0-.7-1.72c-2.85-2.08-7-.42-10,.33a50.58,50.58,0,0,1-13.07,1.65c-5.46-.12-12.78-.85-17.61-3.55-2.21-1.23-5.48,1.42-3.74,3.74Z"/><path class="cls-2" d="M81.19,126.16c4.24,5.61,12.25,6.23,18.78,6.79a50.16,50.16,0,0,0,15.25-1.23c3.8-.84,9.62-1.9,11.12-6a1.55,1.55,0,0,0-.7-1.72c-2.85-2.09-7-.42-10,.32A50.15,50.15,0,0,1,102.54,126c-5.46-.11-12.78-.85-17.61-3.55-2.21-1.23-5.48,1.43-3.74,3.74Z"/><path class="cls-3" d="M103.6,135.46a59.93,59.93,0,0,0,15.67-1.83c3.15-.86,7.58-2.18,8.45-5.83.43-1.83.09-4.17.09-6.06V91.23a20.51,20.51,0,0,0-.38-5.09,5.32,5.32,0,0,0-2.22-3.3A20,20,0,0,0,120,80.63l-.12,0v-6a3.28,3.28,0,0,0-.26-1.64,2.32,2.32,0,0,0-1.49-1.06,22.29,22.29,0,0,0-3.55-.72,79.91,79.91,0,0,0-11-.65,75.22,75.22,0,0,0-12,.8,13.7,13.7,0,0,0-3.34.85l-.16.08c5.15,5,16.49,3.38,22.75,3.58a7.22,7.22,0,0,1,2.27-.06c1.13.17,1.88.72,2,1.46,0,0,0,.08,0,.12.33,1.25-.74,2.21-2.63,2.88a16,16,0,0,1-4.06,1,36.69,36.69,0,0,1-8.14.18A36.68,36.68,0,0,1,91.56,80a12.36,12.36,0,0,1-4.49-2.84v3.58l-1.29.4-.51.19c9.15,8.44,29.48,2.2,31,5.26,1.65,3.3,1.64,33-18.37,36.49-10.21,1.81-15.75-2.76-18.74-7.67v3.43c0,3.17-1.08,7.39.36,10.38.81,1.67,3.37,2.66,5,3.34C90.47,134.93,97.28,135.46,103.6,135.46Z"/><g class="cls-4"><path class="cls-5" d="M91,91.05c0-.84,1.43-1.32,3.07-1.08S97,91.1,97,92,95.57,93.27,93.92,93,91,91.89,91,91.05Z"/><path class="cls-5" d="M86.59,89.62c.2-.48,1.16-.48,2.14,0s1.61,1.28,1.41,1.77-1.17.48-2.15,0S86.38,90.11,86.59,89.62Z"/></g><path class="cls-2" d="M89.63,128.13c.05-.84,1.42-1.32,3.06-1.07s2.94,1.12,2.89,2-1.43,1.32-3.07,1.07S89.58,129,89.63,128.13Z"/><path class="cls-2" d="M85.17,126.71c.21-.49,1.17-.49,2.15,0s1.61,1.29,1.4,1.77-1.17.49-2.15,0S85,127.19,85.17,126.71Z"/><g class="cls-4"><path class="cls-5" d="M101.17,79.11c0-.84,1.26-1.47,2.92-1.41s3,.78,3.09,1.63-1.27,1.48-2.93,1.42S101.21,80,101.17,79.11Z"/><path class="cls-5" d="M96.58,78.2c.15-.5,1.1-.61,2.13-.24s1.75,1.1,1.6,1.6-1.11.62-2.14.24S96.43,78.71,96.58,78.2Z"/></g><path class="cls-2" d="M121.43,78a2.76,2.76,0,0,1-.58.58A18.65,18.65,0,0,1,119.17,80l-.61.38-.67.32-1.47.69a34.21,34.21,0,0,1-3.33,1.15,32.18,32.18,0,0,1-6.5,1.17c-.89.1-1.65.1-2.17.12l-.83,0-.82,0c-.52,0-1.27-.06-2.15-.13a49.06,49.06,0,0,1-6.49-.89A19.12,19.12,0,0,1,88,80.4,9.89,9.89,0,0,1,86.34,79c-.34-.4-.52-.64-.49-.66a24.52,24.52,0,0,0,2.37,1.69,20,20,0,0,0,6.06,2,50.22,50.22,0,0,0,6.4.65c.88,0,1.61,0,2.12.07h1.61c.51,0,1.24,0,2.12,0a33.63,33.63,0,0,0,6.37-.93c1.15-.25,2.25-.64,3.3-1l1.48-.59.68-.28.59-.32c.74-.45,1.34-.9,1.77-1.2A2.44,2.44,0,0,1,121.43,78Z"/><path class="cls-3" d="M127.87,128.15c0,4.1-10.87,7.42-24.28,7.42s-24.28-3.32-24.28-7.42,10.87-7.41,24.28-7.41S127.87,124.06,127.87,128.15Z"/><path class="cls-10" d="M104.63,74.45c.58.07,1.14.1,1.69.13,2-.16,3.88-.5,5.82-.62,6.73-3.23,8.79-9.95,8.79-11.7,0-2.32-7.82-4.21-17.46-4.21S86,59.94,86,62.26c0,1.79,2.2,8.74,9.6,11.89A69.82,69.82,0,0,1,104.63,74.45Z"/><path class="cls-11" d="M104.63,74.45c.58.07,1.14.1,1.69.13,2-.16,3.88-.5,5.82-.62,6.73-3.23,8.79-9.95,8.79-11.7,0-1-1.47-1.93-3.92-2.65a1,1,0,0,1,.08.38c0,2-3.2,11.84-15,11.84-10.75,0-14.66-7.29-15.53-10.61a1.51,1.51,0,0,0-.56,1c0,1.79,2.2,8.74,9.6,11.89A69.82,69.82,0,0,1,104.63,74.45Z"/><path class="cls-12" d="M119.56,62.29c0,2-7.13,3.66-15.91,3.66s-15.9-1.64-15.9-3.66,7.12-3.66,15.9-3.66S119.56,60.27,119.56,62.29Z"/><path class="cls-12" d="M114.45,71.52c1.44-1.12,2.18-2.55,1.65-3.18s-2.11-.25-3.55.87-2.17,2.55-1.65,3.19S113,72.64,114.45,71.52Z"/><path class="cls-12" d="M106.78,74.53c.81-.07,1.63-.17,2.44-.27.76-.35,1.25-.85,1.17-1.27s-1.09-.71-2.2-.41-2,1-1.85,1.52A.63.63,0,0,0,106.78,74.53Z"/><path class="cls-12" d="M97.71,60.52c0,.75-1.72,1.63-3.75,2s-3.65,0-3.61-.73,1.72-1.64,3.75-2S97.74,59.77,97.71,60.52Zm3.52-.78c-1.16-.21-2.35,0-2.66.5s.37,1,1.53,1.25,2.36,0,2.67-.5S102.39,59.94,101.23,59.74Z"/><path class="cls-15" d="M120.1,61.76s-.17.22-.54.53A9.9,9.9,0,0,1,118,63.47a21.31,21.31,0,0,1-5.56,2.42l-1.6.42c-.53.13-1.06.21-1.57.31-1,.22-2,.28-2.81.39s-1.52.1-2,.13l-.76,0s-1.11,0-2.76-.12l-1.32-.13-.73-.08-.75-.12-1.56-.27-1.6-.39a22.72,22.72,0,0,1-5.62-2.19,9.91,9.91,0,0,1-1.66-1.09c-.38-.29-.59-.47-.57-.5a2.25,2.25,0,0,1,.69.32,14.33,14.33,0,0,0,1.73.91,25.2,25.2,0,0,0,5.6,1.83l1.57.31,1.54.2L99,66l.71.05,1.29.08c1.61,0,2.69,0,2.69,0l.74,0c.47,0,1.15,0,2-.06s1.75-.11,2.75-.29c.5-.08,1-.14,1.54-.24l1.57-.35a23.24,23.24,0,0,0,5.55-2.05,14.52,14.52,0,0,0,1.69-1C119.84,61.87,120.08,61.73,120.1,61.76Z"/><path class="cls-15" d="M116.16,59.46a3.05,3.05,0,0,1-.94-.29,16.66,16.66,0,0,0-2.43-.69,37.3,37.3,0,0,0-7.71-.43c-2.82.09-5.67.07-7.76.18a33.89,33.89,0,0,0-3.48.34s-.34,0-.94.13a17.15,17.15,0,0,0-2.4.57,7.57,7.57,0,0,0-3,1.64,3,3,0,0,0-.85,1.54,4.61,4.61,0,0,0,.1,1.91A12.05,12.05,0,0,0,88.49,68a26.55,26.55,0,0,0,2.17,2.84c1.37,1.58,2.47,2.47,2.43,2.52a11,11,0,0,1-2.73-2.25A22.31,22.31,0,0,1,88,68.32a12.21,12.21,0,0,1-1.93-3.77,5.47,5.47,0,0,1-.18-2.25,3.85,3.85,0,0,1,1-2,8.58,8.58,0,0,1,3.25-1.95,17.83,17.83,0,0,1,2.54-.66c.62-.13,1-.17,1-.17a35.79,35.79,0,0,1,3.58-.26c2.15-.06,5,0,7.8.05a33.48,33.48,0,0,1,7.8.77,13.23,13.23,0,0,1,2.43.9A3.63,3.63,0,0,1,116.16,59.46Z"/><path class="cls-2" d="M121.1,70.18s-.19.2-.58.49l-.72.52c-.29.18-.63.36-1,.57a9.74,9.74,0,0,1-1.21.6c-.44.2-.9.42-1.39.61l-1.53.53c-.52.19-1.08.29-1.62.43a30.88,30.88,0,0,1-6.1.83c-.84,0-1.54,0-2,0h-.77s-.28,0-.76,0l-2-.12c-1.64-.12-3.86-.22-6.06-.52a29.13,29.13,0,0,1-3.22-.61,15.75,15.75,0,0,1-2.69-1c-.38-.19-.71-.39-1-.57a7.27,7.27,0,0,1-.71-.53c-.36-.34-.54-.54-.52-.57a17.06,17.06,0,0,0,2.39,1.29,21.64,21.64,0,0,0,5.83,1.22c2.18.2,4.37.23,6,.29l2,.06c.48,0,.75,0,.75,0l.75,0c.48,0,1.17,0,2,0a32.36,32.36,0,0,0,6-.58c.53-.12,1.08-.19,1.59-.36l1.52-.43c.49-.16.95-.36,1.39-.52a13.09,13.09,0,0,0,1.23-.5l1-.48.75-.42A2.35,2.35,0,0,1,121.1,70.18Z"/><path class="cls-13" d="M114.51,127.28s-22.74-.77-21.58-5.78,15,.38,15,.38-24.29-26.6-18.5-28.53,8.48,10.41,8.48,10.41-1.54-16.19,1.54-13.1,2.31,18.11,2.31,18.11l7.33,10s-2.7-23.52,1.16-19.28,2.31,21.2,2.31,21.2,3.08-10.79,3.85-7.32S114.51,127.28,114.51,127.28Z"/><path class="cls-13" d="M98.19,112.47s-11.43-7.9-10.59-4.54S98.19,112.47,98.19,112.47Z"/><path class="cls-13" d="M116,108.94s-.68-11.77,1.85-10.93S116,108.94,116,108.94Z"/><path class="cls-13" d="M97.69,129.12s9.13,4.77,9.92,3C109.12,128.78,97.69,129.12,97.69,129.12Z"/><path class="cls-13" d="M98.51,127.39s-7.82-2.74-8.24-1.26C89.46,129,98.51,127.39,98.51,127.39Z"/><path class="cls-13" d="M123.9,129.24s-7.82-2.74-8.24-1.26C114.85,130.83,123.9,129.24,123.9,129.24Z"/><path class="cls-5" d="M113,126.51a4.47,4.47,0,0,1-.57-.58l-1.43-1.6c-1.15-1.36-2.81-3-4.4-4.81l-2.32-2.6c-.77-.81-1.36-1.68-1.93-2.37l-1.33-1.7c-.32-.41-.48-.66-.48-.66s-2.68-3.91-5.3-7.87A63.56,63.56,0,0,1,92,98.67L91,96.74a4,4,0,0,1-.33-.75,4.28,4.28,0,0,1,.44.7l1.06,1.86c.8,1.59,2.16,3.53,3.43,5.52l5.45,7.76s.16.25.47.67l1.29,1.7c.55.69,1.11,1.55,1.86,2.38l2.26,2.64c1.55,1.8,3.15,3.54,4.25,5l1.34,1.68A3.74,3.74,0,0,1,113,126.51Z"/><path class="cls-5" d="M111.14,104.7a8.65,8.65,0,0,1,.09,1.54c0,.92,0,2.15,0,3.37l.2,4.91s0,2.47,0,4.93c-.06,1.23-.13,2.46-.17,3.39a8.35,8.35,0,0,1-.16,1.53,8.65,8.65,0,0,1-.09-1.54c0-.92,0-2.15,0-3.38-.09-2.45-.19-4.91-.19-4.91l0-4.92c.07-1.24.13-2.47.18-3.39A7.78,7.78,0,0,1,111.14,104.7Z"/><path class="cls-5" d="M116.44,107.34a6.91,6.91,0,0,1-.19-1.87l.16-1.88.48-1.81a7.61,7.61,0,0,1,.68-1.75,6.8,6.8,0,0,1-.25,1.85c-.14.91-.29,1.82-.29,1.82s-.16.9-.33,1.81A7.29,7.29,0,0,1,116.44,107.34Z"/><path class="cls-5" d="M100.68,110.75a5.85,5.85,0,0,1-.17-1.4c-.06-.84-.13-2-.2-3.09s-.12-2.23-.16-3.07a6.94,6.94,0,0,0-.1-1c0-.24,0-.38,0-.38l-.15-1.38c-.1-.84-.28-1.94-.4-3.07a19.2,19.2,0,0,1-.15-3.1,7,7,0,0,1,.11-1.41c.13,0,.06,2.25.49,4.45.17,1.11.39,2.21.53,3s.19,1.41.19,1.41l0,.39a6.88,6.88,0,0,1,.06,1c0,.85,0,2,0,3.1s0,2.25,0,3.09A7.37,7.37,0,0,1,100.68,110.75Z"/><path class="cls-5" d="M96.64,111.88a7.2,7.2,0,0,1-1.88-.47l-1.8-.68-1.73-.79a8.83,8.83,0,0,1-1.78-.7,7,7,0,0,1,1.93.27l1.83.64,1.72.85A8.16,8.16,0,0,1,96.64,111.88Z"/><path class="cls-5" d="M98.28,122.48a11.57,11.57,0,0,1,3.44.17l3.37.67,1,.23,2.31.47a13.34,13.34,0,0,1,2.27.7,3.31,3.31,0,0,1,1,.53,5.33,5.33,0,0,1-1-.3,18.18,18.18,0,0,0-2.28-.49l-2.33-.34c-.64-.1-1.06-.19-1.06-.19l-3.32-.84C100,122.67,98.28,122.58,98.28,122.48Z"/><path class="cls-5" d="M105.72,130.67a5.1,5.1,0,0,1-1.63-.22l-1.6-.25-1.58-.3a5.9,5.9,0,0,1-1.62-.23,5.41,5.41,0,0,1,1.65-.21c.83,0,1.66.12,1.66.12l1.6.44A6.05,6.05,0,0,1,105.72,130.67Z"/><path class="cls-5" d="M97.52,127a4.69,4.69,0,0,1-1.45,0l-1.42-.1-.43-.06a8.07,8.07,0,0,0-1-.09c-.7,0-1.37.11-1.41,0s.64-.43,1.39-.49a7.45,7.45,0,0,1,1,0h.46s.72.11,1.43.29A4,4,0,0,1,97.52,127Z"/><path class="cls-5" d="M122.49,129.16a2.92,2.92,0,0,1-1.15-.16l-1.12-.14-1.12-.2c-.57-.07-1.15-.17-1.15-.26a3.06,3.06,0,0,1,1.17-.19l1.19,0s.58.16,1.15.34S122.53,129.08,122.49,129.16Z"/><path class="cls-3" d="M120.92,79.58a7.06,7.06,0,0,1-1.44,1.06h0l-.35.2a28.11,28.11,0,0,1-2.87,1.33l-.41.17h0l-.4.16-.86.25-.86.26-.9.18a30.65,30.65,0,0,1-4.1.55l-.47,0-1,0h-.21l-1,0h-.61l.48-.06h0l.47-.06h0l.54-.06,1.39-.21h0c.34,0,.69-.12,1.05-.2l.43-.06c.55-.12,1.11-.19,1.66-.36l1.72-.56h0l.19-.06h0l.29-.09c.64-.2,1.29-.43,1.92-.68s1.2-.47,1.71-.71.73-.37,1-.55.55-.36.74-.52l.08-.08q.39-.28.72-.57a5.52,5.52,0,0,0,1.44-1.84c.25-.51.27-.84.21-.86s-.65,1.09-2.15,2c-.16.11-.34.22-.53.33l-.16.09-.44.23-.18.09-.62.28h0q-.57.24-1.2.45l-.08,0h0c-.79.27-1.63.51-2.49.72h0l-.16,0-.23.05a40.4,40.4,0,0,1-6,1h-.16l-.36,0-2.18.15h-.83l-.82,0-1,.06h0l-.45,0h0l-.72,0a41.72,41.72,0,0,1-6.59-.28,9.18,9.18,0,0,1-1.31-.2l-.45-.1h0l-.17,0h0c-.49-.13-1-.28-1.42-.44a8.43,8.43,0,0,1-1-.43h0l-.33-.16h0c-.48-.26-.92-.53-1.32-.79l-.26-.18h0c-1.31-.94-2.12-1.69-2.23-1.58s.51,1,1.71,2.14h0l.28.26c.22.2.48.41.74.61A9.89,9.89,0,0,0,89.93,82c-.32-.13-.62-.27-.91-.42l-.35-.18a12.25,12.25,0,0,1-1.31-.78h0l-.19-.12c-1.51-1-2.3-2-2.44-1.91s.48,1.23,1.93,2.55a10.75,10.75,0,0,0,1.29,1h0l.06,0a17.65,17.65,0,0,0,2.2,1.27h0l.33.15h0a20.41,20.41,0,0,0,2.33.9,30.48,30.48,0,0,0,6.95,1.33l1.06.07h0l1.25,0,.87,0s.69,0,1.81-.08h0l.39,0h.1l.86-.06,1.07-.08h0l.22,0a34.55,34.55,0,0,0,4-.62h0l.28-.06c.47-.11,1-.23,1.42-.36l.94-.27.67-.26L115,84h0l.89-.36c.29-.12.55-.28.82-.42a27.05,27.05,0,0,0,2.41-1.41h0l.42-.3c.18-.13.35-.26.5-.39l.25-.23.17-.15.28-.29,0-.06a3.33,3.33,0,0,0,.26-.32h0l.17-.24c.32-.48.38-.82.32-.84S121.31,79.23,120.92,79.58Z"/><path class="cls-9" d="M120.92,78.76A8.28,8.28,0,0,1,119.13,80a30.54,30.54,0,0,1-2.87,1.32c-.27.11-.53.24-.81.33l-.86.26-.86.26-.9.18a35.54,35.54,0,0,1-6.72.65h-.61l1.49-.19a37.91,37.91,0,0,0,6.74-1.55,17.8,17.8,0,0,0,6.19-3.12,5.6,5.6,0,0,0,1.44-1.83c.25-.52.27-.85.21-.87a12.52,12.52,0,0,1-2.15,2,19.25,19.25,0,0,1-6.11,2.34,42,42,0,0,1-6.53,1.06l-2.18.14h-.83l-.82,0c-.53,0-1.28.1-2.18.1a43,43,0,0,1-6.59-.28,13.67,13.67,0,0,1-3.35-.78,12.13,12.13,0,0,1-2.67-1.38A17.25,17.25,0,0,0,85.67,77c-.09.09.6,1.12,2,2.41a11.66,11.66,0,0,0,2.7,1.82c.47.21,1,.42,1.46.6a17.2,17.2,0,0,1-4.65-2.21c-1.51-1-2.3-2-2.44-1.91s.48,1.24,1.93,2.55a16.89,16.89,0,0,0,6.21,3.4A29.88,29.88,0,0,0,99.82,85c1,.08,1.77.1,2.32.12H103s1.27,0,3.18-.15a34.28,34.28,0,0,0,7-1.15l.94-.27.9-.35.89-.35c.29-.12.55-.29.82-.43a23,23,0,0,0,2.83-1.7A6.44,6.44,0,0,0,121.25,79c.32-.49.38-.83.32-.85S121.31,78.4,120.92,78.76Z"/><path class="cls-14" d="M92.86,80.77l0,0-.47-.1L92,81s-.27.26-.67.62l.43.16c.34-.27.55-.47.55-.47Z"/><path class="cls-14" d="M87.66,79.41h0c.16-.18.34-.4.52-.64h0l-.26-.19a7.53,7.53,0,0,1-.52.57Z"/><path class="cls-14" d="M88.83,80.33a3.37,3.37,0,0,0,.37.24c.11-.14.35-.46.61-.85l-.33-.17C89.18,79.93,88.92,80.23,88.83,80.33Z"/><path class="cls-14" d="M91.79,81.82l-.45-.15c-.31.28-.7.61-1.12.93h0l.33.16C91,82.43,91.46,82.09,91.79,81.82Z"/><path class="cls-14" d="M115.45,81.67l-.14,0-.24.5s-.26.54-.68,1.23l.61-.24c.29-.46.46-.79.46-.79s.16-.34.37-.86l0,0Z"/><path class="cls-14" d="M96.1,84l.48-.5a10.77,10.77,0,0,0,1-1.18,9.1,9.1,0,0,0,.6-1.07H97.9c-.18.28-.38.6-.61.89a12.31,12.31,0,0,1-1,1.08l-.49.46-.5.42a1.59,1.59,0,0,1-.24.2l.5.11Z"/><path class="cls-14" d="M87.36,79.75l-.19-.13L87,79.5l-.16.14s-.17.16-.44.37l.26.25,0,0,.42-.32Z"/><path class="cls-14" d="M119.13,80l-.15.08c0,.1,0,.19-.07.27s-.07.23-.07.23l-.29.79.6-.39.11-.26a2.09,2.09,0,0,0,.06-.25l.16-.66v0Z"/><path class="cls-14" d="M106.11,83H106c0,.09-.09.18-.14.26l-.57,1-.42.71.51,0,.3-.46.54-1.09c.08-.13.15-.29.23-.44Z"/><path class="cls-14" d="M89.06,80.73l-.4-.2c-.15.17-.4.45-.71.76a3.28,3.28,0,0,0,.31.2C88.64,81.16,88.94,80.86,89.06,80.73Z"/><path class="cls-14" d="M109.23,80.77c-.37.82-.75,1.64-.85,1.86l.5-.09.65-1.66c0-.1,0-.19.08-.29l-.33,0S109.25,80.73,109.23,80.77Z"/><path class="cls-14" d="M107.63,84.84l.06-.08c.49-.86,1-1.71,1-1.85l-.5,0-.81,1.65-.16.27Z"/><path class="cls-14" d="M113,81.39a.78.78,0,0,1-.05.14l.48-.15a7.52,7.52,0,0,0,.26-1.62l-.34.09A7.32,7.32,0,0,1,113,81.39Z"/><path class="cls-14" d="M112.55,83.34a6,6,0,0,0,.49-.88l.07-.15-.28.06-.25,0c-.07.15-.19.39-.38.71a12.4,12.4,0,0,1-.71,1.11l.53-.12C112.22,83.84,112.41,83.58,112.55,83.34Z"/><path class="cls-14" d="M119.29,78.68a3.93,3.93,0,0,0,.38-.31c0-.18,0-.37,0-.56l0-.47-.26.18,0,0v.26C119.36,78.1,119.33,78.4,119.29,78.68Z"/><path class="cls-14" d="M98.56,84.83a13.2,13.2,0,0,0,1.56-1.31l.66-.67.55-.75a7.5,7.5,0,0,0,.61-.93l-.45,0a4.65,4.65,0,0,1-.49.67l-.56.71-.61.66a15.24,15.24,0,0,1-1.45,1.35l-.31.22.45.06Z"/><path class="cls-14" d="M106.45,82.91c.26-.56.52-1.23.8-1.89a.88.88,0,0,1,0-.15l-.34,0h0c-.35.73-.67,1.47-1,2.06Z"/><path class="cls-14" d="M102.75,83.87c.39-.38.64-.65.64-.65l.16-.2c.09-.13.25-.3.4-.53a10.18,10.18,0,0,0,.84-1.44h-.39a8.19,8.19,0,0,1-.78,1.19c-.16.22-.31.37-.41.49l-.15.19s-.23.27-.6.65A19.36,19.36,0,0,1,101,84.92l-.16.13.47,0A15.54,15.54,0,0,0,102.75,83.87Z"/><path class="cls-14" d="M115.79,80.54l.43-.17c.07-.26.14-.53.19-.81s0-.42.07-.63l-.29.11-.09.46C116,79.86,115.9,80.22,115.79,80.54Z"/><path class="cls-14" d="M119.66,78.27s0,.06-.13.15l-.41.41c-.19.15-.45.31-.74.51s-.64.36-1,.56A59.07,59.07,0,0,1,111.52,82c-.55.16-1.11.24-1.66.36s-1.1.15-1.62.23l-2.86.37c-1.69.2-2.82.28-2.82.28s-1.13.09-2.83.1a23.58,23.58,0,0,1-6.18-.72,12.36,12.36,0,0,1-5.47-2.91l-.77-.86a4.83,4.83,0,0,1-.52-.72c-.14-.21-.24-.38-.32-.49s-.1-.17-.09-.17a.84.84,0,0,1,.13.15l.35.45a5.69,5.69,0,0,0,.55.69l.79.83a12.4,12.4,0,0,0,5.43,2.73,24.68,24.68,0,0,0,6.1.62c1.68,0,2.8-.14,2.8-.14s1.12-.07,2.8-.25l2.87-.33c.52-.06,1.06-.12,1.61-.2s1.09-.17,1.63-.33c2.13-.65,4.32-1.3,5.85-2,.38-.18.73-.35,1-.51s.54-.33.74-.47l.43-.37Z"/><path class="cls-7" d="M99.82,85c1,.08,1.77.1,2.32.12H103s1.27,0,3.18-.15a34.28,34.28,0,0,0,7-1.15l.94-.27.9-.35.89-.35c.29-.12.55-.29.82-.43a23,23,0,0,0,2.83-1.7,6.81,6.81,0,0,0,1.51-1.45c-1.56,1.37-4.82,3.43-11.1,4.69-10,2-18.66-.88-19.31-1.47s-2.94-2.18,1.65,0c4,1.87,13,.91,16,.46-.81,0-1.57.07-2.25.08h-.61l1.49-.19a37.91,37.91,0,0,0,6.74-1.55,17.8,17.8,0,0,0,6.19-3.12,5.6,5.6,0,0,0,1.44-1.83c.25-.52.27-.85.21-.87a12.52,12.52,0,0,1-2.15,2,10.44,10.44,0,0,1-2,1c-1,.94-3.44,1.88-6.2,2.69A34.55,34.55,0,0,1,97,82a14.9,14.9,0,0,1-4.78-1.43c-.49-.13-1-.27-1.42-.43a12.13,12.13,0,0,1-2.67-1.38A17.25,17.25,0,0,0,85.67,77c-.09.09.6,1.12,2,2.41a11.66,11.66,0,0,0,2.7,1.82c.47.21,1,.42,1.46.6a17.2,17.2,0,0,1-4.65-2.21c-1.51-1-2.3-2-2.44-1.91s.48,1.24,1.93,2.55a16.89,16.89,0,0,0,6.21,3.4A29.88,29.88,0,0,0,99.82,85Z"/><path class="cls-9" d="M90,78.25a5.29,5.29,0,0,1-1.15.64,3,3,0,0,1-1.73.11,5.06,5.06,0,0,1-1.77-1l-.5-.47c.08.06.13.09.14.08s-.75-1.06-1.82-2.65a30.36,30.36,0,0,1-3.27-6.16A14.68,14.68,0,0,1,79,65.25a8.23,8.23,0,0,1,.23-3c.13-.41.31-.77.45-1.1a5,5,0,0,1,.49-.76c.29-.38.45-.44.45-.44s.13-.12.24-.07a3.1,3.1,0,0,1,1,1.49,21.92,21.92,0,0,1,1,3.05c.17.57.25,1.17.38,1.78s.22,1.24.31,1.87c.33,2.54.59,5.1.76,7a6.22,6.22,0,0,0,.65,2.3c.29.51.54.73.56.71s-.13-.31-.31-.82A6.71,6.71,0,0,1,84.86,75c0-1.92-.13-4.51-.35-7.09-.06-.65-.12-1.3-.23-1.94s-.17-1.28-.32-1.87A22.31,22.31,0,0,0,83,60.85a3.93,3.93,0,0,0-1.66-2.21,1.61,1.61,0,0,0-1.44.12,2.94,2.94,0,0,0-.8.8,6.74,6.74,0,0,0-.58,1,11.61,11.61,0,0,0-.5,1.36,9.36,9.36,0,0,0-.15,3.5A15.58,15.58,0,0,0,79,69.13a27.88,27.88,0,0,0,3.72,6.12l.8,1c-.38-.41-.75-.8-1.08-1.13A12.54,12.54,0,0,0,81,73.78a4.72,4.72,0,0,0-.46-.29,10.26,10.26,0,0,0-1.29-.64,7.94,7.94,0,0,0-2-.53,7.1,7.1,0,0,0-2.34.07,7.87,7.87,0,0,0-2.16.82,8.44,8.44,0,0,0-1.59,1.19A4.87,4.87,0,0,0,70,75.89a15.48,15.48,0,0,0,1.47-1.18,9.54,9.54,0,0,1,1.6-1,7.19,7.19,0,0,1,2-.62,6.79,6.79,0,0,1,2.07.06,7.48,7.48,0,0,1,1.73.56,8.67,8.67,0,0,1,1.13.63,4.69,4.69,0,0,1,.4.27,11.4,11.4,0,0,1,1.4,1.13c.77.68,1.7,1.68,2.83,2.57a8.34,8.34,0,0,0-2.25.88,16.14,16.14,0,0,0-4.48,4.25c-.35.43-.67.88-1,1.25a10.77,10.77,0,0,1-1.08,1.06,5.81,5.81,0,0,1-2.17,1.27c-.67.15-.88,0-1-.32a1.79,1.79,0,0,1-.16-.37.69.69,0,0,1-.05-.15,6.2,6.2,0,0,1-.13-.65,4,4,0,0,1,.11-1.73,8.22,8.22,0,0,1,3.74-4.2,11.9,11.9,0,0,1,5.62-1.77,9.52,9.52,0,0,1,2.68.44s-.18-.24-.64-.45a5.44,5.44,0,0,0-2-.5,11.62,11.62,0,0,0-6.1,1.47,9.07,9.07,0,0,0-4.44,4.63,5.1,5.1,0,0,0-.24,2.27,4.82,4.82,0,0,0,.15.86,1.11,1.11,0,0,0,.07.22,3.1,3.1,0,0,0,.32.64,2,2,0,0,0,1,.78,2.37,2.37,0,0,0,1.49,0,7,7,0,0,0,2.6-1.64,13.12,13.12,0,0,0,1.13-1.21c.37-.46.66-.92,1-1.36a17.13,17.13,0,0,1,4-4.36c.16-.11.31-.21.47-.3a7,7,0,0,0-.82,1.09,16.69,16.69,0,0,0-1.48,3.11c-.23.59-.43,1.21-.61,1.85a6.11,6.11,0,0,0-.21,2.1,12.64,12.64,0,0,0,1.25,3.81,5.85,5.85,0,0,1,.5,3,4.88,4.88,0,0,1-.75,2,4.67,4.67,0,0,1-.35.51l-.14.17-.13.18-.4.48a18.58,18.58,0,0,1-1.68,1.59c-.74.63-1.65,1.32-2.62,2.14a17.09,17.09,0,0,0-2.79,2.84,9.42,9.42,0,0,0-1.71,3.64,8.4,8.4,0,0,0,0,3.49,11.23,11.23,0,0,0,.35,1.34c.16.38.29.71.41,1,.28.52.45.8.49.78s-.52-1.25-.74-3.18a8.31,8.31,0,0,1,.25-3.23,8.8,8.8,0,0,1,1.73-3.24c1.62-2,3.88-3.35,5.45-4.62a19.21,19.21,0,0,0,1.85-1.65l.48-.53.15-.2.15-.2a5,5,0,0,0,.4-.61,6.19,6.19,0,0,0,.85-2.51,5.89,5.89,0,0,0-.09-1.76,9.18,9.18,0,0,0-.61-1.81,12.29,12.29,0,0,1-1.33-3.48,5.22,5.22,0,0,1,.1-1.8c.14-.62.31-1.23.49-1.81a18.93,18.93,0,0,1,1.23-3.09,5.8,5.8,0,0,1,1.36-1.85,2.44,2.44,0,0,1,.23-.16l.46-.21.08.06a5.62,5.62,0,0,0,2.1,1,3.38,3.38,0,0,0,2-.32,4.54,4.54,0,0,0,1.12-.84c.23-.24.35-.39.33-.41S90.24,78.07,90,78.25Z"/><path class="cls-14" d="M80.3,70.84s.1.59.23,1.16l0,.15.31.5c0-.21,0-.45,0-.69,0-.55-.1-1.08-.1-1.16-.17-.34-.32-.68-.47-1A9.07,9.07,0,0,0,80.3,70.84Z"/><path class="cls-14" d="M79.59,81.46l-.48.51-.43,1.28s-.15.54-.34,1.19l.29-.41c.16-.22.31-.45.48-.67s.24-.93.46-1.75A.77.77,0,0,1,79.59,81.46Z"/><path class="cls-14" d="M81,83.39a8.55,8.55,0,0,0,.23,1l.07.23c.06-.23.13-.46.2-.69s-.13-.4-.19-.61a5.78,5.78,0,0,1-.12-.66l-.21.53C81,83.26,81,83.32,81,83.39Z"/><path class="cls-14" d="M83.52,78.07l.21.06-.19-.36a2.2,2.2,0,0,0-.34-.13A4.37,4.37,0,0,0,83.52,78.07Z"/><path class="cls-14" d="M81.87,94.71l-.18-.19a4.37,4.37,0,0,1-.12.52c.1.1.5.5,1,1,0-.12.08-.25.13-.38C82.23,95.12,81.87,94.71,81.87,94.71Z"/><path class="cls-14" d="M74.73,80.58c.1-.09.21-.16.31-.24a5.33,5.33,0,0,0-.61-.45l-.3-.15-.35.29.44.24S74.44,80.39,74.73,80.58Z"/><path class="cls-14" d="M74.08,86.89a2.38,2.38,0,0,1-.47.16h0a1.77,1.77,0,0,1-.06.17,7.94,7.94,0,0,0-.28,1.12,2,2,0,0,0,.35,0,8.27,8.27,0,0,1,.32-1Z"/><path class="cls-14" d="M76.79,84.8a7,7,0,0,1-.54.55l-.13.53s-.06.5-.09,1.14l.42-.36c.06-.41.11-.7.11-.7S76.64,85.44,76.79,84.8Z"/><path class="cls-14" d="M76.43,78.72l-.27-.18-.43.22a3.43,3.43,0,0,1,.43.31l.38.3c.12-.07.24-.14.37-.2C76.64,78.9,76.43,78.72,76.43,78.72Z"/><path class="cls-14" d="M79.28,77.51l-.57.12c.17.1.51.3.85.54l.36-.08L79.8,78A6.65,6.65,0,0,0,79.28,77.51Z"/><path class="cls-14" d="M77.53,72.8s.15.25.38.58l.55.2-.57-1-.12-.16-.52-.08h-.07C77.38,72.6,77.53,72.8,77.53,72.8Z"/><path class="cls-14" d="M80.09,99s-.1-.31-.26-.77a3,3,0,0,0-.12-.36l-.31.32a1,1,0,0,0,0,.16c.13.46.21.76.21.76s0,.17.11.45l.37-.32Z"/><path class="cls-14" d="M82.45,62.82c.13-.3.22-.49.22-.49l.49-1.12c0-.12-.09-.25-.13-.36a.36.36,0,0,1,0-.09c-.39.71-.72,1.39-.72,1.39l0,.06Z"/><path class="cls-14" d="M81.56,97.42s-.16-.61-.44-1.36L81,96.3l-.12.19c.17.6.27,1,.27,1l.15.58.11-.12.15-.2.08-.1A2.63,2.63,0,0,0,81.56,97.42Z"/><path class="cls-14" d="M73.81,73.16l.32.17a4.58,4.58,0,0,1,.53-.14c-.35-.25-.63-.42-.63-.42l-.16-.07-.5.2Z"/><path class="cls-14" d="M81.76,91.68l-.42-.38s-.08-.09-.22-.22a2.72,2.72,0,0,1,.11.25c.09.21.16.42.23.63l0,0a7.89,7.89,0,0,0,1.07.73l.32.16,0-.17-.06-.22-.06,0A7.14,7.14,0,0,1,81.76,91.68Z"/><path class="cls-14" d="M72.21,85.52c0-.12,0-.24,0-.38-.53.18-1,.28-1,.28l-.3.07c0,.08,0,.16,0,.23a1.23,1.23,0,0,0,0,.19l.37-.06A8.3,8.3,0,0,0,72.21,85.52Z"/><path class="cls-14" d="M72.49,86.58a1.71,1.71,0,0,1-.09-.22.69.69,0,0,1-.05-.15v0c-.32.31-.55.56-.55.56s-.18.24-.4.56l.08.15.14.19.52-.61S72.27,86.83,72.49,86.58Z"/><path class="cls-14" d="M80.9,74.91a3,3,0,0,0-.28-1.13l-.13-.3-.64-.35c.12.18.31.47.48.78A5.78,5.78,0,0,0,80.9,74.91Z"/><path class="cls-14" d="M71.7,108.8c-.17-.65-.25-1.14-.25-1.14s0-.2-.09-.53a6.44,6.44,0,0,0-.2.72,2.93,2.93,0,0,0,0,.29,15.1,15.1,0,0,0,.48,1.53C71.61,109.39,71.65,109.1,71.7,108.8Z"/><path class="cls-14" d="M77.86,63a.82.82,0,0,1,0,.11l.81,1.5L79,65c0-.2,0-.41,0-.61L78.31,63,78,62.28A6.46,6.46,0,0,0,77.86,63Z"/><path class="cls-14" d="M71.65,74.54h0l.46-.32-.36-.12-.23,0c-.13.11-.26.22-.37.33l0,0Z"/><path class="cls-14" d="M78.85,60c-.09.15-.17.31-.26.48.1.5.21.87.21.87s.17.45.41,1c0,0,0-.06,0-.1a4.7,4.7,0,0,1,.17-.45l-.18-.57S79,60.62,78.85,60Z"/><path class="cls-14" d="M80.91,87.42a4.91,4.91,0,0,1,0-.77c0-.08-.1-.18-.16-.31a8.26,8.26,0,0,1-.48-1v0a.56.56,0,0,0,0,.12c0,.14-.07.29-.1.44a4.78,4.78,0,0,0,.26.66l.22.49.29.44.07.12A.77.77,0,0,0,80.91,87.42Z"/><path class="cls-14" d="M77.36,101l-.24-.64a.49.49,0,0,0,0-.11l-.33.27.2.64.2.49.35-.26C77.42,101.11,77.36,101,77.36,101Z"/><path class="cls-14" d="M80.62,58.53a7.63,7.63,0,0,0-.19,1.19c0,.14,0,.26,0,.35a.74.74,0,0,1,.22-.17s.11-.09.21-.07v-.09a9.07,9.07,0,0,1,.1-1.18v0Z"/><path class="cls-14" d="M73.7,104.7l-.12-.67s0-.24-.08-.6c-.13.15-.25.31-.37.47s0,.2,0,.2l.17.75c0,.08,0,.18.06.27.08-.11.16-.23.24-.33Z"/><path class="cls-14" d="M74.58,102.33l-.39.37s0,.08,0,.13a6.39,6.39,0,0,0,.23,1.06l.28-.27a6,6,0,0,1-.11-.83C74.6,102.58,74.59,102.42,74.58,102.33Z"/><path class="cls-14" d="M83.21,65.6l0,.05c0,.17.07.34.1.5l0,.13.28-.45s.24-.41.53-.93c0-.17-.06-.33-.09-.5Z"/><path class="cls-14" d="M72.18,84.69c0-.13,0-.25,0-.38a5.65,5.65,0,0,1-.88,0l-.38,0c0,.13,0,.27,0,.4a3.39,3.39,0,0,0,.42.06A5.71,5.71,0,0,0,72.18,84.69Z"/><path class="cls-14" d="M82.82,75.65s0-.1-.07-.27-.21-.21-.31-.31l-.21-.2c.08.5.16.88.16.88a7.93,7.93,0,0,0,.31.89l.58.55L83.21,77A12.8,12.8,0,0,1,82.82,75.65Z"/><path class="cls-14" d="M81.65,79.65l-.22.65-.14.49q.3-.29.6-.54c0-.15.06-.37.09-.59s0-.15,0-.23Z"/><path class="cls-14" d="M79,69.13l0,.09c0-.39.09-.7.09-.7a10.65,10.65,0,0,1,.19-1.13c0-.07,0-.13.05-.19s-.07-.27-.1-.41a4.66,4.66,0,0,0-.25.5,7.11,7.11,0,0,0-.31,1.1C78.8,68.64,78.9,68.88,79,69.13Z"/><path class="cls-14" d="M84.76,71.68c0-.31,0-.63-.05-1l-.2.43s-.21.59-.43,1.23c0,.23,0,.46.07.68l.18-.44C84.49,72.28,84.64,71.93,84.76,71.68Z"/><path class="cls-14" d="M84.48,67.58,84.42,67l-.17.2s-.35.47-.66,1l.06.47.17-.23C84.07,68.08,84.33,67.76,84.48,67.58Z"/><path class="cls-14" d="M82.16,74.28l0,.28.51.67c-.06-.27-.15-.63-.23-1,0-.16-.07-.32-.1-.48l-.27-.44C82.11,73.58,82.13,73.93,82.16,74.28Z"/></g></g></g></svg>