<?xml version="1.0" encoding="UTF-8"?>
<svg viewBox="0 0 959.63 270.81" xmlns="http://www.w3.org/2000/svg">
<defs>
<style>.logo-1{isolation:isolate;}.logo-2{font-size:73.44px;font-family:SegoeScript, Segoe Script;}.logo-10,.logo-2{fill:#fff;}.logo-3{letter-spacing:-0.06em;}.logo-4{font-size:144.23px;fill:none;stroke:#ffe031;stroke-miterlimit:10;stroke-width:3px;font-family:SegoePrint, Segoe Print;letter-spacing:0.07em;}.logo-5{letter-spacing:0.09em;}.logo-6{letter-spacing:0.08em;}.logo-7{opacity:0.5;}.logo-19,.logo-8{fill:#2f267f;}.logo-9{fill:#54518e;}.logo-11,.logo-18{fill:#6148ec;}.logo-11,.logo-17{opacity:0.2;}.logo-12{fill:#504d89;}.logo-13,.logo-14{fill:#f463e5;}.logo-14,.logo-19,.logo-20{mix-blend-mode:multiply;}.logo-15,.logo-16,.logo-20,.logo-21{fill:#ffe031;}.logo-15{opacity:0.4;}.logo-15,.logo-21{mix-blend-mode:screen;}.logo-19{opacity:0.7;}.logo-22{fill:#ff8c31;}</style>
</defs>
<g class="logo-1">
<g data-name="Layer 2">
<g data-name="Layer 1">
<text class="logo-2" transform="translate(343.69 234.45)">Fortune
<tspan class="logo-3" x="327.87" y="0">T</tspan>
<tspan x="374.95" y="0">eller</tspan>
</text>
<text class="logo-4" transform="translate(288.91 126.72)">O
<tspan class="logo-5" x="126.05" y="0">r</tspan>
<tspan class="logo-6" x="212.44" y="0">igami</tspan>
</text>
<g class="logo-7">
<path class="logo-8" d="m131.88 108.26c-68.1 0-124.11 87.35-124.11 87.35s55.2 72.83 123.3 72.83 123.3-72.83 123.3-72.83-54.37-87.35-122.49-87.35z"/>
<polygon class="logo-8" points="238.76 98.08 201.33 125.6 223.35 143.77"/>
<polygon class="logo-8" points="176.1 113.36 176.1 113.36 187.28 118.48 190.43 70.36 161.33 106.59"/>
<polygon class="logo-8" points="52.22 133.73 52.22 133.73 62.06 125.6 24.63 98.08 40.04 143.77"/>
<polygon class="logo-8" points="116.31 98.82 144.82 97.26 131 52.9"/>
<polygon class="logo-8" points="73.47 118.48 99.42 106.59 70.32 70.36"/>
<path class="logo-8" d="M91.91,57.44c3.09,0,7-1.19,11.15-3a45.71,45.71,0,0,0,10.43-4c6.93-3.56,13.15-8.12,17.83-11.45l1.14-.82C138.52,42.58,150.8,51,161,55.08c-.1,0-.15.08-.15.11s.23.08.62.07a27.11,27.11,0,0,0,9.23,2.18,25.32,25.32,0,0,0,0-50.64c-4.73,0-11.34,2.73-17.92,6.27a36.87,36.87,0,0,0-6.7,2.84,26.77,26.77,0,0,0-4.66,3.22c-1,1-1.51,1.52-1.44,1.6s.12,0,.25-.09c-3.71,2.45-6.88,4.7-9,6.22C124,21.46,102.88,6.8,91.91,6.8a25.32,25.32,0,1,0,0,50.64Zm75.77-9.31-.8-.23-.75-.24-.52-.2c-1.23-.44-2.54-1-3.93-1.64l-.12,0L160,45h0a172.81,172.81,0,0,1-20.9-12.88A171.72,171.72,0,0,1,160,19.25h0l1.6-.78,0,0c1.4-.66,2.72-1.21,4-1.66l.55-.2.75-.24.79-.24.61-.15.85-.18.45-.07a8.14,8.14,0,0,1,1.16-.1,17,17,0,0,1,2,.14l.57.09a14.76,14.76,0,0,1,1.5.31l.49.13A15.85,15.85,0,0,1,179,17.84l.32.19a15,15,0,0,1,1.46,1l.18.13c.42.34.82.71,1.21,1.09l1,1.54.29.43a8,8,0,0,1,.78,1.25c.25.58.57,1.27.93,2.07a16.31,16.31,0,0,1,.8,2.81c1.06,4.18-.57,10.25-4.43,14.83a25,25,0,0,1-3.81,3.88,16.11,16.11,0,0,1-2.37.91l-.49.13c-.49.12-1,.23-1.5.31l-.57.09a17,17,0,0,1-2,.13,8.07,8.07,0,0,1-1.16-.09l-.45-.08c-.27-.05-.56-.1-.85-.17ZM93.07,15.7l.45.07.84.18.61.15.79.24.75.24.52.19c.77.28,1.58.6,2.43,1a0,0,0,0,1,0,0c.49.2,1,.43,1.49.67l.12,0,1.57.76h0a172.43,172.43,0,0,1,20.91,12.88A172.5,172.5,0,0,1,102.69,45h0l-1.6.78,0,0c-1.4.66-2.72,1.21-4,1.66l-.55.2-.74.24-.8.23-.6.16-.85.17-.45.08a8.07,8.07,0,0,1-1.16.09,15.31,15.31,0,0,1-2-.14l-.55-.08c-.46-.07-.9-.17-1.35-.28-.26-.07-.53-.12-.78-.2l-.2-.07c-.39-.13-.76-.27-1.13-.43l-.11-.11s-.6-.66-1.6-1.87a27.7,27.7,0,0,1-3.36-5.61,21.89,21.89,0,0,1-1.8-9,22.39,22.39,0,0,1,2.63-10.23c.3-.57.66-1.11,1-1.66A13.75,13.75,0,0,1,88.45,16L89,15.9c.32-.07.65-.12,1-.16a15.54,15.54,0,0,1,1.94-.14A8.14,8.14,0,0,1,93.07,15.7Zm37.62,22.4-3.26,2.06c1.52-1.06,2.85-2,3.89-2.78l.24.17Zm12.85-19.57-2.46,1.57C141.66,19.7,142.49,19.14,143.54,18.53Z"/>
</g>
<path class="logo-9" d="M246.61,188.81S191.4,261.64,123.3,261.64,0,188.81,0,188.81s56-87.34,124.12-87.34S246.61,188.81,246.61,188.81Z"/>
<path class="logo-10" d="M234.86,188.81s-49.94,72.83-111.56,72.83S11.74,188.81,11.74,188.81,61.69,116,123.3,116,234.86,188.81,234.86,188.81Z"/>
<path class="logo-11" d="m181.11 135.86a201.5 201.5 0 0 1 36.2 38.28s-43.4 63.28-96.94 63.28-96.95-63.28-96.95-63.28l0.59-0.83c-7.82 9.05-12.27 15.5-12.27 15.5s49.95 72.83 111.56 72.83 111.56-72.83 111.56-72.83-21.53-31.39-53.75-52.95z"/>
<path class="logo-11" d="M207.2,171.1c.85-1.16,1.33-1.84,1.33-1.84s-2.48-3.61-6.95-9a181.77,181.77,0,0,0-24.52-20A190.83,190.83,0,0,1,207.2,171.1Z"/>
<path class="logo-11" d="m223.53 184.75c-7.89 10.78-50.74 65.88-102.43 65.88-48 0-88.41-47.55-100.23-62.95-0.86 1.17-1.32 1.83-1.32 1.83s46.45 67.72 103.75 67.72 103.75-67.72 103.75-67.72-1.23-1.79-3.52-4.76z"/>
<path class="logo-12" d="M32.28,137,16.86,91.28,54.3,118.81Zm183.3,0L231,91.28l-37.43,27.53Zm-36.07-25.29,3.15-48.11-29.1,36.22ZM91.65,99.79,62.55,63.57l3.15,48.11Zm45.4-9.33L123.24,46.1,108.55,92Z"/>
<path class="logo-13" d="m164.4 188.82a41.1 41.1 0 1 1-41.1-41.11 41.1 41.1 0 0 1 41.1 41.11z"/>
<path class="logo-14" d="M151.53,159a34.63,34.63,0,0,1,.76,7.25,35,35,0,0,1-68.36,10.83A41.1,41.1,0,1,0,151.53,159Z"/>
<path class="logo-14" d="m152.29 188.82a29 29 0 1 1-29-29 29 29 0 0 1 29 29z"/>
<path class="logo-8" d="m148.26 188.82a25 25 0 1 1-25-25 25 25 0 0 1 25 25z"/>
<polygon class="logo-13" points="136.51 182.21 125.14 182.21 125.14 172.3 120.73 172.3 120.73 182.21 108.99 182.21 108.99 186.61 120.73 186.61 120.73 203.49 125.14 203.49 125.14 186.61 136.51 186.61"/>
<circle class="logo-15" cx="101.28" cy="166.07" r="16.88"/>
<path class="logo-16" d="m153.4 203.5a10.28 10.28 0 1 1-10.28-10.28 10.27 10.27 0 0 1 10.28 10.28z"/>
<g class="logo-17">
<path class="logo-18" d="m61.68 155.82c1.82 2.17-0.11 6.79-4.31 10.33s-9.1 4.67-10.92 2.5 0.12-6.78 4.33-10.33 9.08-4.66 10.9-2.5z"/>
<path class="logo-18" d="m74.83 148c0.66 1.7-1.47 4.11-4.78 5.4s-6.5 1-7.16-0.74 1.47-4.11 4.77-5.4 6.51-0.91 7.17 0.74z"/>
</g>
<path class="logo-10" d="m180.29 230.12c-1.68-2.28 0.55-6.77 5-10s9.38-4.05 11.06-1.77-0.56 6.76-5 10-9.35 4.05-11.06 1.77z"/>
<path class="logo-10" d="m166.65 237c-0.54-1.74 1.75-4 5.13-5.08s6.55-0.52 7.1 1.22-1.74 4-5.12 5.06-6.56 0.55-7.11-1.2z"/>
<path class="logo-19" d="M17.71,93.8l26.74,33.13L32.28,137ZM231,91.28l-37.43,27.53,13.8,11.38Zm-62.66,15.28,14.33-43-29.1,36.22Zm-87.51-1.81L62.55,63.57l3.15,48.11Zm42.94-13.56-.52-45.09L108.55,92Z"/>
<path class="logo-16" d="M163,0c-11,0-32,14.67-39.42,20.06C116.18,14.67,95.11,0,84.14,0a25.32,25.32,0,0,0,0,50.64c11,0,32-14.66,39.41-20C130.93,36,152,50.64,163,50.64A25.32,25.32,0,0,0,163,0ZM84.14,41.84c-9.11,0-15-7.15-15-16.26S75,8.81,84.14,8.81c6.29,0,21.13,9,31.66,16.51C105.28,32.78,90.44,41.84,84.14,41.84Zm78.83,0c-6.29,0-21.13-9.06-31.66-16.52C141.83,17.86,156.67,8.81,163,8.81a16.52,16.52,0,0,1,0,33Z"/>
<path class="logo-20" d="M177.3,33.5A16.52,16.52,0,0,1,163,41.84c-2.5,0-6.35-1.45-10.74-3.63-6.28-2.44-15.22-8-22-12.89,6.82-4.83,15.76-10.45,22-12.88,4.39-2.19,8.25-3.63,10.75-3.63a16.52,16.52,0,0,1,14.33,8.33,21.7,21.7,0,0,0-20-13.47c-9.38,0-27.4,12.54-33.71,17.15-6.3-4.61-24.32-17.15-33.7-17.15a21.7,21.7,0,0,0-20,13.47A16.52,16.52,0,0,1,84.14,8.81c2.5,0,6.35,1.44,10.74,3.63,6.28,2.43,15.22,8,22,12.88-6.82,4.84-15.76,10.45-22,12.88-4.39,2.19-8.25,3.64-10.75,3.64A16.52,16.52,0,0,1,69.81,33.5,21.69,21.69,0,0,0,89.85,47c9.38,0,27.4-12.55,33.7-17.16C129.86,34.43,147.88,47,157.26,47A21.69,21.69,0,0,0,177.3,33.5Z"/>
<path class="logo-21" d="M69.86,10.28c1,.94.38,3.33-1.45,5.33s-4.16,2.87-5.19,1.93-.38-3.33,1.45-5.34S68.83,9.33,69.86,10.28Z"/>
<path class="logo-21" d="M75.81,5.62c.43.79-.46,2.11-2,3s-3.13.89-3.56.1.46-2.11,2-2.95S75.37,4.83,75.81,5.62Z"/>
<path class="logo-21" d="m181.36 33.76c-1.31-0.5-1.57-3-0.6-5.5s2.82-4.19 4.12-3.69 1.58 3 0.6 5.5-2.82 4.19-4.12 3.69z"/>
<path class="logo-21" d="M177.53,40.26c-.69-.57-.35-2.13.77-3.47s2.59-2,3.28-1.39.35,2.13-.77,3.47S178.22,40.84,177.53,40.26Z"/>
<path class="logo-22" d="M131.28,26.55c.09.17-3.08,2.3-7.72,5.69a145.9,145.9,0,0,1-17.83,11.44A45.09,45.09,0,0,1,95,47.75a22.5,22.5,0,0,1-10.33,0A17.86,17.86,0,0,1,78,44.4,16.1,16.1,0,0,1,76.42,43l-.54-.51s-.68-.76-1.76-2.14a29.83,29.83,0,0,1-3.56-6.31,24.3,24.3,0,0,1,1.5-21.24,21.12,21.12,0,0,1,8.22-8.11A18.61,18.61,0,0,1,90,2.46,20.65,20.65,0,0,1,96.89,4a8.52,8.52,0,0,1,2.35,1.23c-.09.33-3.61-1.61-9.22-1.61a17.82,17.82,0,0,0-8.94,2.54,19.41,19.41,0,0,0-7.23,7.7,22.42,22.42,0,0,0-2.63,10.23A22,22,0,0,0,73,33a27.42,27.42,0,0,0,3.36,5.61c1,1.22,1.6,1.87,1.6,1.87l.46.45a12.34,12.34,0,0,0,1.32,1.22,15.16,15.16,0,0,0,5.58,3,20,20,0,0,0,9.14.2,44,44,0,0,0,10.35-3.56c6.84-3.22,13.23-7.49,18.1-10.54S131.18,26.37,131.28,26.55Z"/>
<path class="logo-22" d="M153.12,48.4c0-.27,3.09-.57,7.32-2.32l1.65-.69,1.68-.9a33.8,33.8,0,0,0,3.5-2.13,30.94,30.94,0,0,0,6.47-6c3.86-4.57,5.49-10.64,4.43-14.83a16.85,16.85,0,0,0-.8-2.81l-.93-2.06a7.88,7.88,0,0,0-.77-1.25c-.19-.29-.3-.43-.3-.43l-1.06-1.68-1.5-1.63c-.62-.58-1.42-1.15-2.27-1.8a22.93,22.93,0,0,0-6.88-2.78,33.44,33.44,0,0,0-8.7-.75,43.21,43.21,0,0,0-16.1,3.76c-4.16,1.88-6.44,4-6.61,3.81s.45-.64,1.44-1.59a26.19,26.19,0,0,1,4.66-3.23,41.81,41.81,0,0,1,16.49-4.79,34.37,34.37,0,0,1,9.32.45A24.79,24.79,0,0,1,172,7.63a29.61,29.61,0,0,1,2.74,2l1.85,1.91,1.27,1.86.31.5a9.06,9.06,0,0,1,.84,1.45l1,2.42a19.72,19.72,0,0,1,.83,3.31c1.08,5-1.13,11.89-5.49,16.59a32.51,32.51,0,0,1-7.15,6,35.56,35.56,0,0,1-3.77,2l-1.81.81-1.74.59a18.7,18.7,0,0,1-3.11.84,14.88,14.88,0,0,1-2.45.4A6.37,6.37,0,0,1,153.12,48.4Z"/>
</g>
</g>
</g>
</svg>
