<?xml version="1.0" encoding="UTF-8"?>
<svg viewBox="0 0 336.01 341.53" xmlns="http://www.w3.org/2000/svg" xmlns:xlink="http://www.w3.org/1999/xlink">
<defs>
<style>.cls-1{isolation:isolate;}.cls-10,.cls-100,.cls-102,.cls-103,.cls-106,.cls-107,.cls-108,.cls-109,.cls-11,.cls-110,.cls-111,.cls-112,.cls-113,.cls-114,.cls-115,.cls-116,.cls-117,.cls-118,.cls-119,.cls-12,.cls-120,.cls-121,.cls-122,.cls-123,.cls-124,.cls-13,.cls-14,.cls-15,.cls-16,.cls-17,.cls-18,.cls-19,.cls-2,.cls-20,.cls-21,.cls-22,.cls-23,.cls-24,.cls-25,.cls-26,.cls-27,.cls-28,.cls-29,.cls-3,.cls-30,.cls-31,.cls-32,.cls-33,.cls-34,.cls-35,.cls-36,.cls-37,.cls-38,.cls-39,.cls-4,.cls-40,.cls-41,.cls-42,.cls-43,.cls-44,.cls-45,.cls-46,.cls-47,.cls-48,.cls-5,.cls-50,.cls-51,.cls-52,.cls-53,.cls-54,.cls-55,.cls-56,.cls-57,.cls-58,.cls-59,.cls-6,.cls-60,.cls-61,.cls-62,.cls-63,.cls-64,.cls-65,.cls-66,.cls-67,.cls-68,.cls-69,.cls-7,.cls-70,.cls-71,.cls-72,.cls-73,.cls-77,.cls-79,.cls-8,.cls-80,.cls-82,.cls-87,.cls-9,.cls-91,.cls-92,.cls-98,.cls-99{fill-rule:evenodd;}.cls-2{fill:url(#bd);}.cls-3{fill:url(#bq);}.cls-4{fill:url(#dg);}.cls-5{fill:url(#e);}.cls-6{fill:url(#bb);}.cls-7{fill:url(#ba);}.cls-8{fill:url(#av);}.cls-9{fill:url(#v);}.cls-10{fill:url(#az);}.cls-11{fill:url(#ay);}.cls-12{fill:url(#ax);}.cls-13{fill:url(#cz);}.cls-14{fill:url(#aw);}.cls-100,.cls-101,.cls-107,.cls-108,.cls-109,.cls-110,.cls-111,.cls-112,.cls-113,.cls-114,.cls-115,.cls-117,.cls-118,.cls-119,.cls-120,.cls-121,.cls-123,.cls-124,.cls-15,.cls-18,.cls-43,.cls-44,.cls-45,.cls-74,.cls-75,.cls-76,.cls-77,.cls-78,.cls-79,.cls-80,.cls-83,.cls-84,.cls-88,.cls-89,.cls-90,.cls-91,.cls-92,.cls-93,.cls-94,.cls-95,.cls-96,.cls-97,.cls-98,.cls-99{mix-blend-mode:screen;}.cls-15{fill:url(#o);}.cls-16,.cls-17,.cls-21,.cls-35,.cls-36,.cls-37,.cls-38,.cls-39,.cls-40,.cls-41,.cls-42,.cls-46,.cls-47,.cls-48{opacity:0.5;}.cls-122,.cls-16,.cls-17,.cls-20,.cls-21,.cls-22,.cls-23,.cls-24,.cls-25,.cls-26,.cls-27,.cls-28,.cls-29,.cls-30,.cls-35,.cls-36,.cls-37,.cls-38,.cls-39,.cls-40,.cls-41,.cls-42,.cls-46,.cls-47,.cls-48,.cls-82{mix-blend-mode:multiply;}.cls-16{fill:url(#p);}.cls-17{fill:url(#aj);}.cls-18{fill:url(#ai);}.cls-19{fill:url(#w);}.cls-122,.cls-20,.cls-22,.cls-23,.cls-24,.cls-25,.cls-26,.cls-27,.cls-28,.cls-29,.cls-30{opacity:0.3;}.cls-20{fill:url(#a);}.cls-21{fill:url(#bl);}.cls-22{fill:url(#bk);}.cls-23{fill:url(#bj);}.cls-24{fill:url(#bi);}.cls-25{fill:url(#bh);}.cls-26{fill:url(#bg);}.cls-27{fill:url(#bf);}.cls-28{fill:url(#be);}.cls-29{fill:url(#bp);}.cls-30{fill:url(#bo);}.cls-31{fill:url(#bc);}.cls-32{fill:url(#aa);}.cls-33{fill:url(#q);}.cls-34{fill:url(#au);}.cls-35{fill:url(#b);}.cls-36{fill:url(#ar);}.cls-37{fill:url(#aq);}.cls-38{fill:url(#ap);}.cls-39{fill:url(#ao);}.cls-40{fill:url(#an);}.cls-41{fill:url(#am);}.cls-42{fill:url(#al);}.cls-43{fill:url(#h);}.cls-44{fill:url(#z);}.cls-45{fill:url(#y);}.cls-46{fill:url(#ak);}.cls-47{fill:url(#at);}.cls-48{fill:url(#as);}.cls-49{fill:url(#c);}.cls-50{fill:url(#do);}.cls-51{fill:url(#d);}.cls-52{fill:url(#k);}.cls-53{fill:url(#dn);}.cls-54{fill:url(#ah);}.cls-55{fill:url(#df);}.cls-56{fill:url(#dm);}.cls-57{fill:url(#ag);}.cls-58{fill:url(#de);}.cls-59{fill:url(#dl);}.cls-60{fill:url(#af);}.cls-61{fill:url(#dd);}.cls-62{fill:url(#dk);}.cls-63{fill:url(#ae);}.cls-64{fill:url(#j);}.cls-65{fill:url(#dj);}.cls-66{fill:url(#ad);}.cls-67{fill:url(#dc);}.cls-68{fill:url(#di);}.cls-69{fill:url(#ac);}.cls-70{fill:url(#db);}.cls-71{fill:url(#dh);}.cls-72{fill:url(#ab);}.cls-73{fill:url(#da);}.cls-74{fill:url(#n);}.cls-75{fill:url(#cy);}.cls-76{fill:url(#cx);}.cls-77{fill:url(#m);}.cls-78{fill:url(#cw);}.cls-79{fill:url(#cv);}.cls-80{fill:url(#x);}.cls-81{fill:url(#cu);}.cls-82{opacity:0.2;fill:url(#bn);}.cls-83{fill:url(#l);}.cls-84{fill:url(#cf);}.cls-85{fill:url(#ce);}.cls-86{fill:url(#cg);}.cls-87{fill:url(#ct);}.cls-88{fill:url(#f);}.cls-89{fill:url(#g);}.cls-90{fill:url(#cm);}.cls-91{fill:url(#cs);}.cls-92{fill:url(#cl);}.cls-93{fill:url(#cr);}.cls-94{fill:url(#ck);}.cls-95{fill:url(#cq);}.cls-96{fill:url(#cj);}.cls-97{fill:url(#cp);}.cls-98{fill:url(#ci);}.cls-99{fill:url(#co);}.cls-100{fill:url(#ch);}.cls-101{fill:url(#cn);}.cls-102{fill:url(#r);}.cls-103,.cls-104{fill:#fff;}.cls-105{mix-blend-mode:soft-light;}.cls-106{fill:#90ffff;}.cls-107{fill:url(#i);}.cls-108{fill:url(#cb);}.cls-109{fill:url(#ca);}.cls-110{fill:url(#cd);}.cls-111{fill:url(#cc);}.cls-112{fill:url(#bz);}.cls-113{opacity:0.8;fill:url(#by);}.cls-114,.cls-117,.cls-123,.cls-124{opacity:0.83;}.cls-114{fill:url(#bx);}.cls-115{opacity:0.78;fill:url(#bw);}.cls-116{fill:url(#br);}.cls-117{fill:url(#bv);}.cls-118{fill:url(#u);}.cls-119{fill:url(#t);}.cls-120{fill:url(#bu);}.cls-121{fill:url(#bt);}.cls-122{fill:url(#bm);}.cls-123{fill:url(#s);}.cls-124{fill:url(#bs);}</style>
<linearGradient id="bd" x1="26.04" x2="135.12" y1="253.6" y2="253.6" gradientUnits="userSpaceOnUse">
<stop stop-color="#5b0955" offset=".01"/>
<stop stop-color="#610248" offset="1"/>
</linearGradient>
<linearGradient id="bq" x1="177.74" x2="177.74" y1="323.57" y2="262.8" gradientUnits="userSpaceOnUse">
<stop stop-color="#540066" offset="0"/>
<stop stop-color="#4f006a" offset="1"/>
</linearGradient>
<linearGradient id="dg" x1="168.13" x2="168.13" y1="341.53" y2="136.73" gradientUnits="userSpaceOnUse">
<stop stop-color="#881e2e" offset="0"/>
<stop stop-color="#7a121f" offset="1"/>
</linearGradient>
<linearGradient id="e" x1="117.88" x2="117.88" y1="163.07" y2="126.04" gradientUnits="userSpaceOnUse">
<stop stop-color="#e05c55" offset="0"/>
<stop stop-color="#ff8b36" offset="1"/>
</linearGradient>
<linearGradient id="bb" x1="141.47" x2="141.47" y1="330.97" y2="171.47" xlink:href="#e"/>
<linearGradient id="ba" x1="26.07" x2="321.07" y1="116.79" y2="116.79" xlink:href="#e"/>
<linearGradient id="av" x1="26.07" x2="321.07" y1="125.48" y2="125.48" gradientUnits="userSpaceOnUse">
<stop stop-color="#74142a" offset="0"/>
<stop stop-color="#9e391d" offset="1"/>
</linearGradient>
<linearGradient id="v" x1="133.79" x2="133.79" y1="341.53" y2="137.98" gradientUnits="userSpaceOnUse">
<stop stop-color="#932a2e" offset="0"/>
<stop stop-color="#86191f" offset="1"/>
</linearGradient>
<linearGradient id="az" x1="103.31" x2="103.31" y1="341.24" y2="330.81" xlink:href="#e"/>
<linearGradient id="ay" x1="-1094.7" x2="-1094.7" y1="163.07" y2="124.29" gradientTransform="matrix(-1 0 0 1 -875.73 0)" xlink:href="#e"/>
<linearGradient id="ax" x1="-1071.1" x2="-1071.1" y1="330.97" y2="171.47" gradientTransform="matrix(-1 0 0 1 -875.73 0)" xlink:href="#e"/>
<linearGradient id="cz" x1="-1078.8" x2="-1078.8" y1="341.53" y2="136.23" gradientTransform="matrix(-1 0 0 1 -875.73 0)" xlink:href="#v"/>
<linearGradient id="aw" x1="-1109.2" x2="-1109.2" y1="341.24" y2="330.81" gradientTransform="matrix(-1 0 0 1 -875.73 0)" xlink:href="#e"/>
<linearGradient id="o" x1="172.81" x2="172.81" y1="122.76" y2="110.25" gradientUnits="userSpaceOnUse">
<stop offset="0"/>
<stop stop-color="#d8893d" offset="1"/>
</linearGradient>
<linearGradient id="p" x1="219.42" x2="219.42" y1="139.52" y2="124.36" gradientUnits="userSpaceOnUse">
<stop stop-color="#ae5b57" offset="0"/>
<stop stop-color="#770064" offset="1"/>
</linearGradient>
<linearGradient id="aj" x1="117.88" x2="117.88" y1="141.14" y2="125.64" xlink:href="#p"/>
<linearGradient id="ai" x1="36.31" x2="36.31" y1="123.34" y2="110.25" xlink:href="#o"/>
<linearGradient id="w" x1="23.54" x2="321.67" y1="213.66" y2="213.66" gradientUnits="userSpaceOnUse">
<stop stop-color="#65028e" offset="0"/>
<stop stop-color="#9f2b84" offset="1"/>
</linearGradient>
<linearGradient id="a" x1="66.49" x2="66.49" y1="318.86" y2="116.79" gradientUnits="userSpaceOnUse">
<stop stop-color="#770064" offset="0"/>
<stop stop-color="#ba74ae" offset="1"/>
</linearGradient>
<linearGradient id="bl" x1="177.42" x2="177.42" y1="303.88" y2="143.68" xlink:href="#a"/>
<linearGradient id="bk" x1="140.18" x2="140.18" y1="318.63" y2="124.36" xlink:href="#a"/>
<linearGradient id="bj" x1="235.98" x2="235.98" y1="319.15" y2="164.96" xlink:href="#a"/>
<linearGradient id="bi" x1="293.14" x2="293.14" y1="316.38" y2="122.5" xlink:href="#a"/>
<linearGradient id="bh" x1="177.02" x2="177.02" y1="316.38" y2="146.08" xlink:href="#a"/>
<linearGradient id="bg" x1="139.24" x2="139.24" y1="315.31" y2="137.99" xlink:href="#a"/>
<linearGradient id="bf" x1="177.02" x2="177.02" y1="316.38" y2="176.4" xlink:href="#a"/>
<linearGradient id="be" x1="286.61" x2="286.61" y1="314.89" y2="165.84" xlink:href="#a"/>
<linearGradient id="bp" x1="239.45" x2="239.45" y1="317.63" y2="193.95" xlink:href="#a"/>
<linearGradient id="bo" x1="84.53" x2="84.53" y1="315.89" y2="160.04" xlink:href="#a"/>
<linearGradient id="bc" x1="174.74" x2="174.74" y1="314.89" y2="103.5" gradientUnits="userSpaceOnUse">
<stop stop-color="#9c0244" offset=".01"/>
<stop stop-color="#ff023e" offset="1"/>
</linearGradient>
<linearGradient id="aa" x1="25.5" x2="321.06" y1="245.37" y2="245.37" gradientUnits="userSpaceOnUse">
<stop stop-color="#fc6b42" offset="0"/>
<stop stop-color="#ffe036" offset=".89"/>
<stop stop-color="#ffa136" offset=".97"/>
</linearGradient>
<linearGradient id="q" x1="325.18" x2="322.1" y1="213.46" y2="206.21" gradientUnits="userSpaceOnUse">
<stop stop-color="#fc6b42" offset="0"/>
<stop stop-color="#ffe036" offset=".56"/>
<stop stop-color="#ffa136" offset=".97"/>
</linearGradient>
<linearGradient id="au" x1="321.99" x2="319.54" y1="221.63" y2="215.86" xlink:href="#q"/>
<linearGradient id="b" x1="50.78" x2="50.78" y1="292.77" y2="123.34" gradientUnits="userSpaceOnUse">
<stop stop-color="#890050" offset="0"/>
<stop stop-color="#db6d57" offset="1"/>
</linearGradient>
<linearGradient id="ar" x1="71.45" x2="71.45" y1="265.07" y2="118.42" xlink:href="#b"/>
<linearGradient id="aq" x1="129.96" x2="129.96" y1="226.66" y2="148.12" xlink:href="#b"/>
<linearGradient id="ap" x1="161.31" x2="161.31" y1="209.54" y2="106.51" xlink:href="#b"/>
<linearGradient id="ao" x1="193.32" x2="193.32" y1="216.71" y2="106.59" xlink:href="#b"/>
<linearGradient id="an" x1="233.45" x2="233.45" y1="225.11" y2="140.9" xlink:href="#b"/>
<linearGradient id="am" x1="320.43" x2="320.43" y1="226.65" y2="113.48" xlink:href="#b"/>
<linearGradient id="al" x1="264.5" x2="264.5" y1="272.69" y2="116.79" xlink:href="#b"/>
<linearGradient id="h" x1="309.7" x2="309.7" y1="265.26" y2="112.37" gradientUnits="userSpaceOnUse">
<stop stop-color="#6d2452" offset="0"/>
<stop offset="1"/>
</linearGradient>
<linearGradient id="z" x1="109.87" x2="109.87" y1="237.62" y2="104.25" xlink:href="#h"/>
<linearGradient id="y" x1="225.99" x2="225.99" y1="227.18" y2="104.47" xlink:href="#h"/>
<linearGradient id="ak" x1="22.87" x2="23.28" y1="116.95" y2="116.95" xlink:href="#b"/>
<linearGradient id="at" x1="320.95" x2="321.39" y1="114.01" y2="114.01" xlink:href="#b"/>
<linearGradient id="as" x1="22.68" x2="322.07" y1="130" y2="130" xlink:href="#b"/>
<linearGradient id="c" x1="169.15" x2="169.15" y1="125.32" y2="103.81" gradientUnits="userSpaceOnUse">
<stop stop-color="#57384e" offset="0"/>
<stop stop-color="#54294e" offset="1"/>
</linearGradient>
<linearGradient id="do" x1="295.49" x2="295.49" y1="-181.71" y2="-187.09" gradientTransform="translate(-44.46 159.62) rotate(24.14)" xlink:href="#c"/>
<linearGradient id="d" x1="295.89" x2="295.89" y1="-181.53" y2="-183.64" gradientTransform="translate(-44.46 159.62) rotate(24.14)" gradientUnits="userSpaceOnUse">
<stop stop-color="#33002c" offset="0"/>
<stop stop-color="#39152f" offset="1"/>
</linearGradient>
<radialGradient id="k" cx="296.01" cy="-181.61" r="4.67" gradientTransform="translate(-44.46 159.62) rotate(24.14)" gradientUnits="userSpaceOnUse">
<stop stop-color="#ffd500" offset="0"/>
<stop stop-color="#ffff63" offset="1"/>
</radialGradient>
<linearGradient id="dn" x1="199.35" x2="199.35" y1="-138.63" y2="-144.01" gradientTransform="translate(-44.46 159.62) rotate(24.14)" xlink:href="#c"/>
<linearGradient id="ah" x1="199.76" x2="199.76" y1="-138.45" y2="-140.56" xlink:href="#d"/>
<radialGradient id="df" cx="199.87" cy="-138.53" r="4.67" xlink:href="#k"/>
<linearGradient id="dm" x1="115.6" x2="115.6" y1="62.98" y2="57.6" gradientTransform="translate(-18.1 31.09) rotate(11.3)" xlink:href="#c"/>
<linearGradient id="ag" x1="116.01" x2="116.01" y1="63.16" y2="61.06" gradientTransform="translate(-18.1 31.09) rotate(11.3)" xlink:href="#d"/>
<radialGradient id="de" cx="116.13" cy="63.08" r="4.67" gradientTransform="translate(-18.1 31.09) rotate(11.3)" xlink:href="#k"/>
<linearGradient id="dl" x1="-1021.1" x2="-1021.1" y1="-520.76" y2="-526.14" gradientTransform="translate(-1064 520.32) rotate(132.38)" xlink:href="#c"/>
<linearGradient id="af" x1="-1020.7" x2="-1020.7" y1="-520.58" y2="-522.69" gradientTransform="translate(-1064 520.32) rotate(132.38)" xlink:href="#d"/>
<radialGradient id="dd" cx="-1020.6" cy="-520.66" r="4.67" gradientTransform="translate(-1064 520.32) rotate(132.38)" xlink:href="#k"/>
<linearGradient id="dk" x1="-109.53" x2="-109.53" y1="-634.65" y2="-640.03" gradientTransform="translate(-327.75 396.11) rotate(73.52)" xlink:href="#c"/>
<linearGradient id="ae" x1="-109.12" x2="-109.12" y1="-634.47" y2="-636.58" gradientTransform="translate(-327.75 396.11) rotate(73.52)" xlink:href="#d"/>
<radialGradient id="j" cx="-109.01" cy="-634.55" r="4.67" gradientTransform="translate(-327.75 396.11) rotate(73.52)" gradientUnits="userSpaceOnUse">
<stop stop-color="#59d5ff" offset="0"/>
<stop stop-color="#97ffca" offset="1"/>
</radialGradient>
<linearGradient id="dj" x1="157.3" x2="157.3" y1="316.17" y2="310.79" gradientTransform="translate(52.89 -100.07) rotate(-24.92)" xlink:href="#c"/>
<linearGradient id="ad" x1="157.71" x2="157.71" y1="316.35" y2="314.24" gradientTransform="translate(52.89 -100.07) rotate(-24.92)" xlink:href="#d"/>
<radialGradient id="dc" cx="157.82" cy="316.27" r="4.67" gradientTransform="translate(52.89 -100.07) rotate(-24.92)" xlink:href="#j"/>
<linearGradient id="di" x1="230.52" x2="230.52" y1="67.9" y2="62.51" gradientTransform="matrix(.97 .24 -.24 .97 -68.87 -11.09)" xlink:href="#c"/>
<linearGradient id="ac" x1="230.93" x2="230.93" y1="68.08" y2="65.97" gradientTransform="matrix(.97 .24 -.24 .97 -68.87 -11.09)" xlink:href="#d"/>
<radialGradient id="db" cx="231.04" cy="68" r="4.67" gradientTransform="matrix(.97 .24 -.24 .97 -68.87 -11.09)" xlink:href="#j"/>
<linearGradient id="dh" x1="130.35" x2="130.35" y1="112.88" y2="107.5" gradientTransform="matrix(.97 .24 -.24 .97 -68.87 -11.09)" xlink:href="#c"/>
<linearGradient id="ab" x1="130.76" x2="130.76" y1="113.07" y2="110.96" gradientTransform="matrix(.97 .24 -.24 .97 -68.87 -11.09)" xlink:href="#d"/>
<radialGradient id="da" cx="130.87" cy="112.99" r="4.67" gradientTransform="matrix(.97 .24 -.24 .97 -68.87 -11.09)" xlink:href="#j"/>
<radialGradient id="n" cx="273.83" cy="210.93" r="37.24" gradientTransform="translate(-4.98 44.31) scale(.33 .37)" gradientUnits="userSpaceOnUse">
<stop stop-color="#ff8100" offset="0"/>
<stop stop-color="#f57c00" offset=".09"/>
<stop stop-color="#da6e00" offset=".23"/>
<stop stop-color="#ad5800" offset=".42"/>
<stop stop-color="#703900" offset=".64"/>
<stop stop-color="#231200" offset=".89"/>
<stop offset="1"/>
</radialGradient>
<radialGradient id="cy" cx="606.6" cy="207.92" r="37.24" xlink:href="#n"/>
<radialGradient id="cx" cx="928.38" cy="211.63" r="37.24" xlink:href="#n"/>
<radialGradient id="m" cx="595.8" cy="-1014" r="19.61" gradientTransform="matrix(.26 .2 -.23 .29 -139.29 294.21)" gradientUnits="userSpaceOnUse">
<stop stop-color="#1395a6" offset="0"/>
<stop stop-color="#128c9c" offset=".12"/>
<stop stop-color="#0f7481" offset=".32"/>
<stop stop-color="#0a4c55" offset=".58"/>
<stop stop-color="#031618" offset=".89"/>
<stop offset="1"/>
</radialGradient>
<radialGradient id="cw" cx="479.11" cy="491.84" r="30.76" gradientTransform="matrix(.33 0 0 .37 -17.09 -65.21)" xlink:href="#m"/>
<radialGradient id="cv" cx="143.91" cy="532.26" r="26.1" gradientTransform="matrix(.33 -.02 .02 .37 -28.99 -54.27)" xlink:href="#m"/>
<linearGradient id="x" x1="59.42" x2="59.42" y1="276.21" y2="133.38" xlink:href="#h"/>
<radialGradient id="cu" cx="158.95" cy="23.88" r="54.78" gradientUnits="userSpaceOnUse">
<stop stop-color="#8600b1" offset="0"/>
<stop stop-color="#70c7ff" offset=".89"/>
<stop stop-color="#91a1ff" offset="1"/>
</radialGradient>
<linearGradient id="bn" x1="138.93" x2="199.58" y1="27.74" y2="27.74" xlink:href="#a"/>
<radialGradient id="l" cx="172.38" cy="35.82" r="9.2" gradientUnits="userSpaceOnUse">
<stop stop-color="#0043a6" offset="0"/>
<stop stop-color="#003f9c" offset=".12"/>
<stop stop-color="#003481" offset=".32"/>
<stop stop-color="#025" offset=".58"/>
<stop stop-color="#000a18" offset=".89"/>
<stop offset="1"/>
</radialGradient>
<radialGradient id="cf" cx="172.38" cy="35.82" r="5.17" gradientUnits="userSpaceOnUse">
<stop stop-color="#0043a6" offset=".77"/>
<stop stop-color="#003f9c" offset=".79"/>
<stop stop-color="#003481" offset=".84"/>
<stop stop-color="#025" offset=".9"/>
<stop stop-color="#000a18" offset=".97"/>
<stop offset="1"/>
</radialGradient>
<radialGradient id="ce" cx="170.99" cy="34.58" r="5.68" gradientUnits="userSpaceOnUse">
<stop stop-color="#73c4ff" offset="0"/>
<stop stop-color="#fff" offset="1"/>
</radialGradient>
<radialGradient id="cg" cx="171.06" cy="34.65" r="5.38" gradientUnits="userSpaceOnUse">
<stop stop-color="#73c4ff" offset="0"/>
<stop stop-color="#91ffff" offset="1"/>
</radialGradient>
<linearGradient id="ct" x1="172.43" x2="172.43" y1="99.69" y2="72.82" gradientUnits="userSpaceOnUse">
<stop stop-color="#bbd1c7" offset=".01"/>
<stop stop-color="#7a7c97" offset=".97"/>
</linearGradient>
<radialGradient id="f" cx="270.3" cy="-2.78" r="13.37" gradientTransform="translate(74.29 44.31) scale(.38 .37)" gradientUnits="userSpaceOnUse">
<stop stop-color="#511f00" offset="0"/>
<stop stop-color="#311300" offset=".27"/>
<stop stop-color="#160800" offset=".55"/>
<stop stop-color="#060200" offset=".81"/>
<stop offset="1"/>
</radialGradient>
<radialGradient id="g" cx="270.3" cy="-2.78" r="6.63" gradientTransform="translate(74.29 44.31) scale(.38 .37)" gradientUnits="userSpaceOnUse">
<stop stop-color="#511f00" offset="0"/>
<stop stop-color="#1c0b00" offset=".62"/>
<stop offset="1"/>
</radialGradient>
<radialGradient id="cm" cx="249.62" cy="-47.46" r="13.37" xlink:href="#f"/>
<radialGradient id="cs" cx="249.62" cy="-47.46" r="6.63" xlink:href="#g"/>
<radialGradient id="cl" cx="204.51" cy="-60" r="6.63" xlink:href="#f"/>
<radialGradient id="cr" cx="204.51" cy="-60" r="3.28" xlink:href="#g"/>
<radialGradient id="ck" cx="228.93" cy="-7.58" r="6.63" xlink:href="#f"/>
<radialGradient id="cq" cx="228.93" cy="-7.58" r="3.28" xlink:href="#g"/>
<radialGradient id="cj" cx="309.25" cy="-42.97" r="6.63" xlink:href="#f"/>
<radialGradient id="cp" cx="309.25" cy="-42.97" r="3.28" xlink:href="#g"/>
<radialGradient id="ci" cx="321.22" cy="-24.89" r="6.63" xlink:href="#f"/>
<radialGradient id="co" cx="321.22" cy="-24.89" r="3.28" xlink:href="#g"/>
<radialGradient id="ch" cx="246.14" cy="43.18" r="5.6" xlink:href="#f"/>
<radialGradient id="cn" cx="246.14" cy="43.18" r="2.78" xlink:href="#g"/>
<linearGradient id="r" x1="155.5" x2="189.36" y1="100.2" y2="100.2" gradientUnits="userSpaceOnUse">
<stop stop-color="#c28c96" offset="0"/>
<stop stop-color="#e5eecc" offset=".7"/>
<stop stop-color="#c5b3c3" offset=".97"/>
</linearGradient>
<linearGradient id="i" x1="175.22" x2="205.88" y1="24.33" y2="24.33" gradientUnits="userSpaceOnUse">
<stop offset="0"/>
<stop stop-color="#000a18" offset=".11"/>
<stop stop-color="#025" offset=".42"/>
<stop stop-color="#003481" offset=".68"/>
<stop stop-color="#003f9c" offset=".88"/>
<stop stop-color="#0043a6" offset="1"/>
</linearGradient>
<linearGradient id="cb" x1="173.58" x2="202.36" y1="50.81" y2="50.81" xlink:href="#i"/>
<linearGradient id="ca" x1="178.27" x2="178.27" y1="34.72" xlink:href="#i"/>
<linearGradient id="cd" x1="138.93" x2="170.46" y1="21.91" y2="21.91" xlink:href="#l"/>
<linearGradient id="cc" x1="155.79" x2="155.79" y1="65.72" y2="36.83" xlink:href="#l"/>
<linearGradient id="bz" x1="172.7" x2="172.7" y1="68.42" y2="36.83" xlink:href="#i"/>
<linearGradient id="by" x1="138.91" x2="198.97" y1="19.05" y2="19.05" gradientUnits="userSpaceOnUse">
<stop stop-color="#6d5277" offset="0"/>
<stop offset="1"/>
</linearGradient>
<linearGradient id="bx" x1="195.75" x2="195.75" y1="64.95" y2="30.81" gradientUnits="userSpaceOnUse">
<stop offset="0"/>
<stop stop-color="#9aceea" offset=".99"/>
</linearGradient>
<linearGradient id="bw" x1="172.18" x2="172.18" y1="70.39" y2="54.95" gradientUnits="userSpaceOnUse">
<stop stop-color="#f2d8d6" offset="0"/>
<stop offset="1"/>
</linearGradient>
<linearGradient id="br" x1="152.12" x2="193.2" y1="69.11" y2="69.11" xlink:href="#r"/>
<linearGradient id="bv" x1="139.65" x2="152.86" y1="54.45" y2="54.45" gradientUnits="userSpaceOnUse">
<stop stop-color="#9aceea" offset=".01"/>
<stop offset="1"/>
</linearGradient>
<radialGradient id="u" cx="1069.8" cy="438.33" r="11.21" gradientTransform="matrix(.23 -.07 .11 .35 -97.36 -57.43)" gradientUnits="userSpaceOnUse">
<stop stop-color="#bdf6dd" offset="0"/>
<stop stop-color="#94c1ae" offset=".14"/>
<stop stop-color="#688779" offset=".31"/>
<stop stop-color="#43574e" offset=".48"/>
<stop stop-color="#26312c" offset=".63"/>
<stop stop-color="#111614" offset=".78"/>
<stop stop-color="#040605" offset=".9"/>
<stop offset="1"/>
</radialGradient>
<radialGradient id="t" cx="1069.8" cy="438.33" r="5.56" gradientTransform="matrix(.23 -.07 .11 .35 -97.36 -57.43)" gradientUnits="userSpaceOnUse">
<stop stop-color="#51fbff" offset="0"/>
<stop stop-color="#43d1d4" offset=".15"/>
<stop stop-color="#206263" offset=".57"/>
<stop stop-color="#091b1c" offset=".87"/>
<stop offset="1"/>
</radialGradient>
<radialGradient id="bu" cx="523.9" cy="870.16" r="24.95" gradientTransform="matrix(.21 -.12 .19 .32 -128.29 -155.06)" xlink:href="#u"/>
<radialGradient id="bt" cx="523.9" cy="870.16" r="12.36" gradientTransform="matrix(.21 -.12 .19 .32 -128.29 -155.06)" xlink:href="#t"/>
<linearGradient id="bm" x1="161.5" x2="183.93" y1="77.78" y2="77.78" xlink:href="#a"/>
<linearGradient id="s" x1="168.6" x2="168.6" y1="72.83" y2="65.06" gradientUnits="userSpaceOnUse">
<stop offset="0"/>
<stop stop-color="#ffffea" offset=".99"/>
</linearGradient>
<linearGradient id="bs" x1="173.07" x2="173.07" y1="103.21" y2="97.2" xlink:href="#s"/>
</defs>
<g class="cls-1">
<g data-name="Layer 2">
<path class="cls-2" d="M26.07,314.89c.55,10.64,69-25.55,94.75-59.1s8.85-65.37,8.85-65.37S23.8,271.11,26.07,314.89Z"/>
<path class="cls-3" d="M321.06,320.75s-8.5,4.32-29.72,2.05-22.74-10.61-51.71-2.06c-27.88,8.24-58.34-4.28-74.52-3.14s-28,4.72-54.53.19-64.8-3.32-64.8-3.32l-9.47,3.35-1.9-38.35L152.26,262.8H264.05l39.79,37.51Z"/>
<polygon class="cls-4" points="162.12 136.73 165.5 341.16 172.14 341.53 174.14 137.51"/>
<path class="cls-5" d="m94.28 126.12s5.76 14.77 17.27 23.41 29.92 13.54 29.92 13.54-32.57-14.91-40.77-37z"/>
<path class="cls-6" d="m120.82 330.42s23.5-1.14 30.14-14.89c8.12-16.81 7.25-125.54 2.21-132.91s-21.41-11.15-21.41-11.15 21.19 3.68 26.06 9.88 6.54 109.26 0 131.83-37 17.24-37 17.24z"/>
<polygon class="cls-7" points="31.19 110.25 26.07 123.34 321.07 122.61 314.43 110.25"/>
<polygon class="cls-8" points="26.07 123.34 29.58 128.34 311.9 125.27 321.07 122.61"/>
<path class="cls-9" d="M100.7,138.38s3.54,13.9,14.67,23.27c15,12.62,33.41,13.72,39.61,21.69s7.09,107.72.79,128.75c-5.75,19.23-46.35,18.72-46.35,18.72l-7.58,10.43s45.91,3.12,56.87-11.06,7.73-156,7.73-156-8.58-1.53-19.91-14.26c-11-12.32-12.26-21.9-12.26-21.9Z"/>
<polygon class="cls-10" points="109.42 330.81 100.52 330.81 97.2 341.24 101.84 341.24"/>
<path class="cls-11" d="m242.54 124.36s-5.75 16.53-17.26 25.17-29.92 13.54-29.92 13.54 32.57-16.66 40.76-38.78z"/>
<path class="cls-12" d="m216 330.42s-23.5-1.14-30.14-14.89c-8.12-16.81-7.25-125.54-2.21-132.91s21.41-11.15 21.41-11.15-21.19 3.68-26.06 9.88-6.54 109.26 0 131.83 37 17.24 37 17.24z"/>
<path class="cls-13" d="M236.12,136.63s-3.53,15.65-14.66,25c-15,12.62-33.42,13.72-39.61,21.69s-7.09,107.72-.79,128.75c5.75,19.23,46.35,18.72,46.35,18.72L235,341.24s-45.92,3.12-56.87-11.06-7.73-156-7.73-156,8.58-1.53,19.91-14.26c11-12.32,12.26-23.65,12.26-23.65Z"/>
<polygon class="cls-14" points="227.41 330.81 236.31 330.81 239.63 341.24 234.99 341.24"/>
<polygon class="cls-15" points="31.19 110.25 232.88 111.38 242.92 122.76 303.22 122.61 301.63 112.44 314.43 110.25"/>
<path class="cls-16" d="m240.69 128.83-7.49 1.43-36.91 9.26s5.2-8.49 6.11-14.69l40.14-0.47z"/>
<path class="cls-17" d="M96.35,130.55l5.49-1.05,39.63,11.64a43.32,43.32,0,0,1-7.2-15.5l-40,.48Z"/>
<path class="cls-18" d="m33.65 110.28a93.41 93.41 0 0 0-2.46 13h6.93s2.16-9.24 3.32-13.09z"/>
<path class="cls-19" d="m321.06 320.75a27.79 27.79 0 0 1-13.38-4.37c-4.91-2.93-8.7-6.06-16.21-5-6.81 0.93-9.14 2.19-11.61 3.55a30.93 30.93 0 0 1-9.75 3.58c-5.67 1.23-13 0.65-19.7-0.2-7-0.87-13.38-2-16.86-1.73s-7.07 1.54-11.79 2.61a60.61 60.61 0 0 1-18.67 1.4c-15.4-1.17-16.34-5.6-18.36-6.47a12.29 12.29 0 0 0-3.72-0.76 23.69 23.69 0 0 0-6.23 0.33 9.49 9.49 0 0 0-4.75 2.73 20.7 20.7 0 0 1-3.9 3c-3.61 2-12 0.19-13.13-0.79s-1.16-4.79-2.7-5.75-11.73-1.15-14.81 0.19c-2 0.88-4.48 2.8-8 4.41a27.24 27.24 0 0 1-6.62 2.13c-7.28 1.35-18.89 1.16-22 0-2-0.73-2.6-2.41-3.15-3.72a3.32 3.32 0 0 0-1.09-1.66c-1.34-0.77-13.85-1.54-19.24-0.39s-5.77 3.47-15 4.63c-7.82 1-19.65-0.17-23.08-0.55h-0.22-0.22l-0.53-0.06-12.8-209.14c4.75-2.31 295.08-3.94 297.52 1.53 1.37 3.05 0 210.5 0 210.5z"/>
<path class="cls-20" d="M95.7,315.89a3.32,3.32,0,0,0-1.09-1.66c-1.34-.77-13.85-1.54-19.24-.39-.53.11-1,.24-1.47.37-4.08,1.24-5.21,3.21-13.54,4.26-7.82,1-19.65-.17-23.08-.55,3.95.34,18.81,1.28,21.76-4C62.39,308,61,125.42,69.9,117.09a1,1,0,0,1,.51-.29c2.88-.54,6.35,17.65,9.78,43.23h0C88,218.6,95.7,315.89,95.7,315.89Z"/>
<path class="cls-21" d="m35.07 297.51s22.08-20.19 28.14-21.45 10.1 3 18.69 0 8.19-24.84 8.19-24.84 32.12-26.87 43.29-28.17c0 0 5.37 10.82 10.67 12.08s7.58-15.69 7.58-15.69 9.11-6.5 19.58-2.73c0 0 1.36 7.57 10.34 4.78 0 0 5-4.3 13.81-2.05s26.64 16.2 26.64 16.2 10.89 7 15.55 6.42 4.25-4.1 4.25-4.1 18.2 13.09 24.26 20.42 13.54 25.52 13.54 25.52 10.72 21 17 20 11-15.41 11-15.41l12.75-46.38-136.26-98.43-99.56 21.32-50.12 51.71z"/>
<path class="cls-22" d="M152.92,318.63c-1.16-1-1.16-4.79-2.7-5.75a10.32,10.32,0,0,0-3.55-.65c-3.71-.28-9.15-.08-11.26.84a44.17,44.17,0,0,0-3.95,2.24,39.67,39.67,0,0,1-4,2.17s4.37-191.72,14-193.11S152.92,318.63,152.92,318.63Z"/>
<path class="cls-23" d="m250.4 318.27c-7-0.87-13.38-2-16.86-1.73s-7.07 1.54-11.79 2.61-1.63-139 5.7-153.31 22.95 152.43 22.95 152.43z"/>
<path class="cls-24" d="m307.68 316.38c-4.48-2.67-8-5.51-14.31-5.22-0.61 0-1.24 0.09-1.9 0.18-6.81 0.93-9.14 2.19-11.61 3.55l-1.26-0.07s1.63-59.09 4.68-111.77v-0.29c1.38-23.94 3.07-46.53 5-61.61 1.38-10.65 2.9-17.54 4.54-18.53 9.12-5.46 14.86 193.76 14.86 193.76z"/>
<path class="cls-25" d="m170 316.38s1.05-169.33 4.76-170.3 9.38 166.36 9.38 166.36z"/>
<path class="cls-26" d="M147,312.11l-.34.12c-3.71-.28-9.15-.08-11.26.84a44.17,44.17,0,0,0-3.95,2.24c.23-17,.36-129.11,8.93-171.17.06-.5.11-1,.18-1.44.21-1.78.44-3.35.66-4.71v0c-.06,2.05-2.47,82.12,0,124.77C142.9,291.64,145.48,305.85,147,312.11Z"/>
<path class="cls-27" d="m172.49 316.38s1-109.67 2.86-140c0 0-3.5 113 6.2 136.78z"/>
<path class="cls-28" d="M293.36,311.16c-.61,0-1.24.09-1.9.18-6.81.93-9.14,2.19-11.61,3.55,0,0,4.37-98.17,6.76-149C286.62,165.75,288.8,272,293.36,311.16Z"/>
<path class="cls-29" d="m233.52 316.54s5.29-14.58 5-40.23c-0.37-34-6.52-82.35-5-82.36 6.11 37.28 12.09 123.68 12.09 123.68s-7.61-2.32-12.09-1.09z"/>
<path class="cls-30" d="M95.7,315.89a3.32,3.32,0,0,0-1.09-1.66c-1.34-.77-13.85-1.54-19.24-.39-.53.11-1,.24-1.47.37,0,0-3.26-129.47,6.29-154.17C88,218.6,95.7,315.89,95.7,315.89Z"/>
<path class="cls-31" d="M326.7,213.66l-5,13s-.61,18.08-4.57,24.58c0,0-8.59,35.19-19.45,43.78,0,0-7.06-1.42-31.43-41.78,0,0-.53-.45-1.46-1.21-3-2.44-10-8.08-16.38-12.26,0,0-7.4-8.53-10.82-14.65-1.51-2.71-3.72-1.42-8.23-.08A37,37,0,0,1,219,226.65c-10.16.13-17.4-7.31-22.6-9.94a7.53,7.53,0,0,0-2.79-.9,16.91,16.91,0,0,0-4.13.19,22,22,0,0,1-9.23.24c-5-.83-7.75-4.37-12.14-6.7a17.48,17.48,0,0,0-6.9-2c-4.36-.38-5.94.47-6.61,1.71-.78,1.39-.41,3.28-1.63,4.44s-6.38,1.94-11.71,2.59c-5,.6-10.05,1.09-12.07,1.57-2.92.72-6.41,4.92-10.44,8.84a39.69,39.69,0,0,1-5.47,4.57c-6.45,4.28-24.26,12.83-36.76,10.83a240.73,240.73,0,0,1-10,23A62.1,62.1,0,0,1,45,279.85a72.86,72.86,0,0,0-10,12.92,68.3,68.3,0,0,0-9,22.12s-.23-8.35-.57-21.7h0c-1-38.07-2.84-116.75-2.82-158.08v-1.47c0-6.35.07-11.75.19-15.91,0-.52,0-1,.05-1.49a42.73,42.73,0,0,1,.62-7.51c2.91-8.87,271.16-5.12,297.52,1.53,0,0,.08,1.06.21,3,0,.47.08,1,.12,1.58.15,2.1.34,4.86.57,8.11,0,.5.07,1,.11,1.54,1.48,21.21,4.12,60.73,4.64,79.81C326.83,208.61,326.84,211.9,326.7,213.66Z"/>
<path class="cls-32" d="m321 222.07 0.11 1.32s-5 39.41-22.65 51.78c0 0-19.34-7.15-33.17-34.4 0 0-6.26 0.3-14.84-5.26s-11.73-18.8-16-19.45-7.2 4.7-21.22 2.54-17.3-8.61-19.83-9.11-11.62 3.32-16.29 1.6-18.57-13.6-21.1-13.35-2.78 7.83-6.69 10.48-22.36 3-25.14 4.17-4.67 10.36-22 15.41-29 4.11-31.7 7.14-1.52 22.93-14 29.75-15.72 7.2-17.81 9.09-12 16.59-13 21.11v-1.7c0.76-4.29 11-19.39 13.07-21.29s5.31-2.27 17.81-9.09 11-28.54 13.65-31.57 14.78-0.26 32.08-5.32 19.2-14.27 22-15.41 21.22-1.51 25.14-4.17 4.17-10.23 6.69-10.48 16.42 11.62 21.1 13.35 13.76-2.11 16.29-1.6 5.81 7 19.83 9.11 16.92-3.2 21.22-2.54 7.46 13.89 16 19.45 14.84 5.26 14.84 5.26c14.82 27.72 33.39 32.65 33.39 32.65 14.39-11.97 21.22-44.62 22.22-49.47z"/>
<path class="cls-33" d="m326.79 210.57c0-1.31 0-2.79-0.08-4.42-0.38 2-1.72 5.29-6.14 9.27l-0.14-1.76c4.53-4 5.9-7.41 6.28-9.4 0.07 2.48 0.1 4.61 0.08 6.31z"/>
<path class="cls-34" d="M321.06,221.5l-.11.57-.52-6.52.14-.13Z"/>
<path class="cls-35" d="m66.49 265.07a62.1 62.1 0 0 1-21.49 14.78 72.86 72.86 0 0 0-10 12.92s2-153.89 6.36-169.43c0 0 0.2 136.59 2.45 146.28 3.48 14.67 22.68-4.55 22.68-4.55z"/>
<path class="cls-36" d="m66.49 118.42s7.33 116.92 10 123.64a240.73 240.73 0 0 1-10 23s-0.13-126.56 0-146.64z"/>
<path class="cls-37" d="m141.21 216.25c-5 0.6-10.05 1.09-12.07 1.57-2.92 0.72-6.41 4.92-10.44 8.84s3.62-73.37 7-78.29c3.15-4.51 13.71 57.19 15.51 67.88z"/>
<path class="cls-38" d="m168.06 209.54a17.48 17.48 0 0 0-6.9-2c-4.36-0.38-5.94 0.47-6.61 1.71s0-99.76 6-102.63c5.45-2.62 7.18 82.97 7.51 102.92z"/>
<path class="cls-39" d="m196.35 216.71a7.53 7.53 0 0 0-2.79-0.9 16.91 16.91 0 0 0-4.13 0.19s2.41-108.72 5.92-109.41c3.19-0.59 1.36 92.84 1 110.12z"/>
<path class="cls-40" d="m237.56 225.11c-1.51-2.71-3.72-1.42-8.23-0.08 0 0 5.09-82.43 6.64-84.1s1.59 84.18 1.59 84.18z"/>
<path class="cls-41" d="m326.7 213.66-5 13s-9.17-112.4-7.25-113.16 12.25 100.16 12.25 100.16z"/>
<path class="cls-42" d="m278.59 272.69-8.85-155.9s-9.4 111.33-19.34 124.33l15.82 12.11z"/>
<path class="cls-43" d="m321.07 234.79s-10 33.31-17.61 30.28-5.55-151.78-1.83-152.63 10.17 6 10.17 6 9.9 109.09 9.27 116.35z"/>
<path class="cls-44" d="m100.7 237.62s2.17-130.31 6.47-133.09 7.58 15.15 10.71 36.37c2 13.5 0.82 85.76 0.82 85.76s-7.92 7.62-18 10.96z"/>
<path class="cls-45" d="M216,226.47v-122l20,.54-6.65,120A17.75,17.75,0,0,1,216,226.47Z"/>
<path class="cls-46" d="M23.28,117.56l-.41.16c0-.52,0-1,.05-1.49l.1,0Z"/>
<path class="cls-47" d="m321.39 114.8a4 4 0 0 0-0.44-0.27l0.32-1.31c0.04 0.47 0.08 1 0.12 1.58z"/>
<path class="cls-48" d="M303.11,119.73a2.07,2.07,0,0,1-.24.28,4.29,4.29,0,0,1,.33.31,14.7,14.7,0,0,1,.13,5.85c-.88,5.16-3.88,7.67-4.62,7.51-.53-.12-2.67-4.29-2.72-8.94-.05-4.49,1.18-5.59,1.18-5.59.2-.07.4-.12.59-.17-.11-.1-.21-.18-.32-.3l.38-3.51a124.7,124.7,0,0,0-15.2-3,162.57,162.57,0,0,0-28.34-1.12,3.88,3.88,0,0,1,.33.61,5.74,5.74,0,0,1-.55,5.07l-1.77,1.85a1.43,1.43,0,0,1-.31-.07c0,.35.05.55.05.55a9.58,9.58,0,0,1-3,4c-3.33,2.41-6.62.81-7-.1-.28-.65.55-5.68,3-8.75s3.76-2.37,3.76-2.37c.17.18.32.35.47.53,0-.18,0-.35,0-.55l.57-.5c-7.49.45-14.81,1.21-22,2-10.27,1.07-20.08,2.08-30,2.19a8,8,0,0,1,.2,1.16l-.17,3.13a2.07,2.07,0,0,1-.24.28,4.29,4.29,0,0,1,.33.31,14.7,14.7,0,0,1,.13,5.85c-.88,5.16-3.87,7.67-4.62,7.51-.53-.12-2.67-4.29-2.72-8.94,0-4.49,1.19-5.59,1.19-5.59.2-.07.39-.12.58-.17-.11-.1-.21-.18-.32-.3l.35-3.26h-.73c-13.79-.4-28-2.83-41.72-5.18-2.83-.48-5.62-1-8.36-1.41a5.79,5.79,0,0,1,.2.7l.23,3.12a3,3,0,0,1-.21.34,2.48,2.48,0,0,1,.37.22,14.14,14.14,0,0,1,.86,5.72c-.22,5.3-2.86,8.53-3.61,8.56-.55,0-3.17-3.56-3.79-8.11s.46-5.81.46-5.81l.56-.31-.35-.21-.08-4.37a4.27,4.27,0,0,1,.29-.65c-9.45-1.44-18-2.34-24.76-1.67-8.78.88-16.89,4.81-26.07,9.48a6.82,6.82,0,0,1,.32,1l.33,3.1a3,3,0,0,1-.19.35,3.72,3.72,0,0,1,.37.2,13.9,13.9,0,0,1,1,5.66c0,5.31-2.58,8.7-3.33,8.78-.54.05-3.27-3.34-4-7.86-.75-4.36.28-5.82.28-5.82l.55-.35-.36-.19-.11-2.21c-9.3,4.69-19.91,9.73-33.9,13.52a102.11,102.11,0,0,1-14.09,2.9,6.16,6.16,0,0,1,1.2,2.48l.22,3.11a2.67,2.67,0,0,1-.2.34c.23.13.36.22.36.22a14.17,14.17,0,0,1,.86,5.73c-.22,5.3-2.86,8.52-3.61,8.55-.55,0-3.16-3.56-3.79-8.11-.61-4.4.47-5.8.47-5.8l.55-.31-.35-.21-.08-4.37a4.31,4.31,0,0,1,.73-1.3c-.9.05-1.78.09-2.62.09a32.1,32.1,0,0,1-3.65-.19v-1.47c5.08.6,12.62,0,23.81-3,14-3.81,24.69-8.89,34-13.6l0-.68s.62-2.35,2.68-2.57a2.09,2.09,0,0,1,1.9.94c9.4-4.79,17.66-8.83,26.68-9.73,7-.71,16,.28,25.92,1.82a2.51,2.51,0,0,1,1.38-.48,2.12,2.12,0,0,1,1.82,1c3,.49,6.12,1,9.26,1.55,13.71,2.35,27.88,4.77,41.62,5.17h1a2.69,2.69,0,0,1,2.81-1.29,2.49,2.49,0,0,1,1.6,1.32c10-.08,20-1.11,30.44-2.2,7.79-.82,15.7-1.64,23.82-2.07l.32-.28a2.1,2.1,0,0,1,1.12.21,164.35,164.35,0,0,1,29.84,1.07,126.64,126.64,0,0,1,15.53,3.07,2.58,2.58,0,0,1,2.67-1.12c1.21.25,1.8,1.49,2.09,2.5a128,128,0,0,1,17.56,7l1.39.66c0,.5.07,1,.11,1.54l-1.82-.85a126.06,126.06,0,0,0-17-6.85Z"/>
<path class="cls-49" d="M26.28,125.32c-5.77,0-10-.89-12.55-2.65a6.24,6.24,0,0,1-2.8-4.16c-.55-3,9.08-5.83,12-6.62l.26,1c-5.65,1.52-11.58,4-11.32,5.48a5.25,5.25,0,0,0,2.39,3.51c3.27,2.25,11.51,4.1,32.14.17,15.69-3,27.13-7.1,37.23-10.72,10-3.57,18.56-6.65,28-7.32,9.88-.7,23.72,1,38.37,2.73,13.71,1.65,27.89,3.36,41.63,3.64,11.91.24,23.56-.62,35.89-1.52,17.41-1.28,35.42-2.61,55.1-.75a158,158,0,0,1,37.85,8.08c2.8.94,5.44,1.82,5.84,1.45,0,0,.11-.11,0-.68a9.24,9.24,0,0,0-5.42-6.2l.32-1a10.09,10.09,0,0,1,6.07,6.9,1.72,1.72,0,0,1-.25,1.67c-.83.77-2.71.14-6.84-1.24a156.88,156.88,0,0,0-37.63-8c-19.59-1.84-37.56-.52-54.93.76-12.35.9-24,1.76-36,1.52-13.79-.28-28-2-41.72-3.64-14.61-1.76-28.41-3.42-38.19-2.73-9.32.65-17.86,3.72-27.75,7.26C73.87,115.87,62.39,120,46.63,123A112.72,112.72,0,0,1,26.28,125.32Z"/>
<path class="cls-50" d="m297.85 110.6-0.46 3a8.2 8.2 0 0 0 5.67 0.74l0.16-2.2s-0.24-2.43-2.35-2.74a3.09 3.09 0 0 0-3.02 1.2z"/>
<path class="cls-51" d="m297.39 113.64s3.62-1.38 5.67 0.74c0 0-1.82 2-5.67-0.74z"/>
<path class="cls-52" d="M297.12,114s-1.23.77-1.18,3.93,2.18,6.21,2.72,6.29c.74.11,3.74-1.65,4.62-5.28a7.33,7.33,0,0,0-.14-4.12S301,113.06,297.12,114Z"/>
<path class="cls-53" d="M192.5,110.6l-.46,3a8.2,8.2,0,0,0,5.67.74l.17-2.2s-.25-2.43-2.36-2.74A3.09,3.09,0,0,0,192.5,110.6Z"/>
<path class="cls-54" d="m192 113.64s3.62-1.38 5.67 0.74c0.04 0-1.78 2-5.67-0.74z"/>
<path class="cls-55" d="M191.77,114s-1.23.77-1.18,3.93,2.18,6.21,2.72,6.29c.74.11,3.74-1.65,4.62-5.28a7.39,7.39,0,0,0-.13-4.12S195.63,113.06,191.77,114Z"/>
<path class="cls-56" d="M80.41,112l.22,3.06a8.2,8.2,0,0,0,5.7-.54L86,112.31s-.78-2.31-2.9-2.15A3.1,3.1,0,0,0,80.41,112Z"/>
<path class="cls-57" d="m80.63 115s3.23-2.15 5.7-0.54c0 0.03-1.33 2.39-5.7 0.54z"/>
<path class="cls-58" d="m80.45 115.41s-1 1-0.28 4.1 3.51 5.56 4 5.52c0.75 0 3.28-2.44 3.33-6.17a7.39 7.39 0 0 0-1-4s-2.5-1.19-6.05 0.55z"/>
<path class="cls-59" d="m13.23 116.7-2.74-1.39a8.21 8.21 0 0 0-2.49 5.15l2 0.85s2.38 0.53 3.33-1.37a3.11 3.11 0 0 0-0.1-3.24z"/>
<path class="cls-60" d="m10.49 115.31s0.18 3.87-2.47 5.15c-0.02 0-1.34-2.35 2.47-5.15z"/>
<path class="cls-61" d="M10.26,115s-.35-1.42-3.36-2.36-6.58.13-6.82.62c-.34.67.39,4.07,3.57,6a7.41,7.41,0,0,0,4,1.16S9.92,118.9,10.26,115Z"/>
<path class="cls-62" d="m251.71 107.16-2.61 1.63a8.18 8.18 0 0 0 3.13 4.78l1.78-1.3s1.68-1.77 0.55-3.57a3.11 3.11 0 0 0-2.85-1.54z"/>
<path class="cls-63" d="m249.1 108.79s3.41 1.84 3.13 4.78c0 0-2.71-0.07-3.13-4.78z"/>
<path class="cls-64" d="m248.68 108.8s-1.39-0.43-3.76 1.66-3.29 5.7-3 6.16c0.4 0.64 3.69 1.77 7 0.07a7.36 7.36 0 0 0 3-2.78s-0.04-2.77-3.24-5.11z"/>
<path class="cls-65" d="m324.67 119 2 2.34a8.16 8.16 0 0 0 4.27-3.8l-1.56-1.54s-2-1.4-3.61 0a3.11 3.11 0 0 0-1.1 3z"/>
<path class="cls-66" d="m326.66 121.34s1.33-3.64 4.27-3.8c0 0 0.33 2.69-4.27 3.8z"/>
<path class="cls-67" d="m326.74 121.76s-0.23 1.44 2.19 3.47 6.12 2.41 6.54 2.06 1.2-3.9-1-7a7.39 7.39 0 0 0-3.2-2.59s-2.69 0.55-4.53 4.06z"/>
<path class="cls-68" d="M136.21,106.6l.08,3.07a8.19,8.19,0,0,0,5.71-.28l-.22-2.2s-.67-2.34-2.8-2.28A3.13,3.13,0,0,0,136.21,106.6Z"/>
<path class="cls-69" d="m136.29 109.67s3.32-2 5.71-0.28c0 0-1.43 2.3-5.71 0.28z"/>
<path class="cls-70" d="m136.09 110s-1.07 1-0.47 4.08 3.26 5.72 3.8 5.71c0.75 0 3.38-2.29 3.61-6a7.38 7.38 0 0 0-0.87-4s-2.43-1.33-6.07 0.21z"/>
<path class="cls-71" d="M28.17,126.17l.08,3.07A8.19,8.19,0,0,0,34,129l-.23-2.19s-.67-2.34-2.8-2.28A3.09,3.09,0,0,0,28.17,126.17Z"/>
<path class="cls-72" d="m28.25 129.24s3.31-2 5.71-0.28c0.04 0.04-1.44 2.3-5.71 0.28z"/>
<path class="cls-73" d="M28,129.61s-1.07,1-.46,4.09,3.25,5.71,3.79,5.7c.75,0,3.39-2.29,3.61-6a7.43,7.43,0,0,0-.86-4S31.68,128,28,129.61Z"/>
<ellipse class="cls-74" cx="84.53" cy="122.5" rx="12.18" ry="13.81"/>
<ellipse class="cls-75" cx="193.32" cy="121.38" rx="12.18" ry="13.81"/>
<ellipse class="cls-76" cx="298.51" cy="122.76" rx="12.18" ry="13.81"/>
<path class="cls-77" d="m249.2 118.71c-2.45 3.18-6.71 4-9.51 1.86s-3.11-6.49-0.66-9.67 6.7-4 9.51-1.86 3.1 6.49 0.66 9.67z"/>
<ellipse class="cls-78" transform="translate(-7.56 9.65) rotate(-3.86)" cx="139.49" cy="117.08" rx="10.05" ry="11.4"/>
<path class="cls-79" d="m39.7 138.83c0.36 5.33-3.16 9.9-7.86 10.22s-8.84-3.75-9.16-9.05 3.16-9.9 7.86-10.22 8.8 3.72 9.16 9.05z"/>
<path class="cls-80" d="m52.35 276.21a279.65 279.65 0 0 0 7.07-49c2.14-40.93 0.5-92.77 2-93.79 2.53-1.69 5 131.68 5 131.68s-9.08 9.4-14.07 11.11z"/>
<circle class="cls-81" cx="172.38" cy="35.82" r="35.82"/>
<path class="cls-82" d="M140.28,27.11a35.29,35.29,0,0,0,0,19.35s3.38,4.81,7.5,3.75c3.14-.8,6.75-13.63,9.94-11.09s5.63,11,9.19,12.49,16.05,3.12,25.55-7.17,8-29.8,4.07-31.86-4-3.17-7.39-6-5.8-1.91-10.37-1.19c-5,.78-11.18,13.05-15.11,13.54-1.16.15,5.69-13.44,3.06-15.69S147.6,7.13,140.28,27.11Z"/>
<circle class="cls-83" cx="172.38" cy="35.82" r="9.2"/>
<circle class="cls-84" cx="172.38" cy="35.82" r="5.17"/>
<circle class="cls-85" cx="172.38" cy="35.82" r="3.71"/>
<circle class="cls-86" cx="172.38" cy="35.82" r="3.52"/>
<path class="cls-87" d="m160.93 73.27s9.68 11.14 10.07 26.42h4.36s1.13-17.52 8.55-26.87z"/>
<ellipse class="cls-88" cx="177.55" cy="43.28" rx="5.11" ry="4.96"/>
<ellipse class="cls-89" cx="177.55" cy="43.28" rx="2.53" ry="2.46"/>
<ellipse class="cls-90" cx="169.65" cy="26.71" rx="5.11" ry="4.96"/>
<path class="cls-91" d="m172.18 26.71a2.53 2.53 0 1 1-2.53-2.45 2.49 2.49 0 0 1 2.53 2.45z"/>
<path class="cls-92" d="m155 22.06a2.53 2.53 0 1 1-2.53-2.45 2.49 2.49 0 0 1 2.53 2.45z"/>
<ellipse class="cls-93" cx="152.42" cy="22.06" rx="1.25" ry="1.22"/>
<ellipse class="cls-94" cx="161.75" cy="41.49" rx="2.53" ry="2.46"/>
<ellipse class="cls-95" cx="161.75" cy="41.49" rx="1.25" ry="1.22"/>
<ellipse class="cls-96" cx="192.43" cy="28.38" rx="2.53" ry="2.46"/>
<ellipse class="cls-97" cx="192.43" cy="28.38" rx="1.25" ry="1.22"/>
<path class="cls-98" d="m199.53 35.08a2.53 2.53 0 1 1-2.53-2.46 2.49 2.49 0 0 1 2.53 2.46z"/>
<path class="cls-99" d="m198.25 35.08a1.25 1.25 0 1 1-1.25-1.22 1.24 1.24 0 0 1 1.25 1.22z"/>
<path class="cls-100" d="m170.46 60.31a2.14 2.14 0 1 1-2.14-2.08 2.11 2.11 0 0 1 2.14 2.08z"/>
<ellipse class="cls-101" cx="168.32" cy="60.31" rx="1.06" ry="1.03"/>
<polygon class="cls-102" points="157.06 97.2 155.5 103.21 189.36 103.21 188.05 97.2"/>
<path class="cls-103" d="M162.5,37.08a.25.25,0,0,1-.49,0,.25.25,0,1,1,.49,0Z"/>
<path class="cls-103" d="M154.6,51.61a.25.25,0,1,1-.49,0,.25.25,0,0,1,.49,0Z"/>
<path class="cls-103" d="M191.42,50.21a.25.25,0,1,1-.25-.25A.25.25,0,0,1,191.42,50.21Z"/>
<path class="cls-103" d="M185.28,38.74a.25.25,0,1,1-.24-.24A.25.25,0,0,1,185.28,38.74Z"/>
<path class="cls-103" d="M172.69,29.51a.25.25,0,1,1-.25-.24A.25.25,0,0,1,172.69,29.51Z"/>
<path class="cls-103" d="M173.82,39.23a.25.25,0,1,1-.24-.24A.25.25,0,0,1,173.82,39.23Z"/>
<path class="cls-103" d="M152.66,22.31a.25.25,0,0,1-.49,0,.25.25,0,1,1,.49,0Z"/>
<circle class="cls-104" cx="169.65" cy="26.71" r=".41"/>
<path class="cls-103" d="M178.29,43.28a.74.74,0,1,1-.74-.74A.74.74,0,0,1,178.29,43.28Z"/>
<path class="cls-103" d="M197,35.08a.47.47,0,0,1-.46.46.46.46,0,0,1,0-.92A.47.47,0,0,1,197,35.08Z"/>
<path class="cls-103" d="M168,60.56a.47.47,0,0,1-.46.46.46.46,0,0,1-.46-.46.45.45,0,0,1,.46-.46A.46.46,0,0,1,168,60.56Z"/>
<circle class="cls-104" cx="175.68" cy="13.78" r=".46"/>
<path class="cls-103" d="M162,41.25a.25.25,0,0,1-.49,0,.25.25,0,1,1,.49,0Z"/>
<path class="cls-103" d="M192.67,28.38a.25.25,0,0,1-.49,0,.25.25,0,1,1,.49,0Z"/>
<path class="cls-103" d="M180.08,19.15a.25.25,0,1,1-.25-.25A.25.25,0,0,1,180.08,19.15Z"/>
<path class="cls-103" d="M185,51.61a.25.25,0,1,1-.25-.24A.25.25,0,0,1,185,51.61Z"/>
<path class="cls-103" d="M144.9,36.47a.25.25,0,0,1-.49,0,.25.25,0,1,1,.49,0Z"/>
<path class="cls-103" d="M160.06,11.94a.25.25,0,0,1-.25.25.25.25,0,1,1,0-.49A.25.25,0,0,1,160.06,11.94Z"/>
<path class="cls-103" d="M177.79,28.38a.25.25,0,0,1-.49,0,.25.25,0,1,1,.49,0Z"/>
<path class="cls-103" d="M177.55,61.79a.25.25,0,1,1-.49,0,.25.25,0,0,1,.49,0Z"/>
<g class="cls-105">
<path class="cls-106" d="M182.09,36.61a.41.41,0,1,1,.57-.09A.41.41,0,0,1,182.09,36.61Z"/>
<path class="cls-106" d="M163.85,33.52a.74.74,0,1,1,1-.16A.74.74,0,0,1,163.85,33.52Z"/>
<path class="cls-106" d="M159.48,53.48a.46.46,0,1,1,.64-.1A.46.46,0,0,1,159.48,53.48Z"/>
<path class="cls-106" d="M155.9,15.07a.46.46,0,0,1-.1-.64.46.46,0,1,1,.1.64Z"/>
<path class="cls-106" d="M192.82,48.23a.46.46,0,1,1,.65-.1A.46.46,0,0,1,192.82,48.23Z"/>
<path class="cls-106" d="M175.07,21.54a.25.25,0,0,1,0-.35.25.25,0,0,1,.4.29A.25.25,0,0,1,175.07,21.54Z"/>
<path class="cls-106" d="M167.44,53.92a.25.25,0,0,1,.29-.4.25.25,0,1,1-.29.4Z"/>
<path class="cls-106" d="M182.31,49.16a.25.25,0,0,1,.29-.4.25.25,0,1,1-.29.4Z"/>
<path class="cls-106" d="M153.14,34.08a.25.25,0,1,1,.34-.06A.24.24,0,0,1,153.14,34.08Z"/>
<path class="cls-106" d="M189,10.52a.24.24,0,0,1,.29-.39.24.24,0,1,1-.29.39Z"/>
<path class="cls-106" d="M199.92,37.2a.24.24,0,1,1,.34-.05A.24.24,0,0,1,199.92,37.2Z"/>
<path class="cls-106" d="M176.19,41.89a.25.25,0,0,1-.05-.35.25.25,0,0,1,.4.29A.25.25,0,0,1,176.19,41.89Z"/>
<path class="cls-106" d="M149.31,22a.25.25,0,0,1-.05-.35.24.24,0,1,1,.05.35Z"/>
</g>
<path class="cls-107" d="m175.22 35.54s5.69-1.38 7.91-5.77 5.23-9.37 10.43-11.36a8.1 8.1 0 0 0 5.52-6.47l2.56 3.22a30.37 30.37 0 0 0-6.64 3.25c-4.14 2.52-6.62 4.29-6.53 7.85s6.51 2.09 10.32 0.36a26.89 26.89 0 0 0 6.72-4.54l0.41 1s-6.65 4.15-9.8 5.27-4 1.55-6.94 1.21-5.62 1.22-8 3.34-3.14 4-4.53 3.75-1.43-1.11-1.43-1.11z"/>
<path class="cls-108" d="M175,36.28s6.73,5.28,9.77,6.26c4.59,1.47,3,4.87,4.1,8.28s7.32,2.38,8.67,3.81,4.8.79,4.8.79l-.89,1.29s-2.83.6-3.91-1-7.51-1-8.67-2.58-.8-5.38-1.91-6.79-3.53,4.9-3.53,8.62,8.57,4.6,10.23,9.67l-1,.72s-.9-3.65-6.68-6.5-.38-12.45-.71-14.27-8.18-5.44-11.7-5.57Z"/>
<path class="cls-109" d="M172.44,34.72s1.38-3.13-.26-8-2.8-6.32-3.52-12.47,2.62-10.12,2.86-11.47A6.44,6.44,0,0,0,171.28,0l3.94.11s-.71.92-3.33,4.41-4,8.58-1.43,14.87,4.49,9.3,7.83,8.16,7.26-4.86,7.73-9.07-1.09-11.65-.74-13.8l.35-2.15,2.34,1s-1.47.73-1.59,3.58.83,11.13,0,13.71-6,6.76-8.83,8.42a5.62,5.62,0,0,0-2.79,4.61Z"/>
<path class="cls-110" d="M149.89,7.94a11.29,11.29,0,0,0,6.74,11c7.63,3.73,13.83,15.14,13.83,15.14l-.4,1.74s-2.38-7.23-7.06-9.77-9.12-.42-15.74-.18-8.33-2.05-8.33-2.05l.17-1.32s3,4.05,10.11,2.82,12.51-.19,12.78-1.19-4.87-3.86-9.33-6.82a12.06,12.06,0,0,1-5.19-7.28Z"/>
<path class="cls-111" d="M171.28,36.83s1.06,2.57-8.45,4.06-15.78,3.72-18.17,4.84a40.17,40.17,0,0,0-5.51,3.48l.69,1.6a18.05,18.05,0,0,1,8.73-5.8c5.59-1.6,10.05.84,11.92,5.45s-3.47,8.1-5.26,10.1S151.54,65,151.54,65l1.12.77s4.06-5.43,7.83-9.77-.92-10.32,0-12.32,8-2.61,10-3.35,2-3.2,2-3.2Z"/>
<path class="cls-112" d="M170.06,68.42s3.31-4.64,3.52-9.14S173,53.08,171.82,49s1.51-12.13,1.51-12.13-2.64,9.41-.6,13.38,3,9.39,2.49,12.18a20.72,20.72,0,0,1-2.56,6Z"/>
<path class="cls-113" d="m138.93 34.13c0.47 6.79 16.83-2.05 29.63-8.81 14.18-7.48 28.6-8.16 30.3-10.85s-17.29-18.7-37.93-10.75c-19.74 7.61-22.34 25.48-22 30.41z"/>
<path class="cls-114" d="M185.28,64.07s5.93-.3,13-9.6c8-10.52,6.68-22.86,7.43-23.64.52-.54,1.65,10.4-2.57,19.63S193,64,190.55,65Z"/>
<path class="cls-103" d="m148.27 12s3.94 1.62 5.75 2.54c0 0 5.12-4.9 6.75-6.3a10.42 10.42 0 0 0-4.72-1.86 33.53 33.53 0 0 0-7.78 5.62z"/>
<path class="cls-103" d="m147.44 12.65s2.61 1.28 5.42 3l-2.17 2.2a45.45 45.45 0 0 1-6.13-1.36 28.52 28.52 0 0 1 2.88-3.84z"/>
<path class="cls-115" d="m155.22 66s7-7.78 9.1-10.66a88.22 88.22 0 0 0 15.76-0.34l9.06 12.14s-19.8 8.07-33.92-1.14z"/>
<polygon class="cls-116" points="152.12 65.45 153.83 73.27 191.53 72.78 193.2 64.95"/>
<path class="cls-117" d="m139.65 44s0 12 13.21 21c0 0-11.23-13.14-13.21-21z"/>
<path class="cls-118" d="m202.9 20.25c0.67 2.19 0 4.33-1.4 4.78s-3.17-1-3.84-3.17 0-4.33 1.4-4.78 3.16 0.98 3.84 3.17z"/>
<path class="cls-119" d="m201.58 20.66c0.33 1.08 0 2.14-0.7 2.36s-1.57-0.48-1.9-1.57 0-2.14 0.69-2.36 1.57 0.48 1.91 1.57z"/>
<path class="cls-120" d="m151.5 54c2.61 4.4 2.37 9.35-0.53 11.07s-7.36-0.45-10-4.85-2.37-9.35 0.53-11.06 7.4 0.49 10 4.84z"/>
<path class="cls-121" d="m148.86 55.61c1.29 2.18 1.17 4.63-0.27 5.48s-3.64-0.22-4.93-2.4-1.17-4.63 0.26-5.48 3.65 0.23 4.94 2.4z"/>
<path class="cls-122" d="M164.54,78.46s2-3.18,8.16-2.59,6.11,6.87,6.11,6.87a23.48,23.48,0,0,1,5.12-9.92l-22.43.45Z"/>
<polygon class="cls-123" points="152.66 65.72 180.08 65.72 178.29 72.83 183.5 72.83 184.54 65.06"/>
<path class="cls-124" d="M158.08,97.2s18.83.23,19.47.55.67,5.46.67,5.46h6.57l.49-5.38,2.77-.63Z"/>
</g>
</g>
</svg>
